<svg xmlns="http://www.w3.org/2000/svg" width="201" height="118.576" viewBox="0 0 201 118.576">
  <g id="Grupo_1292" data-name="Grupo 1292" transform="translate(1331.518 -4583.042)">
    <g id="Grupo_1282" data-name="Grupo 1282" transform="translate(-1331.518 4583.042)">
      <g id="Grupo_1249" data-name="Grupo 1249">
        <path id="Caminho_1401" data-name="Caminho 1401" d="M868.7,702.4,830.26,598.54a4.461,4.461,0,0,0-4.224-2.94H697l41.158,108.364H868.981A4.517,4.517,0,0,0,868.7,702.4Z" transform="translate(-667.981 -589.904)" fill="#fff"/>
        <path id="Caminho_1402" data-name="Caminho 1402" d="M996.941,1413.8l-1.6,3.628a.64.64,0,0,0,.583.9l128.241-.093a4.513,4.513,0,0,0,3.589-4.423H996.941Z" transform="translate(-926.764 -1299.753)" fill="#ade5de"/>
        <g id="Grupo_1225" data-name="Grupo 1225" transform="translate(1.415 7.11)">
          <path id="Caminho_1403" data-name="Caminho 1403" d="M513.266,608.291a3.084,3.084,0,0,1,5.787,0l18.54,50.1,19.89,53.765a3.089,3.089,0,0,1-2.9,4.158H491.641a3.094,3.094,0,0,1-2.9-4.158Z" transform="translate(-488.548 -606.275)" fill="#1d1240"/>
        </g>
        <path id="Caminho_1404" data-name="Caminho 1404" d="M549.55,702.4,511.12,598.54a4.505,4.505,0,0,0-8.449,0L478.146,702.4a4.513,4.513,0,0,0,4.238,6.078h62.955a4.484,4.484,0,0,0,4.211-6.078Zm-2.86,2.516a1.647,1.647,0,0,1-1.364.715H482.371a1.668,1.668,0,0,1-1.563-2.238L505.32,599.533a1.667,1.667,0,0,1,3.125,0l38.443,103.861A1.654,1.654,0,0,1,546.69,704.917Z" transform="translate(-477.863 -589.904)" fill="#2e87be"/>
        <g id="Grupo_1247" data-name="Grupo 1247" transform="translate(43.475)">
          <g id="Grupo_1228" data-name="Grupo 1228">
            <path id="Caminho_1405" data-name="Caminho 1405" d="M858.1,619.755a1.214,1.214,0,0,1-1.192,1.655,2.362,2.362,0,0,1-2.119-1.655,1.214,1.214,0,0,1,1.192-1.655A2.348,2.348,0,0,1,858.1,619.755Z" transform="translate(-848.296 -609.424)" fill="#1e1240"/>
            <g id="Grupo_1226" data-name="Grupo 1226">
              <path id="Caminho_1406" data-name="Caminho 1406" d="M813.288,562.719l-.013-.04a.8.8,0,0,1,.543-1.059c1.47-.4,2.2-1.88,1.6-3.6a5,5,0,0,0-4.092-3.2,2.548,2.548,0,0,0-2.741,3.443h-2.211c-.914-3.271,1.139-5.893,4.529-5.655a8.173,8.173,0,0,1,6.674,5.218c1.006,2.847-.212,5.31-2.648,5.946A1.468,1.468,0,0,1,813.288,562.719Z" transform="translate(-806.158 -552.586)" fill="#2e87be"/>
            </g>
            <g id="Grupo_1227" data-name="Grupo 1227" transform="translate(7.082 2.611)">
              <path id="Caminho_1407" data-name="Caminho 1407" d="M863.979,574.949a7.59,7.59,0,0,0-1.642-2.649,6.449,6.449,0,0,1,.53,1.152c1.006,2.847-.212,5.31-2.649,5.946a1.043,1.043,0,0,1-.569-.013,1.178,1.178,0,0,0,.026.424l.013.04a1.489,1.489,0,0,0,1.629,1.059C863.767,580.246,864.985,577.8,863.979,574.949Z" transform="translate(-859.64 -572.3)" fill="#311e69"/>
            </g>
            <path id="Caminho_1408" data-name="Caminho 1408" d="M816.215,562.948a4.926,4.926,0,0,1,3.39,1.933h0c-.728-1.907-3.39-3.893-6.131-2.423A3.751,3.751,0,0,0,811.9,566.4h1.576A2.561,2.561,0,0,1,816.215,562.948Z" transform="translate(-811.045 -560.709)" fill="#311e69"/>
          </g>
          <g id="Grupo_1231" data-name="Grupo 1231" transform="translate(15.971)">
            <path id="Caminho_1409" data-name="Caminho 1409" d="M978.6,619.755a1.215,1.215,0,0,1-1.192,1.655,2.362,2.362,0,0,1-2.119-1.655,1.214,1.214,0,0,1,1.192-1.655A2.348,2.348,0,0,1,978.6,619.755Z" transform="translate(-968.809 -609.424)" fill="#1e1240"/>
            <g id="Grupo_1229" data-name="Grupo 1229">
              <path id="Caminho_1410" data-name="Caminho 1410" d="M933.888,562.719l-.013-.04a.8.8,0,0,1,.543-1.059c1.47-.4,2.2-1.88,1.6-3.6a5,5,0,0,0-4.092-3.2,2.548,2.548,0,0,0-2.741,3.443h-2.211c-.914-3.271,1.139-5.893,4.529-5.655a8.173,8.173,0,0,1,6.674,5.218c1.007,2.847-.212,5.31-2.648,5.946A1.461,1.461,0,0,1,933.888,562.719Z" transform="translate(-926.758 -552.586)" fill="#2e87be"/>
            </g>
            <g id="Grupo_1230" data-name="Grupo 1230" transform="translate(7.069 2.611)">
              <path id="Caminho_1411" data-name="Caminho 1411" d="M984.478,574.949a7.586,7.586,0,0,0-1.642-2.649,6.445,6.445,0,0,1,.53,1.152c1.006,2.847-.212,5.31-2.649,5.946a1.043,1.043,0,0,1-.569-.013,1.18,1.18,0,0,0,.026.424l.013.04a1.49,1.49,0,0,0,1.629,1.059C984.267,580.246,985.5,577.8,984.478,574.949Z" transform="translate(-980.14 -572.3)" fill="#311e69"/>
            </g>
            <path id="Caminho_1412" data-name="Caminho 1412" d="M936.815,562.948a4.926,4.926,0,0,1,3.39,1.933h0c-.728-1.907-3.39-3.893-6.131-2.423A3.751,3.751,0,0,0,932.5,566.4h1.576A2.557,2.557,0,0,1,936.815,562.948Z" transform="translate(-931.645 -560.709)" fill="#311e69"/>
          </g>
          <g id="Grupo_1234" data-name="Grupo 1234" transform="translate(31.941)">
            <path id="Caminho_1413" data-name="Caminho 1413" d="M1099.2,619.755a1.215,1.215,0,0,1-1.192,1.655,2.362,2.362,0,0,1-2.119-1.655,1.215,1.215,0,0,1,1.192-1.655A2.348,2.348,0,0,1,1099.2,619.755Z" transform="translate(-1089.409 -609.424)" fill="#1e1240"/>
            <g id="Grupo_1232" data-name="Grupo 1232">
              <path id="Caminho_1414" data-name="Caminho 1414" d="M1054.475,562.719l-.013-.04a.8.8,0,0,1,.543-1.059c1.47-.4,2.2-1.88,1.6-3.6a5,5,0,0,0-4.092-3.2,2.548,2.548,0,0,0-2.741,3.443h-2.2c-.914-3.271,1.139-5.893,4.529-5.655a8.172,8.172,0,0,1,6.674,5.218c1.007,2.847-.212,5.31-2.648,5.946A1.475,1.475,0,0,1,1054.475,562.719Z" transform="translate(-1047.358 -552.586)" fill="#2e87be"/>
            </g>
            <g id="Grupo_1233" data-name="Grupo 1233" transform="translate(7.069 2.611)">
              <path id="Caminho_1415" data-name="Caminho 1415" d="M1105.078,574.949a7.588,7.588,0,0,0-1.642-2.649,6.463,6.463,0,0,1,.53,1.152c1.006,2.847-.212,5.31-2.649,5.946a1.044,1.044,0,0,1-.57-.013,1.186,1.186,0,0,0,.027.424l.013.04a1.489,1.489,0,0,0,1.629,1.059C1104.866,580.246,1106.085,577.8,1105.078,574.949Z" transform="translate(-1100.74 -572.3)" fill="#311e69"/>
            </g>
            <path id="Caminho_1416" data-name="Caminho 1416" d="M1057.415,562.948a4.926,4.926,0,0,1,3.39,1.933h0c-.728-1.907-3.39-3.893-6.131-2.423a3.751,3.751,0,0,0-1.576,3.946h1.576A2.553,2.553,0,0,1,1057.415,562.948Z" transform="translate(-1052.245 -560.709)" fill="#311e69"/>
          </g>
          <g id="Grupo_1237" data-name="Grupo 1237" transform="translate(47.898)">
            <path id="Caminho_1417" data-name="Caminho 1417" d="M1219.7,619.755a1.214,1.214,0,0,1-1.192,1.655,2.362,2.362,0,0,1-2.119-1.655,1.214,1.214,0,0,1,1.192-1.655A2.334,2.334,0,0,1,1219.7,619.755Z" transform="translate(-1209.909 -609.424)" fill="#1e1240"/>
            <g id="Grupo_1235" data-name="Grupo 1235">
              <path id="Caminho_1418" data-name="Caminho 1418" d="M1174.988,562.719l-.013-.04a.8.8,0,0,1,.543-1.059c1.47-.4,2.2-1.88,1.6-3.6a5,5,0,0,0-4.092-3.2,2.548,2.548,0,0,0-2.741,3.443h-2.211c-.914-3.271,1.139-5.893,4.529-5.655a8.173,8.173,0,0,1,6.674,5.218c1.006,2.847-.212,5.31-2.648,5.946A1.461,1.461,0,0,1,1174.988,562.719Z" transform="translate(-1167.858 -552.586)" fill="#2e87be"/>
            </g>
            <g id="Grupo_1236" data-name="Grupo 1236" transform="translate(7.082 2.611)">
              <path id="Caminho_1419" data-name="Caminho 1419" d="M1225.678,574.949a7.592,7.592,0,0,0-1.642-2.649,6.453,6.453,0,0,1,.53,1.152c1.007,2.847-.212,5.31-2.648,5.946a1.043,1.043,0,0,1-.569-.013,1.18,1.18,0,0,0,.026.424l.013.04a1.49,1.49,0,0,0,1.629,1.059C1225.453,580.246,1226.685,577.8,1225.678,574.949Z" transform="translate(-1221.34 -572.3)" fill="#311e69"/>
            </g>
            <path id="Caminho_1420" data-name="Caminho 1420" d="M1177.916,562.948a4.926,4.926,0,0,1,3.39,1.933h0c-.728-1.907-3.39-3.893-6.131-2.423a3.751,3.751,0,0,0-1.576,3.946h1.576A2.561,2.561,0,0,1,1177.916,562.948Z" transform="translate(-1172.745 -560.709)" fill="#311e69"/>
          </g>
          <g id="Grupo_1240" data-name="Grupo 1240" transform="translate(63.869)">
            <path id="Caminho_1421" data-name="Caminho 1421" d="M1340.3,619.755a1.214,1.214,0,0,1-1.192,1.655,2.362,2.362,0,0,1-2.119-1.655,1.214,1.214,0,0,1,1.192-1.655A2.348,2.348,0,0,1,1340.3,619.755Z" transform="translate(-1330.509 -609.424)" fill="#1e1240"/>
            <g id="Grupo_1238" data-name="Grupo 1238">
              <path id="Caminho_1422" data-name="Caminho 1422" d="M1295.588,562.719l-.013-.04a.8.8,0,0,1,.543-1.059c1.47-.4,2.2-1.88,1.6-3.6a5,5,0,0,0-4.092-3.2,2.548,2.548,0,0,0-2.741,3.443h-2.212c-.914-3.271,1.139-5.893,4.529-5.655a8.173,8.173,0,0,1,6.674,5.218c1.006,2.847-.212,5.31-2.648,5.946A1.453,1.453,0,0,1,1295.588,562.719Z" transform="translate(-1288.458 -552.586)" fill="#2e87be"/>
            </g>
            <g id="Grupo_1239" data-name="Grupo 1239" transform="translate(7.069 2.611)">
              <path id="Caminho_1423" data-name="Caminho 1423" d="M1346.178,574.949a7.587,7.587,0,0,0-1.642-2.649,6.445,6.445,0,0,1,.53,1.152c1.007,2.847-.212,5.31-2.648,5.946a1.044,1.044,0,0,1-.57-.013,1.183,1.183,0,0,0,.026.424l.013.04a1.49,1.49,0,0,0,1.629,1.059C1345.967,580.246,1347.185,577.8,1346.178,574.949Z" transform="translate(-1341.84 -572.3)" fill="#311e69"/>
            </g>
            <path id="Caminho_1424" data-name="Caminho 1424" d="M1298.515,562.948a4.926,4.926,0,0,1,3.39,1.933h0c-.728-1.907-3.39-3.893-6.131-2.423a3.751,3.751,0,0,0-1.576,3.946h1.576A2.557,2.557,0,0,1,1298.515,562.948Z" transform="translate(-1293.345 -560.709)" fill="#311e69"/>
          </g>
          <g id="Grupo_1243" data-name="Grupo 1243" transform="translate(79.826)">
            <path id="Caminho_1425" data-name="Caminho 1425" d="M1460.9,619.755a1.214,1.214,0,0,1-1.192,1.655,2.362,2.362,0,0,1-2.119-1.655,1.214,1.214,0,0,1,1.192-1.655A2.362,2.362,0,0,1,1460.9,619.755Z" transform="translate(-1451.096 -609.424)" fill="#1e1240"/>
            <g id="Grupo_1241" data-name="Grupo 1241">
              <path id="Caminho_1426" data-name="Caminho 1426" d="M1416.088,562.719l-.013-.04a.8.8,0,0,1,.543-1.059c1.47-.4,2.2-1.88,1.6-3.6a5,5,0,0,0-4.092-3.2,2.548,2.548,0,0,0-2.741,3.443h-2.212c-.914-3.271,1.139-5.893,4.529-5.655a8.172,8.172,0,0,1,6.674,5.218c1.007,2.847-.212,5.31-2.648,5.946A1.468,1.468,0,0,1,1416.088,562.719Z" transform="translate(-1408.958 -552.586)" fill="#2e87be"/>
            </g>
            <g id="Grupo_1242" data-name="Grupo 1242" transform="translate(7.082 2.611)">
              <path id="Caminho_1427" data-name="Caminho 1427" d="M1466.778,574.949a7.59,7.59,0,0,0-1.642-2.649,6.472,6.472,0,0,1,.53,1.152c1.006,2.847-.212,5.31-2.649,5.946a1.043,1.043,0,0,1-.569-.013,1.183,1.183,0,0,0,.026.424l.013.04a1.49,1.49,0,0,0,1.629,1.059C1466.567,580.246,1467.785,577.8,1466.778,574.949Z" transform="translate(-1462.44 -572.3)" fill="#311e69"/>
            </g>
            <path id="Caminho_1428" data-name="Caminho 1428" d="M1419.015,562.948a4.926,4.926,0,0,1,3.39,1.933h0c-.728-1.907-3.39-3.893-6.131-2.423a3.751,3.751,0,0,0-1.576,3.946h1.576A2.561,2.561,0,0,1,1419.015,562.948Z" transform="translate(-1413.845 -560.709)" fill="#311e69"/>
          </g>
          <g id="Grupo_1246" data-name="Grupo 1246" transform="translate(95.797)">
            <path id="Caminho_1429" data-name="Caminho 1429" d="M1581.4,619.755a1.214,1.214,0,0,1-1.192,1.655,2.362,2.362,0,0,1-2.119-1.655,1.214,1.214,0,0,1,1.192-1.655A2.348,2.348,0,0,1,1581.4,619.755Z" transform="translate(-1571.609 -609.424)" fill="#1e1240"/>
            <g id="Grupo_1244" data-name="Grupo 1244">
              <path id="Caminho_1430" data-name="Caminho 1430" d="M1536.688,562.719l-.013-.04a.8.8,0,0,1,.543-1.059c1.47-.4,2.2-1.88,1.6-3.6a5,5,0,0,0-4.092-3.2,2.548,2.548,0,0,0-2.741,3.443h-2.212c-.914-3.271,1.139-5.893,4.529-5.655a8.173,8.173,0,0,1,6.674,5.218c1.006,2.847-.212,5.31-2.648,5.946A1.453,1.453,0,0,1,1536.688,562.719Z" transform="translate(-1529.558 -552.586)" fill="#2e87be"/>
            </g>
            <g id="Grupo_1245" data-name="Grupo 1245" transform="translate(7.069 2.611)">
              <path id="Caminho_1431" data-name="Caminho 1431" d="M1587.278,574.949a7.59,7.59,0,0,0-1.642-2.649,6.462,6.462,0,0,1,.53,1.152c1.006,2.847-.212,5.31-2.648,5.946a1.044,1.044,0,0,1-.57-.013,1.186,1.186,0,0,0,.027.424l.013.04a1.49,1.49,0,0,0,1.629,1.059C1587.067,580.246,1588.3,577.8,1587.278,574.949Z" transform="translate(-1582.94 -572.3)" fill="#311e69"/>
            </g>
            <path id="Caminho_1432" data-name="Caminho 1432" d="M1539.615,562.948a4.926,4.926,0,0,1,3.39,1.933h0c-.728-1.907-3.39-3.893-6.131-2.423a3.751,3.751,0,0,0-1.576,3.946h1.576A2.557,2.557,0,0,1,1539.615,562.948Z" transform="translate(-1534.445 -560.709)" fill="#311e69"/>
          </g>
        </g>
        <g id="Grupo_1248" data-name="Grupo 1248" transform="translate(58.961 34.671)">
          <path id="Caminho_1445" data-name="Caminho 1445" d="M1680.848,1136.912h14.66l-4.648-11.812H1676.2Z" transform="translate(-1576.47 -1083.955)" fill="#4bb4d4"/>
          <path id="Caminho_1447" data-name="Caminho 1447" d="M1640.048,1033.312h14.659l-4.661-11.812H1635.4Z" transform="translate(-1541.073 -994.075)" fill="#4bb4d4"/>
          <path id="Caminho_1453" data-name="Caminho 1453" d="M1599.161,929.712h14.659L1609.16,917.9H1594.5Z" transform="translate(-1505.589 -904.194)" fill="#4bb4d4"/>
          <path id="Caminho_1457" data-name="Caminho 1457" d="M1731.66,1228.7H1717l4.661,11.812h14.646Z" transform="translate(-1611.867 -1173.836)" fill="#4bb4d4"/>
          <g id="Grupo_1273" data-name="Grupo 1273">
            <path id="Caminho_1433" data-name="Caminho 1433" d="M1109.308,929.712,1104.66,917.9H1090l4.661,11.812Z" transform="translate(-1067.898 -904.194)" fill="#ade5de"/>
            <path id="Caminho_1434" data-name="Caminho 1434" d="M1049.2,814.4l4.648,11.812h14.659L1063.86,814.4Z" transform="translate(-1032.501 -814.4)" fill="#ade5de"/>
            <path id="Caminho_1435" data-name="Caminho 1435" d="M1150.121,1033.312l-4.661-11.812H1130.8l4.661,11.812Z" transform="translate(-1103.295 -994.075)" fill="#ade5de"/>
            <path id="Caminho_1436" data-name="Caminho 1436" d="M1175.3,814.4l4.661,11.812h14.66l-4.662-11.812Z" transform="translate(-1141.902 -814.4)" fill="#ade5de"/>
            <path id="Caminho_1437" data-name="Caminho 1437" d="M1317.108,1136.912l-4.648-11.812H1297.8l4.648,11.812Z" transform="translate(-1248.18 -1083.955)" fill="#ade5de"/>
            <path id="Caminho_1438" data-name="Caminho 1438" d="M1443.208,1136.912l-4.648-11.812H1423.9l4.661,11.812Z" transform="translate(-1357.581 -1083.955)" fill="#ade5de"/>
            <path id="Caminho_1439" data-name="Caminho 1439" d="M1569.408,1136.912l-4.661-11.812H1550.1l4.648,11.812Z" transform="translate(-1467.069 -1083.955)" fill="#ade5de"/>
            <path id="Caminho_1440" data-name="Caminho 1440" d="M1191.008,1136.912l-4.661-11.812H1171.7l4.648,11.812Z" transform="translate(-1138.779 -1083.955)" fill="#ade5de"/>
            <path id="Caminho_1441" data-name="Caminho 1441" d="M1301.5,814.4l4.648,11.812h14.66l-4.661-11.812Z" transform="translate(-1251.39 -814.4)" fill="#ade5de"/>
            <path id="Caminho_1442" data-name="Caminho 1442" d="M1427.6,814.4l4.648,11.812h14.66L1442.26,814.4Z" transform="translate(-1360.791 -814.4)" fill="#ade5de"/>
            <path id="Caminho_1443" data-name="Caminho 1443" d="M1216.2,917.9l4.648,11.812h14.66l-4.661-11.812Z" transform="translate(-1177.386 -904.194)" fill="#ade5de"/>
            <path id="Caminho_1444" data-name="Caminho 1444" d="M1361.608,929.712l-4.648-11.812H1342.3l4.648,11.812Z" transform="translate(-1286.787 -904.194)" fill="#ade5de"/>
            <path id="Caminho_1446" data-name="Caminho 1446" d="M1276.308,1033.312l-4.661-11.812H1257l4.648,11.812Z" transform="translate(-1212.783 -994.075)" fill="#ade5de"/>
            <path id="Caminho_1448" data-name="Caminho 1448" d="M1468.4,917.9l4.661,11.812h14.646L1483.06,917.9Z" transform="translate(-1396.188 -904.194)" fill="#ade5de"/>
            <path id="Caminho_1449" data-name="Caminho 1449" d="M1402.408,1033.312l-4.648-11.812H1383.1l4.661,11.812Z" transform="translate(-1322.184 -994.075)" fill="#ade5de"/>
            <path id="Caminho_1450" data-name="Caminho 1450" d="M1528.521,1033.312l-4.661-11.812H1509.2l4.661,11.812Z" transform="translate(-1431.585 -994.075)" fill="#ade5de"/>
            <path id="Caminho_1451" data-name="Caminho 1451" d="M1464.7,1228.7l4.661,11.812h14.659l-4.661-11.812Z" transform="translate(-1392.978 -1173.836)" fill="#ade5de"/>
            <path id="Caminho_1452" data-name="Caminho 1452" d="M1060.16,1125.1H1045.5l4.661,11.812h14.646Z" transform="translate(-1029.291 -1083.955)" fill="#ade5de"/>
            <path id="Caminho_1454" data-name="Caminho 1454" d="M1019.36,1021.5H1004.7l4.661,11.812h14.646Z" transform="translate(-993.894 -994.075)" fill="#ade5de"/>
            <path id="Caminho_1455" data-name="Caminho 1455" d="M1212.5,1228.7l4.648,11.812h14.66l-4.661-11.812Z" transform="translate(-1174.176 -1173.836)" fill="#ade5de"/>
            <path id="Caminho_1456" data-name="Caminho 1456" d="M1086.3,1228.7l4.661,11.812h14.66l-4.661-11.812Z" transform="translate(-1064.688 -1173.836)" fill="#ade5de"/>
            <path id="Caminho_1458" data-name="Caminho 1458" d="M1338.6,1228.7l4.661,11.812h14.646l-4.648-11.812Z" transform="translate(-1283.577 -1173.836)" fill="#ade5de"/>
            <path id="Caminho_1459" data-name="Caminho 1459" d="M1590.9,1228.7l4.648,11.812h14.66l-4.661-11.812Z" transform="translate(-1502.466 -1173.836)" fill="#ade5de"/>
            <path id="Caminho_1460" data-name="Caminho 1460" d="M978.56,917.9H963.9l4.648,11.812h14.66Z" transform="translate(-958.497 -904.194)" fill="#ade5de"/>
            <path id="Caminho_1461" data-name="Caminho 1461" d="M937.746,814.4H923.1l4.648,11.812h14.659Z" transform="translate(-923.1 -814.4)" fill="#ade5de"/>
          </g>
          <path id="Caminho_1462" data-name="Caminho 1462" d="M1558.361,826.212h14.646l-4.648-11.812H1553.7Z" transform="translate(-1470.192 -814.4)" fill="#4bb4d4"/>
        </g>
      </g>
      <g id="Grupo_1250" data-name="Grupo 1250" transform="translate(91.636 18.224)">
        <path id="Caminho_1463" data-name="Caminho 1463" d="M1172.753,703.112l-.079-.3a7.841,7.841,0,0,1,.53-5.761c.662-1.629.9-2.079.516-3.47-.265-.94-.477-1.351-1.046-1.351-.516,0-.583.41-.344,1.258l.212.755h-2.278l-.2-.689c-.424-1.523-.477-3.35,2.145-3.35,2.344,0,3.443,1.443,3.986,3.4.556,1.986.119,2.847-.609,4.529a5.408,5.408,0,0,0-.649,2.847h3.549l.291,2.145h-6.025Z" transform="translate(-1169.846 -690.2)" fill="#ade5de"/>
        <path id="Caminho_1464" data-name="Caminho 1464" d="M1231.617,693.656l1.682,6.039c.556,1.986.292,3.589-2.3,3.589-2.516,0-3.628-1.669-4.158-3.575l-1.655-5.946c-.636-2.3.133-3.562,2.251-3.562A4.2,4.2,0,0,1,1231.617,693.656Zm-4.052-.2,1.827,6.542c.212.742.53,1.165,1.086,1.165s.623-.45.411-1.205l-1.827-6.542c-.172-.636-.477-1.086-1.06-1.086C1227.472,692.332,1227.366,692.756,1227.565,693.458Z" transform="translate(-1217.666 -690.2)" fill="#ade5de"/>
        <path id="Caminho_1465" data-name="Caminho 1465" d="M1283.153,703.112l-.079-.3a7.841,7.841,0,0,1,.53-5.761c.662-1.629.9-2.079.516-3.47-.265-.94-.477-1.351-1.046-1.351-.516,0-.583.41-.344,1.258l.212.755h-2.278l-.2-.689c-.424-1.523-.477-3.35,2.145-3.35,2.344,0,3.443,1.443,3.986,3.4.556,1.986.119,2.847-.609,4.529a5.41,5.41,0,0,0-.649,2.847h3.549l.291,2.145h-6.026Z" transform="translate(-1265.626 -690.2)" fill="#ade5de"/>
        <path id="Caminho_1466" data-name="Caminho 1466" d="M1335.123,703.719l-2.807-10.064c-.371,0-.861-.053-1.112-.079l-.5-1.814a1.679,1.679,0,0,0,1.483-.861h1.894l3.576,12.806h-2.529Z" transform="translate(-1309.399 -690.807)" fill="#ade5de"/>
      </g>
    </g>
  </g>
</svg>
