<svg xmlns="http://www.w3.org/2000/svg" width="231.565" height="136.607" viewBox="0 0 231.565 136.607">
  <g id="Grupo_1283" data-name="Grupo 1283" transform="translate(1331.518 -4583.042)">
    <g id="Grupo_1282" data-name="Grupo 1282" transform="translate(-1331.518 4583.042)">
      <g id="Grupo_1249" data-name="Grupo 1249">
        <path id="Caminho_1401" data-name="Caminho 1401" d="M894.812,718.642,850.524,598.987a5.14,5.14,0,0,0-4.867-3.387H697l47.416,124.842H895.133A5.2,5.2,0,0,0,894.812,718.642Z" transform="translate(-663.568 -589.038)" fill="#fff"/>
        <path id="Caminho_1402" data-name="Caminho 1402" d="M997.193,1413.8l-1.846,4.18a.738.738,0,0,0,.671,1.038l147.741-.107a5.2,5.2,0,0,0,4.135-5.1h-150.7Z" transform="translate(-916.345 -1282.411)" fill="#ade5de"/>
        <g id="Grupo_1225" data-name="Grupo 1225" transform="translate(1.63 8.191)">
          <path id="Caminho_1403" data-name="Caminho 1403" d="M517.024,608.6a3.553,3.553,0,0,1,6.667,0l21.359,57.714,22.915,61.94a3.558,3.558,0,0,1-3.341,4.79H492.111a3.565,3.565,0,0,1-3.341-4.79Z" transform="translate(-488.548 -606.275)" fill="#1d1240"/>
        </g>
        <path id="Caminho_1404" data-name="Caminho 1404" d="M560.451,718.642,516.177,598.987a5.19,5.19,0,0,0-9.733,0L478.189,718.642a5.2,5.2,0,0,0,4.882,7H555.6a5.166,5.166,0,0,0,4.852-7Zm-3.3,2.9a1.9,1.9,0,0,1-1.571.824H483.056a1.922,1.922,0,0,1-1.8-2.578L509.5,600.131a1.921,1.921,0,0,1,3.6,0l44.289,119.655A1.905,1.905,0,0,1,557.156,721.54Z" transform="translate(-477.863 -589.038)" fill="#2e87be"/>
        <g id="Grupo_1247" data-name="Grupo 1247" transform="translate(50.085)">
          <g id="Grupo_1228" data-name="Grupo 1228">
            <path id="Caminho_1405" data-name="Caminho 1405" d="M858.614,620.007a1.4,1.4,0,0,1-1.373,1.907,2.721,2.721,0,0,1-2.441-1.907,1.4,1.4,0,0,1,1.373-1.907A2.705,2.705,0,0,1,858.614,620.007Z" transform="translate(-847.318 -608.105)" fill="#1e1240"/>
            <g id="Grupo_1226" data-name="Grupo 1226">
              <path id="Caminho_1406" data-name="Caminho 1406" d="M814.372,564.259l-.015-.046a.923.923,0,0,1,.625-1.22c1.693-.458,2.533-2.166,1.846-4.15a5.759,5.759,0,0,0-4.714-3.692,2.936,2.936,0,0,0-3.158,3.967h-2.548c-1.053-3.768,1.312-6.789,5.218-6.514a9.415,9.415,0,0,1,7.689,6.011c1.159,3.28-.244,6.118-3.051,6.85A1.691,1.691,0,0,1,814.372,564.259Z" transform="translate(-806.158 -552.586)" fill="#2e87be"/>
            </g>
            <g id="Grupo_1227" data-name="Grupo 1227" transform="translate(8.159 3.008)">
              <path id="Caminho_1407" data-name="Caminho 1407" d="M864.638,575.351a8.745,8.745,0,0,0-1.892-3.051,7.424,7.424,0,0,1,.61,1.327c1.16,3.28-.244,6.118-3.051,6.85a1.2,1.2,0,0,1-.656-.015,1.356,1.356,0,0,0,.03.488l.015.046a1.716,1.716,0,0,0,1.876,1.22C864.394,581.454,865.8,578.631,864.638,575.351Z" transform="translate(-859.64 -572.3)" fill="#311e69"/>
            </g>
            <path id="Caminho_1408" data-name="Caminho 1408" d="M816.888,563.1a5.675,5.675,0,0,1,3.906,2.227h0c-.839-2.2-3.906-4.485-7.064-2.792a4.321,4.321,0,0,0-1.815,4.546h1.815A2.951,2.951,0,0,1,816.888,563.1Z" transform="translate(-810.932 -560.52)" fill="#311e69"/>
          </g>
          <g id="Grupo_1231" data-name="Grupo 1231" transform="translate(18.399)">
            <path id="Caminho_1409" data-name="Caminho 1409" d="M979.114,620.007a1.4,1.4,0,0,1-1.373,1.907,2.721,2.721,0,0,1-2.441-1.907,1.4,1.4,0,0,1,1.373-1.907A2.705,2.705,0,0,1,979.114,620.007Z" transform="translate(-967.833 -608.105)" fill="#1e1240"/>
            <g id="Grupo_1229" data-name="Grupo 1229">
              <path id="Caminho_1410" data-name="Caminho 1410" d="M934.972,564.259l-.015-.046a.923.923,0,0,1,.625-1.22c1.693-.458,2.533-2.166,1.846-4.15a5.758,5.758,0,0,0-4.714-3.692,2.936,2.936,0,0,0-3.158,3.967h-2.548c-1.053-3.768,1.312-6.789,5.218-6.514a9.415,9.415,0,0,1,7.689,6.011c1.16,3.28-.244,6.118-3.051,6.85A1.683,1.683,0,0,1,934.972,564.259Z" transform="translate(-926.758 -552.586)" fill="#2e87be"/>
            </g>
            <g id="Grupo_1230" data-name="Grupo 1230" transform="translate(8.144 3.008)">
              <path id="Caminho_1411" data-name="Caminho 1411" d="M985.138,575.351a8.741,8.741,0,0,0-1.892-3.051,7.425,7.425,0,0,1,.61,1.327c1.159,3.28-.244,6.118-3.051,6.85a1.2,1.2,0,0,1-.656-.015,1.361,1.361,0,0,0,.03.488l.015.046a1.716,1.716,0,0,0,1.877,1.22C984.894,581.454,986.313,578.631,985.138,575.351Z" transform="translate(-980.14 -572.3)" fill="#311e69"/>
            </g>
            <path id="Caminho_1412" data-name="Caminho 1412" d="M937.488,563.1a5.675,5.675,0,0,1,3.906,2.227h0c-.839-2.2-3.906-4.485-7.064-2.792a4.321,4.321,0,0,0-1.815,4.546h1.815A2.946,2.946,0,0,1,937.488,563.1Z" transform="translate(-931.532 -560.52)" fill="#311e69"/>
          </g>
          <g id="Grupo_1234" data-name="Grupo 1234" transform="translate(36.798)">
            <path id="Caminho_1413" data-name="Caminho 1413" d="M1099.714,620.007a1.4,1.4,0,0,1-1.373,1.907,2.721,2.721,0,0,1-2.441-1.907,1.4,1.4,0,0,1,1.373-1.907A2.705,2.705,0,0,1,1099.714,620.007Z" transform="translate(-1088.433 -608.105)" fill="#1e1240"/>
            <g id="Grupo_1232" data-name="Grupo 1232">
              <path id="Caminho_1414" data-name="Caminho 1414" d="M1055.557,564.259l-.015-.046a.923.923,0,0,1,.625-1.22c1.693-.458,2.533-2.166,1.846-4.15a5.759,5.759,0,0,0-4.714-3.692,2.936,2.936,0,0,0-3.158,3.967h-2.532c-1.053-3.768,1.312-6.789,5.218-6.514a9.415,9.415,0,0,1,7.689,6.011c1.16,3.28-.244,6.118-3.051,6.85A1.7,1.7,0,0,1,1055.557,564.259Z" transform="translate(-1047.358 -552.586)" fill="#2e87be"/>
            </g>
            <g id="Grupo_1233" data-name="Grupo 1233" transform="translate(8.144 3.008)">
              <path id="Caminho_1415" data-name="Caminho 1415" d="M1105.738,575.351a8.743,8.743,0,0,0-1.892-3.051,7.45,7.45,0,0,1,.61,1.327c1.159,3.28-.244,6.118-3.051,6.85a1.2,1.2,0,0,1-.656-.015,1.362,1.362,0,0,0,.031.488l.015.046a1.716,1.716,0,0,0,1.877,1.22C1105.494,581.454,1106.9,578.631,1105.738,575.351Z" transform="translate(-1100.74 -572.3)" fill="#311e69"/>
            </g>
            <path id="Caminho_1416" data-name="Caminho 1416" d="M1058.088,563.1a5.674,5.674,0,0,1,3.906,2.227h0c-.839-2.2-3.906-4.485-7.064-2.792a4.321,4.321,0,0,0-1.815,4.546h1.815A2.941,2.941,0,0,1,1058.088,563.1Z" transform="translate(-1052.132 -560.52)" fill="#311e69"/>
          </g>
          <g id="Grupo_1237" data-name="Grupo 1237" transform="translate(55.182)">
            <path id="Caminho_1417" data-name="Caminho 1417" d="M1220.214,620.007a1.4,1.4,0,0,1-1.373,1.907,2.721,2.721,0,0,1-2.441-1.907,1.4,1.4,0,0,1,1.373-1.907A2.689,2.689,0,0,1,1220.214,620.007Z" transform="translate(-1208.933 -608.105)" fill="#1e1240"/>
            <g id="Grupo_1235" data-name="Grupo 1235">
              <path id="Caminho_1418" data-name="Caminho 1418" d="M1176.072,564.259l-.015-.046a.923.923,0,0,1,.625-1.22c1.693-.458,2.533-2.166,1.846-4.15a5.759,5.759,0,0,0-4.714-3.692,2.935,2.935,0,0,0-3.158,3.967h-2.548c-1.053-3.768,1.312-6.789,5.218-6.514a9.415,9.415,0,0,1,7.689,6.011c1.16,3.28-.244,6.118-3.051,6.85A1.683,1.683,0,0,1,1176.072,564.259Z" transform="translate(-1167.858 -552.586)" fill="#2e87be"/>
            </g>
            <g id="Grupo_1236" data-name="Grupo 1236" transform="translate(8.159 3.008)">
              <path id="Caminho_1419" data-name="Caminho 1419" d="M1226.338,575.351a8.747,8.747,0,0,0-1.892-3.051,7.433,7.433,0,0,1,.61,1.327c1.16,3.28-.244,6.118-3.051,6.85a1.2,1.2,0,0,1-.656-.015,1.362,1.362,0,0,0,.03.488l.015.046a1.716,1.716,0,0,0,1.877,1.22C1226.079,581.454,1227.5,578.631,1226.338,575.351Z" transform="translate(-1221.34 -572.3)" fill="#311e69"/>
            </g>
            <path id="Caminho_1420" data-name="Caminho 1420" d="M1178.588,563.1a5.675,5.675,0,0,1,3.906,2.227h0c-.839-2.2-3.906-4.485-7.064-2.792a4.322,4.322,0,0,0-1.815,4.546h1.815A2.951,2.951,0,0,1,1178.588,563.1Z" transform="translate(-1172.632 -560.52)" fill="#311e69"/>
          </g>
          <g id="Grupo_1240" data-name="Grupo 1240" transform="translate(73.581)">
            <path id="Caminho_1421" data-name="Caminho 1421" d="M1340.814,620.007a1.4,1.4,0,0,1-1.373,1.907,2.721,2.721,0,0,1-2.441-1.907,1.4,1.4,0,0,1,1.373-1.907A2.705,2.705,0,0,1,1340.814,620.007Z" transform="translate(-1329.533 -608.105)" fill="#1e1240"/>
            <g id="Grupo_1238" data-name="Grupo 1238">
              <path id="Caminho_1422" data-name="Caminho 1422" d="M1296.672,564.259l-.015-.046a.923.923,0,0,1,.625-1.22c1.693-.458,2.533-2.166,1.846-4.15a5.759,5.759,0,0,0-4.714-3.692,2.936,2.936,0,0,0-3.158,3.967h-2.548c-1.053-3.768,1.312-6.789,5.218-6.514a9.415,9.415,0,0,1,7.689,6.011c1.16,3.28-.244,6.118-3.051,6.85A1.674,1.674,0,0,1,1296.672,564.259Z" transform="translate(-1288.458 -552.586)" fill="#2e87be"/>
            </g>
            <g id="Grupo_1239" data-name="Grupo 1239" transform="translate(8.144 3.008)">
              <path id="Caminho_1423" data-name="Caminho 1423" d="M1346.838,575.351a8.739,8.739,0,0,0-1.892-3.051,7.425,7.425,0,0,1,.61,1.327c1.16,3.28-.244,6.118-3.051,6.85a1.2,1.2,0,0,1-.656-.015,1.365,1.365,0,0,0,.031.488l.015.046a1.716,1.716,0,0,0,1.876,1.22C1346.594,581.454,1348,578.631,1346.838,575.351Z" transform="translate(-1341.84 -572.3)" fill="#311e69"/>
            </g>
            <path id="Caminho_1424" data-name="Caminho 1424" d="M1299.188,563.1a5.675,5.675,0,0,1,3.906,2.227h0c-.839-2.2-3.906-4.485-7.063-2.792a4.322,4.322,0,0,0-1.816,4.546h1.816A2.946,2.946,0,0,1,1299.188,563.1Z" transform="translate(-1293.232 -560.52)" fill="#311e69"/>
          </g>
          <g id="Grupo_1243" data-name="Grupo 1243" transform="translate(91.965)">
            <path id="Caminho_1425" data-name="Caminho 1425" d="M1461.414,620.007a1.4,1.4,0,0,1-1.373,1.907,2.721,2.721,0,0,1-2.441-1.907,1.4,1.4,0,0,1,1.373-1.907A2.721,2.721,0,0,1,1461.414,620.007Z" transform="translate(-1450.118 -608.105)" fill="#1e1240"/>
            <g id="Grupo_1241" data-name="Grupo 1241">
              <path id="Caminho_1426" data-name="Caminho 1426" d="M1417.172,564.259l-.015-.046a.923.923,0,0,1,.625-1.22c1.694-.458,2.532-2.166,1.846-4.15a5.759,5.759,0,0,0-4.714-3.692,2.935,2.935,0,0,0-3.158,3.967h-2.548c-1.052-3.768,1.312-6.789,5.218-6.514a9.415,9.415,0,0,1,7.689,6.011c1.16,3.28-.244,6.118-3.051,6.85A1.691,1.691,0,0,1,1417.172,564.259Z" transform="translate(-1408.958 -552.586)" fill="#2e87be"/>
            </g>
            <g id="Grupo_1242" data-name="Grupo 1242" transform="translate(8.159 3.008)">
              <path id="Caminho_1427" data-name="Caminho 1427" d="M1467.438,575.351a8.743,8.743,0,0,0-1.892-3.051,7.451,7.451,0,0,1,.61,1.327c1.159,3.28-.244,6.118-3.052,6.85a1.2,1.2,0,0,1-.656-.015,1.365,1.365,0,0,0,.031.488l.015.046a1.716,1.716,0,0,0,1.877,1.22C1467.194,581.454,1468.6,578.631,1467.438,575.351Z" transform="translate(-1462.44 -572.3)" fill="#311e69"/>
            </g>
            <path id="Caminho_1428" data-name="Caminho 1428" d="M1419.688,563.1a5.675,5.675,0,0,1,3.906,2.227h0c-.839-2.2-3.906-4.485-7.064-2.792a4.322,4.322,0,0,0-1.816,4.546h1.816A2.951,2.951,0,0,1,1419.688,563.1Z" transform="translate(-1413.732 -560.52)" fill="#311e69"/>
          </g>
          <g id="Grupo_1246" data-name="Grupo 1246" transform="translate(110.364)">
            <path id="Caminho_1429" data-name="Caminho 1429" d="M1581.914,620.007a1.4,1.4,0,0,1-1.373,1.907,2.721,2.721,0,0,1-2.441-1.907,1.4,1.4,0,0,1,1.373-1.907A2.705,2.705,0,0,1,1581.914,620.007Z" transform="translate(-1570.633 -608.105)" fill="#1e1240"/>
            <g id="Grupo_1244" data-name="Grupo 1244">
              <path id="Caminho_1430" data-name="Caminho 1430" d="M1537.772,564.259l-.015-.046a.923.923,0,0,1,.625-1.22c1.693-.458,2.532-2.166,1.846-4.15a5.759,5.759,0,0,0-4.714-3.692,2.935,2.935,0,0,0-3.158,3.967h-2.548c-1.053-3.768,1.312-6.789,5.218-6.514a9.415,9.415,0,0,1,7.689,6.011c1.159,3.28-.244,6.118-3.051,6.85A1.674,1.674,0,0,1,1537.772,564.259Z" transform="translate(-1529.558 -552.586)" fill="#2e87be"/>
            </g>
            <g id="Grupo_1245" data-name="Grupo 1245" transform="translate(8.144 3.008)">
              <path id="Caminho_1431" data-name="Caminho 1431" d="M1587.938,575.351a8.745,8.745,0,0,0-1.892-3.051,7.442,7.442,0,0,1,.61,1.327c1.159,3.28-.244,6.118-3.051,6.85a1.2,1.2,0,0,1-.656-.015,1.362,1.362,0,0,0,.031.488l.015.046a1.716,1.716,0,0,0,1.877,1.22C1587.694,581.454,1589.113,578.631,1587.938,575.351Z" transform="translate(-1582.94 -572.3)" fill="#311e69"/>
            </g>
            <path id="Caminho_1432" data-name="Caminho 1432" d="M1540.288,563.1a5.675,5.675,0,0,1,3.906,2.227h0c-.839-2.2-3.906-4.485-7.064-2.792a4.322,4.322,0,0,0-1.816,4.546h1.816A2.946,2.946,0,0,1,1540.288,563.1Z" transform="translate(-1534.332 -560.52)" fill="#311e69"/>
          </g>
        </g>
        <g id="Grupo_1248" data-name="Grupo 1248" transform="translate(67.926 39.943)">
          <path id="Caminho_1445" data-name="Caminho 1445" d="M1681.555,1138.709h16.889l-5.355-13.609H1676.2Z" transform="translate(-1561.305 -1077.699)" fill="#4bb4d4"/>
          <path id="Caminho_1447" data-name="Caminho 1447" d="M1640.755,1035.109h16.889l-5.37-13.609H1635.4Z" transform="translate(-1526.73 -989.904)" fill="#4bb4d4"/>
          <path id="Caminho_1453" data-name="Caminho 1453" d="M1599.87,931.509h16.889l-5.37-13.609H1594.5Z" transform="translate(-1492.07 -902.11)" fill="#4bb4d4"/>
          <path id="Caminho_1457" data-name="Caminho 1457" d="M1733.889,1228.7H1717l5.37,13.608h16.874Z" transform="translate(-1595.881 -1165.494)" fill="#4bb4d4"/>
          <g id="Grupo_1273" data-name="Grupo 1273">
            <path id="Caminho_1433" data-name="Caminho 1433" d="M1112.244,931.509l-5.355-13.609H1090l5.37,13.609Z" transform="translate(-1064.537 -902.11)" fill="#ade5de"/>
            <path id="Caminho_1434" data-name="Caminho 1434" d="M1049.2,814.4l5.355,13.609h16.889l-5.355-13.609Z" transform="translate(-1029.962 -814.4)" fill="#ade5de"/>
            <path id="Caminho_1435" data-name="Caminho 1435" d="M1153.059,1035.109l-5.37-13.609H1130.8l5.37,13.609Z" transform="translate(-1099.113 -989.904)" fill="#ade5de"/>
            <path id="Caminho_1436" data-name="Caminho 1436" d="M1175.3,814.4l5.37,13.609h16.889l-5.37-13.609Z" transform="translate(-1136.824 -814.4)" fill="#ade5de"/>
            <path id="Caminho_1437" data-name="Caminho 1437" d="M1320.044,1138.709l-5.355-13.609H1297.8l5.355,13.609Z" transform="translate(-1240.635 -1077.699)" fill="#ade5de"/>
            <path id="Caminho_1438" data-name="Caminho 1438" d="M1446.144,1138.709l-5.355-13.609H1423.9l5.37,13.609Z" transform="translate(-1347.497 -1077.699)" fill="#ade5de"/>
            <path id="Caminho_1439" data-name="Caminho 1439" d="M1572.344,1138.709l-5.37-13.609H1550.1l5.355,13.609Z" transform="translate(-1454.443 -1077.699)" fill="#ade5de"/>
            <path id="Caminho_1440" data-name="Caminho 1440" d="M1193.943,1138.709l-5.37-13.609H1171.7l5.355,13.609Z" transform="translate(-1133.773 -1077.699)" fill="#ade5de"/>
            <path id="Caminho_1441" data-name="Caminho 1441" d="M1301.5,814.4l5.355,13.609h16.889l-5.37-13.609Z" transform="translate(-1243.77 -814.4)" fill="#ade5de"/>
            <path id="Caminho_1442" data-name="Caminho 1442" d="M1427.6,814.4l5.355,13.609h16.889l-5.355-13.609Z" transform="translate(-1350.632 -814.4)" fill="#ade5de"/>
            <path id="Caminho_1443" data-name="Caminho 1443" d="M1216.2,917.9l5.355,13.609h16.889l-5.37-13.609Z" transform="translate(-1171.484 -902.11)" fill="#ade5de"/>
            <path id="Caminho_1444" data-name="Caminho 1444" d="M1364.544,931.509l-5.355-13.609H1342.3l5.355,13.609Z" transform="translate(-1278.346 -902.11)" fill="#ade5de"/>
            <path id="Caminho_1446" data-name="Caminho 1446" d="M1279.244,1035.109l-5.37-13.609H1257l5.355,13.609Z" transform="translate(-1206.059 -989.904)" fill="#ade5de"/>
            <path id="Caminho_1448" data-name="Caminho 1448" d="M1468.4,917.9l5.37,13.609h16.873l-5.355-13.609Z" transform="translate(-1385.208 -902.11)" fill="#ade5de"/>
            <path id="Caminho_1449" data-name="Caminho 1449" d="M1405.344,1035.109l-5.355-13.609H1383.1l5.37,13.609Z" transform="translate(-1312.921 -989.904)" fill="#ade5de"/>
            <path id="Caminho_1450" data-name="Caminho 1450" d="M1531.459,1035.109l-5.37-13.609H1509.2l5.37,13.609Z" transform="translate(-1419.783 -989.904)" fill="#ade5de"/>
            <path id="Caminho_1451" data-name="Caminho 1451" d="M1464.7,1228.7l5.37,13.608h16.889l-5.37-13.608Z" transform="translate(-1382.072 -1165.494)" fill="#ade5de"/>
            <path id="Caminho_1452" data-name="Caminho 1452" d="M1062.389,1125.1H1045.5l5.37,13.609h16.873Z" transform="translate(-1026.826 -1077.699)" fill="#ade5de"/>
            <path id="Caminho_1454" data-name="Caminho 1454" d="M1021.589,1021.5H1004.7l5.37,13.609h16.873Z" transform="translate(-992.251 -989.904)" fill="#ade5de"/>
            <path id="Caminho_1455" data-name="Caminho 1455" d="M1212.5,1228.7l5.355,13.608h16.889l-5.37-13.608Z" transform="translate(-1168.348 -1165.494)" fill="#ade5de"/>
            <path id="Caminho_1456" data-name="Caminho 1456" d="M1086.3,1228.7l5.37,13.608h16.889l-5.37-13.608Z" transform="translate(-1061.402 -1165.494)" fill="#ade5de"/>
            <path id="Caminho_1458" data-name="Caminho 1458" d="M1338.6,1228.7l5.37,13.608h16.874l-5.355-13.608Z" transform="translate(-1275.21 -1165.494)" fill="#ade5de"/>
            <path id="Caminho_1459" data-name="Caminho 1459" d="M1590.9,1228.7l5.355,13.608h16.889l-5.37-13.608Z" transform="translate(-1489.019 -1165.494)" fill="#ade5de"/>
            <path id="Caminho_1460" data-name="Caminho 1460" d="M980.789,917.9H963.9l5.355,13.609h16.889Z" transform="translate(-957.676 -902.11)" fill="#ade5de"/>
            <path id="Caminho_1461" data-name="Caminho 1461" d="M939.973,814.4H923.1l5.355,13.609h16.889Z" transform="translate(-923.1 -814.4)" fill="#ade5de"/>
          </g>
          <path id="Caminho_1462" data-name="Caminho 1462" d="M1559.07,828.009h16.873l-5.355-13.609H1553.7Z" transform="translate(-1457.494 -814.4)" fill="#4bb4d4"/>
        </g>
      </g>
      <g id="Grupo_1250" data-name="Grupo 1250" transform="translate(105.571 20.995)">
        <path id="Caminho_1463" data-name="Caminho 1463" d="M1173.2,705.075l-.092-.351a9.033,9.033,0,0,1,.61-6.637c.763-1.876,1.037-2.4.595-4-.305-1.083-.549-1.556-1.205-1.556-.595,0-.671.473-.4,1.449l.244.87h-2.624l-.229-.793c-.488-1.755-.549-3.86,2.471-3.86,2.7,0,3.967,1.663,4.592,3.921.641,2.288.137,3.28-.7,5.218a6.229,6.229,0,0,0-.748,3.28h4.089l.335,2.472H1173.2Z" transform="translate(-1169.846 -690.2)" fill="#ade5de"/>
        <path id="Caminho_1464" data-name="Caminho 1464" d="M1232.629,694.182l1.938,6.957c.641,2.288.336,4.134-2.655,4.134-2.9,0-4.18-1.922-4.79-4.119l-1.907-6.85c-.732-2.655.153-4.1,2.594-4.1C1230.264,690.2,1231.927,691.664,1232.629,694.182Zm-4.668-.229,2.105,7.537c.244.854.61,1.342,1.251,1.342s.717-.519.473-1.388l-2.105-7.537c-.2-.732-.549-1.251-1.221-1.251C1227.854,692.656,1227.732,693.144,1227.96,693.953Z" transform="translate(-1216.556 -690.2)" fill="#ade5de"/>
        <path id="Caminho_1465" data-name="Caminho 1465" d="M1283.6,705.075l-.091-.351a9.033,9.033,0,0,1,.61-6.637c.763-1.876,1.037-2.4.6-4-.305-1.083-.549-1.556-1.205-1.556-.595,0-.671.473-.4,1.449l.244.87h-2.624l-.229-.793c-.488-1.755-.549-3.86,2.471-3.86,2.7,0,3.967,1.663,4.592,3.921.641,2.288.137,3.28-.7,5.218a6.231,6.231,0,0,0-.747,3.28h4.089l.336,2.472H1283.6Z" transform="translate(-1263.403 -690.2)" fill="#ade5de"/>
        <path id="Caminho_1466" data-name="Caminho 1466" d="M1335.8,705.668l-3.234-11.595c-.427,0-.992-.061-1.282-.091l-.58-2.09a1.934,1.934,0,0,0,1.709-.992h2.182l4.119,14.753H1335.8Z" transform="translate(-1306.16 -690.793)" fill="#ade5de"/>
      </g>
    </g>
    <path id="Caminho_1786" data-name="Caminho 1786" d="M1126.478,947.629a1.126,1.126,0,0,0-1.129-1.129h-9.52a1.129,1.129,0,0,0,0,2.258h9.52A1.117,1.117,0,0,0,1126.478,947.629Z" transform="translate(-2349.06 3696.639)" fill="#4bb4d4"/>
    <path id="Caminho_1787" data-name="Caminho 1787" d="M1143.215,976.2h-8.986a1.129,1.129,0,1,0,0,2.258h8.986a1.129,1.129,0,0,0,0-2.258Z" transform="translate(-2364.653 3671.47)" fill="#4bb4d4"/>
    <path id="Caminho_1788" data-name="Caminho 1788" d="M1211.782,827.558l-9.541-6.058,5.341-6.755a1.563,1.563,0,0,0-2.449-1.942l-5.552,7.008-9.626-6.079a1.575,1.575,0,0,0-1.689,2.66l9.33,5.911-5.277,6.671a1.57,1.57,0,0,0,.253,2.2,1.564,1.564,0,0,0,2.2-.253l5.467-6.924,9.837,6.227a1.555,1.555,0,0,0,2.174-.485A1.548,1.548,0,0,0,1211.782,827.558Z" transform="translate(-2401.341 3839.744)" fill="#d44b4b"/>
  </g>
</svg>
