<svg xmlns="http://www.w3.org/2000/svg" xmlns:xlink="http://www.w3.org/1999/xlink" width="284" height="284" viewBox="0 0 284 284">
  <defs>
    <clipPath id="clip-path">
      <circle id="Elipse_205" data-name="Elipse 205" cx="142" cy="142" r="142" fill="#fff" stroke="#707070" stroke-width="1"/>
    </clipPath>
  </defs>
  <g id="Grupo_de_máscara_295" data-name="Grupo de máscara 295" clip-path="url(#clip-path)">
    <g id="Grupo_1281" data-name="Grupo 1281" transform="translate(18.839 573.566)">
      <path id="Caminho_1724" data-name="Caminho 1724" d="M266.507-479.581a5.481,5.481,0,0,0,.125-1c0-.626.188-1.629,1.128-1.128,1.378.689,1.128,4.2-.438,4.448C266.131-477.138,266.319-478.767,266.507-479.581Z" transform="translate(-99.512 -11.424)" fill="#ff6161"/>
      <path id="Caminho_1725" data-name="Caminho 1725" d="M284.847-267.642c-.689-39.4-17.038-77.8-19.294-87.948a2.868,2.868,0,0,0-3.069-2.255c-19.857,1.378-45.791-6.577-54.811-9.584a102.106,102.106,0,0,0-6.452,11.213c-11.275,22.676,3.195,53.934,2.756,97.031-.313,29.88-.251,78.552,2.443,84.065,2.318,4.385,13.781,6.765,18.6.251,7.329-9.835,2.255-77.237,14.282-137.874,14.971,14.282,13.092,34.39,16.161,53.12,1.315,7.893-3.445,62.453,3.571,85.318,1.315,4.322,12.215,2.819,15.034,2.318C284.345-173.68,285.348-238.2,284.847-267.642Z" transform="translate(-73.564 -54.168)" fill="#614bd4"/>
      <path id="Caminho_1726" data-name="Caminho 1726" d="M231.656-281.884c-6.076,5.888-.94,62.015-1.629,75.17-.626,12.09-4.886,52.619-3.257,63.017,3.508.125,7.141-1,9.334-4.009,7.329-9.835,2.255-77.237,14.282-137.874C248.82-305,237.67-287.71,231.656-281.884Z" transform="translate(-84.581 -81.395)" fill="#311d69"/>
      <path id="Caminho_1727" data-name="Caminho 1727" d="M305.994-338.512c-1.879-5.011-4.761-13.781-5.324-13.718-4.761,6.139-4.7,24.242-.063,40.028,6.327,21.674,7.2,38.775,8.582,60.01s-1.378,57.881-4.26,68.968a53.651,53.651,0,0,0-1.629,17.477,43.983,43.983,0,0,0,8.331-.626c10.211-1.691,11.213-66.149,10.712-95.653-.689-40.028-14.157-65.773-15.1-71.787A24.784,24.784,0,0,0,305.994-338.512Z" transform="translate(-110.998 -59.846)" fill="#311d69"/>
      <path id="Caminho_1728" data-name="Caminho 1728" d="M277.07-457.861s23.428,32.386,28.69,31.007c8.9-2.318,9.647-48.735,19.294-42.972s.564,53.245-15.034,61.388-30.945-22.426-32.887-29.191C275.065-444.33,277.07-457.861,277.07-457.861Z" transform="translate(-103.184 -15.73)" fill="#ac253c"/>
      <path id="Caminho_1729" data-name="Caminho 1729" d="M249.276-486.806s.438-6.389-2.882-9.146c-3.32-2.819-5.011-.438-5.011-.438a6.557,6.557,0,0,0-6.891.94c-3.195,2.756-8.331,17.289-12.967,22.112S210-465.32,210.188-457.552c.125,7.768,4.823,20.86,23.678,15.848,9.083-2.443,17.414-18.98,18.1-23.866C253.849-478.663,249.276-486.806,249.276-486.806Z" transform="translate(-78.522 -5.64)" fill="#311d69"/>
      <path id="Caminho_1730" data-name="Caminho 1730" d="M249.278-486.732s.438-6.389-2.882-9.146a6.014,6.014,0,0,0-2.13-1.253c1.441,4.51-.814,9.96-2.631,12.967-2,3.32,1.566,22.3-1.817,26.81s-17.54,4.886-24.117.752a13.621,13.621,0,0,1-4.949-4.573,11.835,11.835,0,0,0-.564,3.758c.125,7.768,4.823,20.86,23.678,15.848,9.083-2.443,17.414-18.98,18.1-23.866C253.851-478.588,249.278-486.732,249.278-486.732Z" transform="translate(-78.524 -5.714)" fill="#1d1240"/>
      <path id="Caminho_1731" data-name="Caminho 1731" d="M278.061-347.746c-4.134-15.222-24.618-68.78-25.746-76.3-1.253-8.206,6.327-10.774,2.882-18.918-1-2.38-5.45-7.016-6.014-8.707-2.694-8.582-19.92-12.528-30.945-3.383-6.577,5.45-1.942,25.683-4.2,30.506-2.694,5.826-33.952,32.573-19.356,78.114,4.823,1.128,20.484,1.942,37.46,1.942,1.441,0,1.942-8.081,3.383-8.081,2.067,0,5.137,8.018,7.2,7.955C256.575-344.99,270.043-345.929,278.061-347.746Z" transform="translate(-71.288 -19.48)" fill="#fff"/>
      <path id="Caminho_1732" data-name="Caminho 1732" d="M252.528-473.13l-.94,9.96c-.125,1.629,3.571,6.2,6.327,4.322.814-.564,0-2.882-.564-4.635l-1.253-8.77Z" transform="translate(-93.989 -14.68)" fill="#ff6161"/>
      <path id="Caminho_1733" data-name="Caminho 1733" d="M257.536-465.87c-2.067-.814-3.946-4.26-3.946-4.26l3.445.313Z" transform="translate(-94.738 -15.801)" fill="#311d69"/>
      <path id="Caminho_1734" data-name="Caminho 1734" d="M253.224-485.327l-.94,3.758a5.684,5.684,0,0,0,3.946,6.953c2.756.752,5.575-.626,6.327-4.134.626-3.132-1.378-6.014-2.067-7.517C258.924-489.649,254.6-489.586,253.224-485.327Z" transform="translate(-94.184 -8.873)" fill="#ff6161"/>
      <path id="Caminho_1735" data-name="Caminho 1735" d="M251.207-478.862a5.637,5.637,0,0,1-.188-1c-.063-.626-.251-1.629-1.19-1.065-1.315.814-.877,4.26.752,4.385C251.771-476.419,251.458-477.985,251.207-478.862Z" transform="translate(-93.044 -11.704)" fill="#ff6161"/>
      <path id="Caminho_1736" data-name="Caminho 1736" d="M259.09-474.342a11.306,11.306,0,0,0,3.7-.188,4.341,4.341,0,0,1-1.253,2.13C260.781-471.774,259.779-472.713,259.09-474.342Z" transform="translate(-96.793 -14.157)" fill="#fff"/>
      <path id="Caminho_1737" data-name="Caminho 1737" d="M263.154-350.158a.428.428,0,0,1-.438-.438c0-.188.752-21.8,3.257-32.761,2.443-10.649,2.192-36.332,1.942-44.538-.251-6.515-5.575-20.358-5.638-20.484-.063-.251,0-.5.251-.564s.5,0,.564.251c.251.564,5.45,14.157,5.7,20.8.251,8.206.5,34.014-1.942,44.789-2.506,10.9-3.257,32.386-3.257,32.636A.427.427,0,0,1,263.154-350.158Z" transform="translate(-97.975 -23.707)" fill="#ffe6e6"/>
      <path id="Caminho_1738" data-name="Caminho 1738" d="M281.493-423.563c-1.253-8.206,6.327-10.774,2.882-18.918-1-2.38-5.45-7.016-6.014-8.707-1.128-3.508-4.7-6.264-9.271-7.642a26.123,26.123,0,0,1,8.018,18.354c.313,14.408-4.009,44.475,1.253,61.2,2.882,9.208,6.515,23.553,9.208,34.515a129.591,129.591,0,0,0,19.607-2.443C303.167-362.425,282.683-415.983,281.493-423.563Z" transform="translate(-100.529 -20.022)" fill="#ffe6e6"/>
      <path id="Caminho_1739" data-name="Caminho 1739" d="M261.279-375.925c7.392,3.132,15.159-1.065,18.73-3.445-.94-2.694-1.817-5.262-2.568-7.517a18.723,18.723,0,0,1-10.273,3.7c-9.083.814-17.477-6.139-17.477-6.139A19.335,19.335,0,0,0,261.279-375.925Z" transform="translate(-93.281 -45.987)" fill="#311d69"/>
      <path id="Caminho_1740" data-name="Caminho 1740" d="M256.987-470a7.142,7.142,0,0,0,4.134-.814,7.975,7.975,0,0,0,1.754-2.318v.188a4.926,4.926,0,0,1-6.327,4.134,5.514,5.514,0,0,1-3.758-3.571A6.789,6.789,0,0,0,256.987-470Z" transform="translate(-94.439 -14.68)" fill="#ac253c"/>
      <path id="Caminho_1741" data-name="Caminho 1741" d="M302.852-411.03,291.89-398.376a45.932,45.932,0,0,0,6.139,7.266c3.7-3.633,6.327-14.783,6.953-17.727C304.293-409.527,303.6-410.216,302.852-411.03Z" transform="translate(-109.046 -37.88)" fill="#311d69"/>
      <path id="Caminho_1742" data-name="Caminho 1742" d="M14.9-383.991S6.947-385.62,3.564-396.018s-6.515-48.234,1.378-50.05,22.989,34.954,22.112,44.663S26.24-384.367,14.9-383.991Z" transform="translate(0 -24.765)" fill="#ffe6e6"/>
      <path id="Caminho_1743" data-name="Caminho 1743" d="M56.3-455.63S3.8-407.9,15.393-391.172c11.589,16.663,41.97-15.472,48.3-24.367C67.26-420.488,56.3-455.63,56.3-455.63Z" transform="translate(-5.127 -21.218)" fill="#ffe6e6"/>
      <path id="Caminho_1744" data-name="Caminho 1744" d="M76.237-398.056,70.1-425.43,60.89-383.711A127.926,127.926,0,0,0,76.237-398.056Z" transform="translate(-22.748 -32.5)" fill="#311d69"/>
      <path id="Caminho_1745" data-name="Caminho 1745" d="M168.957-20a18.7,18.7,0,0,1-2.631-9.083L156.3-29.33a9.254,9.254,0,0,1-1.128,6.076c-.752,1.128-2.944,1.942-5.951,3.132-4.761,2.318-10.586,5.262-10.837,6.828-.376,2.631,27.186,3.257,31.884.752C172.715-13.732,171.086-16.676,168.957-20Z" transform="translate(-51.698 -180.478)" fill="#311d69"/>
      <path id="Caminho_1746" data-name="Caminho 1746" d="M58.857-20a18.7,18.7,0,0,1-2.631-9.083L46.2-29.33a9.254,9.254,0,0,1-1.128,6.076c-.752,1.128-2.944,1.942-5.951,3.132C34.364-17.8,28.538-14.86,28.288-13.294c-.376,2.631,27.186,3.257,31.884.752C62.552-13.732,60.986-16.676,58.857-20Z" transform="translate(-10.566 -180.478)" fill="#311d69"/>
      <path id="Caminho_1747" data-name="Caminho 1747" d="M65.133-326.23S26.358-146.888,32.5-139.747c7.955,9.208,22.551,7.893,26.936,3.633,2.38-2.318,12.466-62.328,19.669-85.693,7.955-25.871,28.5-65.585,23.365-95.779C101.528-323.349,65.133-326.23,65.133-326.23Z" transform="translate(-11.894 -69.56)" fill="#614bd4"/>
      <path id="Caminho_1748" data-name="Caminho 1748" d="M69.5-122.951c2.38-2.318,12.466-62.328,19.669-85.693,6.264-20.3,20.233-49.111,23.49-75.17-2.881-4.949-6.264-8.206-9.521-6.891C95-287.385,79.4-248.3,72.7-222.488c-6.7,25.871-3.821,64.02-10.211,86.884a142.979,142.979,0,0,0-3.7,15.911C63.488-119.694,67.56-121.009,69.5-122.951Z" transform="translate(-21.963 -82.722)" fill="#311d69"/>
      <path id="Caminho_1749" data-name="Caminho 1749" d="M151.057-323.54a45.364,45.364,0,0,1,4.886,17.79c3.257,45.6,7.768,166.25,3.7,170.635-5.011,5.387-20.484,1.817-22.613-1.629s-26.936-165.311-28.314-173.83-3.7-17.289,5.575-17.665C123.495-328.552,151.057-323.54,151.057-323.54Z" transform="translate(-40.125 -68.804)" fill="#614bd4"/>
      <path id="Caminho_1750" data-name="Caminho 1750" d="M172.964-303.426a45.364,45.364,0,0,0-4.886-17.79s-1.817-.313-4.635-.814a74.185,74.185,0,0,0-6.765,13.969c-9.334,25.871,1.817,46.292,2.38,67.4.626,21.11,7.2,89.264,6.327,102.231a12.339,12.339,0,0,0,2.067,8.331c3.7.063,7.2-.689,9.146-2.756C180.732-137.238,176.221-257.885,172.964-303.426Z" transform="translate(-57.147 -71.129)" fill="#311d69"/>
      <path id="Caminho_1751" data-name="Caminho 1751" d="M145.331-457.054c-12.152-14.282-43.348-17.164-61.7-10.649-6.139,2.192-10.273,6.327-11.4,12.841-2.067,12.278,1.19,75.608-7.392,120.585-.689,3.571,2.192,16.976,23.177,17.727,3.007.125,8.832-17.164,11.589-17.289,1.441-.063,5.325,17.1,6.953,16.976,15.911-1,35.831-7.768,37.4-12.027,1.817-5.074,1-57.567-.125-76.047C142.261-429.116,153.411-447.6,145.331-457.054Z" transform="translate(-24.189 -15.471)" fill="#fff"/>
      <path id="Caminho_1752" data-name="Caminho 1752" d="M115.683-467.494s10.211-2.694,14.47-1.128c4.26,1.5,6.014,7.83,3.7,14.783-2.255,6.953-16.1,38.086-18.792,38.462-4.009.5-4.26-8.707-4.761-13.844C109.858-434.482,105.41-464.738,115.683-467.494Z" transform="translate(-40.708 -16.181)" fill="#614bd4"/>
      <path id="Caminho_1753" data-name="Caminho 1753" d="M111.083-500.276s-2.443-3.7-.313-7.266c2.067-3.571,5.512-5.387,9.02-4.761a14.088,14.088,0,0,0,5.074.125s-.564,3.132-2.192,3.633a6.858,6.858,0,0,1,3.633,8.269c-1.629,6.014-5.074,8.331-6.828,8.018C117.723-492.445,111.083-500.276,111.083-500.276Z" transform="translate(-41.057)" fill="#311d69"/>
      <path id="Caminho_1754" data-name="Caminho 1754" d="M126.629-489.33,131.7-476.8c.125,1.879-6.765,6.139-9.835,4.009-.877-.626-1.378-12.027-1.378-12.027Z" transform="translate(-45.014 -8.628)" fill="#ff6161"/>
      <path id="Caminho_1755" data-name="Caminho 1755" d="M121.141-473.044c-.125-1.128-.188-2.255-.251-3.383l5.325-1.5S125.212-475.049,121.141-473.044Z" transform="translate(-45.163 -12.887)" fill="#311d69"/>
      <path id="Caminho_1756" data-name="Caminho 1756" d="M119.928-498.335l3.32,7.016a4.74,4.74,0,0,1-2.631,6.076,13.125,13.125,0,0,1-5.7.94c-2.13,0-3.445-1.879-3.821-4.573a25.711,25.711,0,0,1,.564-8.77C112.661-501.717,117.422-502.719,119.928-498.335Z" transform="translate(-41.445 -4.196)" fill="#ff6161"/>
      <path id="Caminho_1757" data-name="Caminho 1757" d="M116.324-487.13a14.093,14.093,0,0,1-4.134.689s.125,1.629,1.19,2C114.382-484,115.948-485.188,116.324-487.13Z" transform="translate(-41.913 -9.45)" fill="#fff"/>
      <path id="Caminho_1758" data-name="Caminho 1758" d="M126.584-493.2a9.848,9.848,0,0,0,.251-1.441c.063-.94.376-2.255,1.691-1.441,1.879,1.128,1.19,5.951-1.065,6.139C125.769-489.818,126.208-492.01,126.584-493.2Z" transform="translate(-47.161 -6.01)" fill="#ff6161"/>
      <path id="Caminho_1759" data-name="Caminho 1759" d="M120.158-479.174a7.572,7.572,0,0,1-5.7-.125,2.6,2.6,0,0,0-2.067,0,3.351,3.351,0,0,0,3.132,2.192,13.125,13.125,0,0,0,5.7-.94,4.657,4.657,0,0,0,2.882-3.884A8.667,8.667,0,0,1,120.158-479.174Z" transform="translate(-41.987 -11.392)" fill="#ac253c"/>
      <path id="Caminho_1760" data-name="Caminho 1760" d="M.927-447.33l-.438,3.7s-.188,4.7,3.069,3.571,3.884-5.325,2.506-5.575A40.206,40.206,0,0,1,.927-447.33Z" transform="translate(-0.182 -24.319)" fill="#ac253c"/>
      <path id="Caminho_1761" data-name="Caminho 1761" d="M122.826-460.93s-1.566,3.571,1.19,3.32,2.944-3.32,2.944-3.32Z" transform="translate(-45.721 -19.238)" fill="#1d1240"/>
      <path id="Caminho_1762" data-name="Caminho 1762" d="M120-456.93s-3.821,14.345-5.325,20.484-1.754,22.927.188,24.931c2,2,4.322-.626,5.137-4.2,2.756-12.4,1.315-41.218,1.315-41.218Z" transform="translate(-42.394 -20.732)" fill="#1d1240"/>
      <path id="Caminho_1763" data-name="Caminho 1763" d="M173.421-327.415c1.817-5.074,1-57.567-.125-76.047-1.5-24.18,9.647-42.721,1.566-52.18-4.7-5.512-12.278-9.334-20.922-11.589.689,4.26-11.088,40.78-10.085,48.986,1.629,13.029,15.911-1.065,14.22,6.076-3.132,13.468-10.4,77.926-7.955,94.714C161.895-320.086,172.356-324.408,173.421-327.415Z" transform="translate(-53.719 -16.884)" fill="#ffe6e6"/>
      <path id="Caminho_1764" data-name="Caminho 1764" d="M122.214-468.257c5.137-4.26,8.206-4.573,8.206-4.573s2.819,1.629,3.195,2.506-5.45,5.575-6.7,6.765c-1.315,1.19-4.322-1.817-4.322-1.817s-2.694,1.5-3.195,1.065.251-6.327,1.253-6.389C121.587-470.826,121.587-467.756,122.214-468.257Z" transform="translate(-44.545 -14.792)" fill="#fff"/>
      <path id="Caminho_1765" data-name="Caminho 1765" d="M119.508-305.658a1.416,1.416,0,0,1-1.378-1.253c-.188-2.506-4.322-60.95.063-79.742a1.318,1.318,0,0,1,1.629-1,1.318,1.318,0,0,1,1,1.629c-4.26,18.417,0,78.364,0,78.928a1.339,1.339,0,0,1-1.253,1.441Z" transform="translate(-43.405 -46.596)" fill="#ffe6e6"/>
      <path id="Caminho_1766" data-name="Caminho 1766" d="M188.334-295.524c-25.5,0-57.191-16.788-94.463-50.05-33.576-30.005-64.646-66.9-84.754-92.584a26.415,26.415,0,0,1-4.823-23.678c2.568-8.958,9.521-16.036,19.106-19.481l32.072-11.526a5.878,5.878,0,0,1,7.517,3.508,5.878,5.878,0,0,1-3.508,7.517L27.408-470.293c-5.951,2.13-10.273,6.389-11.777,11.714a14.572,14.572,0,0,0,2.756,13.217c19.795,25.307,50.364,61.639,83.376,91.08,38.9,34.7,71.536,50.739,94.4,46.355,10.211-1.942,18.1-7.329,24.18-16.475,23.929-35.893,14.22-107.492,7.329-140.5C225.981-473.049,217.525-479,207.565-479H182.884A5.881,5.881,0,0,1,177-484.888a5.881,5.881,0,0,1,5.888-5.888h24.681c15.41,0,28.69,9.835,31.571,23.365,9.02,42.784,16.412,111.251-9.02,149.4-7.768,11.714-18.479,18.918-31.759,21.486A48.146,48.146,0,0,1,188.334-295.524Z" transform="translate(-1.23 -7.181)" fill="#bdbaff"/>
      <path id="Caminho_1767" data-name="Caminho 1767" d="M261.159-218.861c-17.164,0-36.958-7.2-59.008-21.549a9.006,9.006,0,0,1-2.631-12.466,9.006,9.006,0,0,1,12.466-2.631c22.676,14.783,41.594,20.8,56.315,17.978,18.73-3.571,29.755-20.3,33.7-51.115a9.026,9.026,0,0,1,10.085-7.83,9.026,9.026,0,0,1,7.83,10.085c-6.2,48.61-29.629,63.017-48.234,66.588A63.832,63.832,0,0,1,261.159-218.861Z" transform="translate(-73.993 -80.65)" fill="#1d1240"/>
      <path id="Caminho_1768" data-name="Caminho 1768" d="M82.744-493.853A9.537,9.537,0,0,0,85-482.2l8.9-1.5A7.145,7.145,0,0,0,99.72-492.1a.23.23,0,0,0-.063-.188,7.1,7.1,0,0,0-10.023-4.761Z" transform="translate(-30.508 -5.483)" fill="#311d69"/>
      <path id="Caminho_1769" data-name="Caminho 1769" d="M144.936-382.476s-6.264,24.994-18.1,31.007c-13.217,6.765-22.614-2.819-27.813-8.707S84.8-388.49,84.988-400.83c0,0,17.728,33.388,32.323,33.2C131.907-367.943,144.936-382.476,144.936-382.476Z" transform="translate(-31.749 -41.69)" fill="#311d69"/>
      <path id="Caminho_1770" data-name="Caminho 1770" d="M282.762-489.98s5.325,4.635,1.566,11.777l-8.958,1.441a7.112,7.112,0,0,1-8.206-6.139v-.188a7.144,7.144,0,0,1,7.955-7.768Z" transform="translate(-99.793 -8.041)" fill="#311d69"/>
      <path id="Caminho_1771" data-name="Caminho 1771" d="M88.8-471.713s6.076-6.014,11.338,6.2c2.694,6.2,17.915,53.245,17.915,53.245s11.777-45.853,25.871-45.979c14.157-.125,9.521,17.289,6.389,28.439s-14.909,50.238-32.26,50.238C89.366-379.693,69.446-457.744,88.8-471.713Z" transform="translate(-30.301 -14.656)" fill="#fff"/>
      <path id="Caminho_1772" data-name="Caminho 1772" d="M97.632-478.655a9.581,9.581,0,0,0,.251-3.7c-.376-1.19-4.51-4.322-5.137-3.383-.626.877,2.318,2.443,2.568,3.32,0,0-3.32-1.817-4.385-1.19s-.251,2.318.814,3.633,1.441,1.817,1.441,1.817a28.169,28.169,0,0,1-3.132-2.756c-.188-.438-1.566-.251-.5,1.817s3.069,6.139,4.009,6.076C94.5-473.142,97.319-476.9,97.632-478.655Z" transform="translate(-33.306 -9.907)" fill="#ff6161"/>
      <path id="Caminho_1773" data-name="Caminho 1773" d="M1.39-454.089a9.177,9.177,0,0,1,2.443-2.756c1.128-.564,6.264.188,6.076,1.253s-3.383.063-4.2.5c0,0,3.633,1.065,3.946,2.318.251,1.19-1.5,1.817-3.132,1.942a18.946,18.946,0,0,0-2.255.251,26.589,26.589,0,0,0,4.134.251c.438-.188,1.315.94-.94,1.629-2.192.689-6.515,2.13-7.141,1.378C-.364-447.95.325-452.585,1.39-454.089Z" transform="translate(-0.018 -20.692)" fill="#ac253c"/>
      <path id="Caminho_1774" data-name="Caminho 1774" d="M89.114-437.675c-2.443-11.15-2.631-22.426-4.7-24.555C73.2-439.93,92-375.6,118.055-375.6c17.289,0,29.066-39.088,32.26-50.238,2.318-8.143,5.387-19.607,1.378-25.182-1.566,5.011-4.823,14.971-9.772,27-7.2,17.414-13.781,28-20.233,33.513-6.515,5.575-18.6,1.065-23.052-11.9C94.126-415.312,92.121-423.894,89.114-437.675Z" transform="translate(-30.3 -18.752)" fill="#ffe6e6"/>
      <path id="Caminho_1775" data-name="Caminho 1775" d="M305.766-63.139a4.784,4.784,0,0,1,4.886,3.445,6.74,6.74,0,0,0,.814,1.817c.626,1,2.506,1.691,5.074,2.694,1.19,1,2.443,2.318,1.128,2.756-2.192.752-15.159,1.065-16.412-1a5.8,5.8,0,0,0-1.566-1.691,14.178,14.178,0,0,0,1.817-4.322,4.668,4.668,0,0,1,4.2-3.633Z" transform="translate(-111.96 -167.841)" fill="#ff6161"/>
      <path id="Caminho_1776" data-name="Caminho 1776" d="M299.867-48.776c1.253,2.067,14.22,1.817,16.412,1,1.253-.438.063-1.754-1.128-2.756,4.072,1.942,9.083,4.448,9.271,5.826.313,2.255-23.3,2.756-27.249.626-2.067-1.128-.689-3.571,1.128-6.389A4.538,4.538,0,0,1,299.867-48.776Z" transform="translate(-110.634 -172.558)" fill="#1d1240"/>
      <path id="Caminho_1777" data-name="Caminho 1777" d="M221.766-63.139a4.784,4.784,0,0,1,4.886,3.445,6.739,6.739,0,0,0,.814,1.817c.626,1,2.506,1.691,5.074,2.694,1.19,1,2.443,2.318,1.128,2.756-2.192.752-15.159,1.065-16.412-1a5.8,5.8,0,0,0-1.566-1.691,14.178,14.178,0,0,0,1.817-4.322,4.668,4.668,0,0,1,4.2-3.633Z" transform="translate(-80.579 -167.841)" fill="#ff6161"/>
      <path id="Caminho_1778" data-name="Caminho 1778" d="M215.867-48.776c1.253,2.067,14.22,1.817,16.412,1,1.253-.438.063-1.754-1.128-2.756,4.072,1.942,9.083,4.448,9.271,5.826.313,2.255-23.3,2.756-27.249.626-2.067-1.128-.689-3.571,1.128-6.389A5.11,5.11,0,0,1,215.867-48.776Z" transform="translate(-79.253 -172.558)" fill="#1d1240"/>
      <path id="Caminho_1779" data-name="Caminho 1779" d="M235.031-458.385c12.591-5.575,18.229,33.075,25.119,30.444,9.772-3.7,14.282-44.851,26.309-45.29s-4.385,57.693-23.616,64.333S226.888-454.815,235.031-458.385Z" transform="translate(-87.016 -14.641)" fill="#ff6161"/>
      <path id="Caminho_1780" data-name="Caminho 1780" d="M278.781-436.15c-6.765,11.15-14.658,22.864-18.73,22.989s-9.208-6.139-13.405-12.779-11.025-25.62-13.531-25.432c-.063,0-.063,0-.125.063.376,14.783,14.282,48.234,29.88,42.909,17.727-6.076,33.012-55.813,25.934-63.33a3.139,3.139,0,0,0-.5.439C285.922-469.162,285.546-447.237,278.781-436.15Z" transform="translate(-87.042 -15.203)" fill="#ac253c"/>
      <path id="Caminho_1781" data-name="Caminho 1781" d="M245.032-400.922a18.569,18.569,0,0,0,11.9-9.208c-1.629,1.754-10.774,4.385-13.844,5.262C243.716-403.553,244.343-402.237,245.032-400.922Z" transform="translate(-90.815 -38.216)" fill="#311d69"/>
      <path id="Caminho_1782" data-name="Caminho 1782" d="M253.657-426.183c-4.761-10.148-10.148-27.562-18.918-23.678-4.385,1.942-2.694,18.166,3.884,31.634C247.268-419.48,252.4-424.241,253.657-426.183Z" transform="translate(-86.787 -23.166)" fill="#fff"/>
      <path id="Caminho_1783" data-name="Caminho 1783" d="M317.729-481.981c.564-.689,4.072-1.754,4.26-1s-2.13,1.065-2.506,1.566c0,0,3.195-1.315,3.445-.438.689,2-.689,2.38-1.691,2.944s-.564.564-.564.564,1.253-.439,1.942-.752c.313-.125,1.128.251-.125,1.315a13.54,13.54,0,0,1-2.631,2.255,9.557,9.557,0,0,1-3.633,2.067c-1.128.313-1.879.063-2.255-1.691C313.532-476.97,317.729-481.981,317.729-481.981Z" transform="translate(-117.283 -10.903)" fill="#ff6161"/>
      <path id="Caminho_1784" data-name="Caminho 1784" d="M255.818-426.165c-4.573-9.709-9.647-25.934-17.728-24.054.125.251,8.519,21.924,9.647,26.748a4.31,4.31,0,0,0,1.817,2.38A18.537,18.537,0,0,0,255.818-426.165Z" transform="translate(-88.947 -23.183)" fill="#ffe6e6"/>
      <path id="Caminho_1785" data-name="Caminho 1785" d="M217.815-357.23s13.029,3.884,17.915,2.694c0,0,.063,20.108-9.02,20.358C217.565-333.865,215.686-348.648,217.815-357.23Z" transform="translate(-81.076 -57.979)" fill="#ffe6e6"/>
    </g>
  </g>
</svg>
