<svg xmlns="http://www.w3.org/2000/svg" width="314.406" height="409.711" viewBox="0 0 314.406 409.711">
  <g id="Grupo_1221" data-name="Grupo 1221" transform="translate(0 512.425)">
    <path id="Caminho_1333" data-name="Caminho 1333" d="M266.546-478.955a7,7,0,0,0,.16-1.279c0-.8.24-2.079,1.439-1.439,1.759.88,1.439,5.357-.56,5.677C266.066-475.837,266.306-477.916,266.546-478.955Z" transform="translate(-53.392 -6.129)" fill="#ff6161"/>
    <path id="Caminho_1334" data-name="Caminho 1334" d="M309.152-240.061c-.879-50.292-21.748-99.3-24.626-112.257a3.66,3.66,0,0,0-3.918-2.878c-25.346,1.759-58.447-8.4-69.961-12.233a130.333,130.333,0,0,0-8.235,14.312c-14.392,28.944,4.078,68.842,3.518,123.851-.4,38.139-.32,100.264,3.118,107.3,2.958,5.6,17.59,8.635,23.747.32,9.355-12.553,2.878-98.585,18.23-175.982,19.109,18.23,16.711,43.9,20.629,67.8,1.679,10.074-4.4,79.716,4.557,108.9,1.679,5.517,15.591,3.6,19.189,2.958C308.512-120.128,309.791-202.482,309.152-240.061Z" transform="translate(-39.47 -29.064)" fill="#614bd4"/>
    <path id="Caminho_1335" data-name="Caminho 1335" d="M233.109-278.383c-7.756,7.516-1.2,79.156-2.079,95.946-.8,15.431-6.237,67.163-4.158,80.435,4.477.16,9.115-1.279,11.913-5.117,9.355-12.553,2.878-98.585,18.23-175.982C255.016-307.887,240.784-285.819,233.109-278.383Z" transform="translate(-45.381 -43.672)" fill="#311d69"/>
    <path id="Caminho_1336" data-name="Caminho 1336" d="M308.449-334.72c-2.4-6.4-6.077-17.59-6.8-17.51-6.077,7.836-6,30.943-.08,51.092,8.076,27.665,9.195,49.492,10.954,76.6s-1.759,73.879-5.437,88.031a68.481,68.481,0,0,0-2.079,22.308,56.139,56.139,0,0,0,10.634-.8c13.033-2.159,14.312-84.433,13.672-122.092-.88-51.091-18.07-83.953-19.269-91.629A31.631,31.631,0,0,0,308.449-334.72Z" transform="translate(-59.556 -32.11)" fill="#311d69"/>
    <path id="Caminho_1337" data-name="Caminho 1337" d="M277.311-454.417s29.9,41.337,36.62,39.578c11.354-2.958,12.313-62.205,24.626-54.849s.72,67.962-19.189,78.356-39.5-28.624-41.977-37.259C274.752-437.147,277.311-454.417,277.311-454.417Z" transform="translate(-55.363 -8.44)" fill="#ac253c"/>
    <path id="Caminho_1338" data-name="Caminho 1338" d="M260.081-483.9s.56-8.155-3.678-11.673c-4.238-3.6-6.4-.56-6.4-.56a8.37,8.37,0,0,0-8.8,1.2c-4.078,3.518-10.634,22.068-16.551,28.224s-14.712,10.234-14.472,20.149c.16,9.914,6.157,26.625,30.223,20.229,11.594-3.118,22.228-24.226,23.107-30.463C265.918-473.5,260.081-483.9,260.081-483.9Z" transform="translate(-42.131 -3.026)" fill="#311d69"/>
    <path id="Caminho_1339" data-name="Caminho 1339" d="M260.082-483.857s.56-8.155-3.678-11.673a7.677,7.677,0,0,0-2.718-1.6c1.839,5.757-1.039,12.713-3.358,16.551-2.559,4.238,2,28.464-2.319,34.221s-22.388,6.237-30.783.959c-3.678-2.239-5.437-4.318-6.316-5.837a15.108,15.108,0,0,0-.72,4.8c.16,9.915,6.157,26.625,30.223,20.229,11.594-3.118,22.228-24.227,23.107-30.463C265.919-473.463,260.082-483.857,260.082-483.857Z" transform="translate(-42.132 -3.066)" fill="#1d1240"/>
    <path id="Caminho_1340" data-name="Caminho 1340" d="M302.174-316.641c-5.277-19.429-31.422-87.791-32.862-97.386-1.6-10.474,8.076-13.752,3.678-24.147-1.279-3.038-6.956-8.955-7.676-11.114-3.438-10.954-25.426-15.991-39.5-4.318-8.4,6.956-2.479,32.782-5.357,38.938-3.438,7.436-43.336,41.577-24.706,99.7,6.157,1.439,26.145,2.479,47.813,2.479,1.839,0,2.479-10.314,4.318-10.314,2.639,0,6.556,10.234,9.195,10.154C274.749-313.123,291.94-314.322,302.174-316.641Z" transform="translate(-38.249 -10.452)" fill="#fff"/>
    <path id="Caminho_1341" data-name="Caminho 1341" d="M252.788-473.13l-1.2,12.713c-.16,2.079,4.557,7.916,8.076,5.517,1.039-.72,0-3.678-.72-5.917l-1.6-11.194Z" transform="translate(-50.429 -7.876)" fill="#ff6161"/>
    <path id="Caminho_1342" data-name="Caminho 1342" d="M258.627-464.693c-2.639-1.039-5.037-5.437-5.037-5.437l4.4.4Z" transform="translate(-50.831 -8.478)" fill="#311d69"/>
    <path id="Caminho_1343" data-name="Caminho 1343" d="M253.532-484.4l-1.2,4.8a7.255,7.255,0,0,0,5.037,8.875c3.518.959,7.116-.8,8.076-5.277.8-4-1.759-7.676-2.639-9.595C260.808-489.918,255.291-489.838,253.532-484.4Z" transform="translate(-50.534 -4.761)" fill="#ff6161"/>
    <path id="Caminho_1344" data-name="Caminho 1344" d="M251.8-478.245a7.2,7.2,0,0,1-.24-1.279c-.08-.8-.32-2.079-1.519-1.359-1.679,1.039-1.119,5.437.959,5.6C252.521-475.126,252.122-477.125,251.8-478.245Z" transform="translate(-49.922 -6.28)" fill="#ff6161"/>
    <path id="Caminho_1345" data-name="Caminho 1345" d="M259.09-474.29a14.431,14.431,0,0,0,4.717-.24s-.56,2.079-1.6,2.719C261.249-471.012,259.97-472.211,259.09-474.29Z" transform="translate(-51.934 -7.596)" fill="#fff"/>
    <path id="Caminho_1346" data-name="Caminho 1346" d="M263.4-322.848a.547.547,0,0,1-.56-.56c0-.24.959-27.824,4.158-41.817,3.118-13.592,2.8-46.374,2.479-56.848-.32-8.315-7.116-25.986-7.2-26.145-.08-.32,0-.64.32-.72s.64,0,.72.32c.32.72,6.956,18.07,7.276,26.545.32,10.474.64,43.416-2.479,57.168-3.2,13.912-4.158,41.337-4.158,41.657A.545.545,0,0,1,263.4-322.848Z" transform="translate(-52.568 -12.72)" fill="#ffe6e6"/>
    <path id="Caminho_1347" data-name="Caminho 1347" d="M284.921-413.815c-1.6-10.474,8.075-13.752,3.678-24.147-1.279-3.038-6.956-8.955-7.676-11.114-1.439-4.478-6-8-11.833-9.755A33.343,33.343,0,0,1,279.324-435.4c.4,18.39-5.117,56.768,1.6,78.116,3.678,11.753,8.315,30.063,11.753,44.055,9.994-.64,18.869-1.679,25.026-3.118C312.586-335.779,286.44-404.141,284.921-413.815Z" transform="translate(-53.938 -10.743)" fill="#ffe6e6"/>
    <path id="Caminho_1348" data-name="Caminho 1348" d="M264.482-372.22c9.435,4,19.349-1.359,23.907-4.4-1.2-3.438-2.319-6.716-3.278-9.595-2.319,1.839-6.476,4.158-13.113,4.717-11.594,1.039-22.308-7.836-22.308-7.836A24.679,24.679,0,0,0,264.482-372.22Z" transform="translate(-50.049 -24.674)" fill="#311d69"/>
    <path id="Caminho_1349" data-name="Caminho 1349" d="M258.147-469.132c1.439.16,4.158-.16,5.277-1.039a10.177,10.177,0,0,0,2.239-2.958v.24c-.88,4.478-4.557,6.237-8.076,5.277a7.038,7.038,0,0,1-4.8-4.557A8.665,8.665,0,0,0,258.147-469.132Z" transform="translate(-50.671 -7.876)" fill="#ac253c"/>
    <path id="Caminho_1350" data-name="Caminho 1350" d="M305.882-411.03,291.89-394.879a58.63,58.63,0,0,0,7.836,9.275c4.717-4.637,8.076-18.869,8.875-22.627C307.721-409.111,306.842-409.991,305.882-411.03Z" transform="translate(-58.508 -20.324)" fill="#311d69"/>
    <path id="Caminho_1351" data-name="Caminho 1351" d="M19.021-366.815S8.867-368.894,4.549-382.167s-8.315-61.566,1.759-63.884,29.344,44.615,28.224,57.008S33.493-367.295,19.021-366.815Z" transform="translate(0 -13.288)" fill="#ffe6e6"/>
    <path id="Caminho_1352" data-name="Caminho 1352" d="M68.066-455.63s-67,60.926-52.211,82.274c14.792,21.268,53.57-19.749,61.646-31.1C82.058-410.775,68.066-455.63,68.066-455.63Z" transform="translate(-2.751 -11.384)" fill="#ffe6e6"/>
    <path id="Caminho_1353" data-name="Caminho 1353" d="M80.479-390.49,72.643-425.43,60.89-372.18A163.284,163.284,0,0,0,80.479-390.49Z" transform="translate(-12.205 -17.438)" fill="#311d69"/>
    <path id="Caminho_1354" data-name="Caminho 1354" d="M177.407-17.416a23.869,23.869,0,0,1-3.358-11.594l-12.793-.32s.8,4.4-1.439,7.756c-.959,1.439-3.758,2.479-7.6,4-6.077,2.958-13.512,6.716-13.832,8.715-.48,3.358,34.7,4.158,40.7.959C182.2-9.421,180.125-13.179,177.407-17.416Z" transform="translate(-27.739 -96.834)" fill="#311d69"/>
    <path id="Caminho_1355" data-name="Caminho 1355" d="M67.307-17.416A23.868,23.868,0,0,1,63.949-29.01l-12.793-.32s.8,4.4-1.439,7.756c-.959,1.439-3.758,2.479-7.6,4-6.077,2.958-13.512,6.716-13.832,8.715-.48,3.358,34.7,4.158,40.7.959C72.024-9.421,70.025-13.179,67.307-17.416Z" transform="translate(-5.669 -96.834)" fill="#311d69"/>
    <path id="Caminho_1356" data-name="Caminho 1356" d="M74.336-326.23S24.843-97.318,32.679-88.2C42.833-76.449,61.463-78.128,67.06-83.565c3.038-2.958,15.911-79.556,25.106-109.379,10.154-33.022,36.38-83.713,29.823-122.252C120.79-322.552,74.336-326.23,74.336-326.23Z" transform="translate(-6.382 -37.322)" fill="#614bd4"/>
    <path id="Caminho_1357" data-name="Caminho 1357" d="M72.462-76.5c3.038-2.958,15.911-79.556,25.106-109.379,8-25.906,25.826-62.685,29.983-95.946-3.678-6.316-8-10.474-12.153-8.8C105-286.386,85.1-236.494,76.54-203.552c-8.555,33.022-4.877,81.715-13.033,110.9A182.5,182.5,0,0,0,58.79-72.345C64.787-72.345,69.984-74.024,72.462-76.5Z" transform="translate(-11.784 -44.384)" fill="#311d69"/>
    <path id="Caminho_1358" data-name="Caminho 1358" d="M163.122-322.238a57.9,57.9,0,0,1,6.237,22.707c4.158,58.208,9.914,212.2,4.717,217.8-6.4,6.876-26.145,2.319-28.864-2.079s-34.381-211-36.14-221.876-4.717-22.068,7.116-22.547C127.942-328.634,163.122-322.238,163.122-322.238Z" transform="translate(-21.529 -36.917)" fill="#614bd4"/>
    <path id="Caminho_1359" data-name="Caminho 1359" d="M178.491-298.283a57.9,57.9,0,0,0-6.236-22.707s-2.319-.4-5.917-1.039A94.69,94.69,0,0,0,157.7-304.2c-11.913,33.022,2.319,59.087,3.038,86.032.8,26.945,9.195,113.937,8.075,130.487a15.749,15.749,0,0,0,2.639,10.634c4.717.08,9.195-.88,11.673-3.518C188.406-86.161,182.649-240.156,178.491-298.283Z" transform="translate(-30.662 -38.164)" fill="#311d69"/>
    <path id="Caminho_1360" data-name="Caminho 1360" d="M167.6-453.2c-15.511-18.23-55.329-21.908-78.756-13.592-7.836,2.8-13.113,8.075-14.552,16.391-2.639,15.671,1.519,96.506-9.435,153.914-.88,4.557,2.8,21.668,29.584,22.627,3.838.16,11.274-21.908,14.792-22.068,1.839-.08,6.8,21.828,8.875,21.668,20.309-1.279,45.734-9.914,47.733-15.351,2.319-6.476,1.279-73.479-.16-97.066C163.686-417.536,177.918-441.123,167.6-453.2Z" transform="translate(-12.978 -8.301)" fill="#fff"/>
    <path id="Caminho_1361" data-name="Caminho 1361" d="M117.54-467.047s13.033-3.438,18.47-1.439c5.437,1.919,7.676,9.994,4.717,18.869-2.878,8.875-20.549,48.613-23.987,49.093-5.117.64-5.437-11.114-6.077-17.67C110.1-424.911,104.428-463.529,117.54-467.047Z" transform="translate(-21.842 -8.682)" fill="#614bd4"/>
    <path id="Caminho_1362" data-name="Caminho 1362" d="M111.411-496.918s-3.118-4.717-.4-9.275c2.639-4.557,7.036-6.876,11.514-6.077a17.983,17.983,0,0,0,6.476.16s-.72,4-2.8,4.637a8.754,8.754,0,0,1,4.637,10.554c-2.079,7.676-6.476,10.634-8.715,10.234C119.886-486.923,111.411-496.918,111.411-496.918Z" transform="translate(-22.029)" fill="#311d69"/>
    <path id="Caminho_1363" data-name="Caminho 1363" d="M128.326-489.33l6.476,15.991c.16,2.4-8.635,7.836-12.553,5.117-1.119-.8-1.759-15.351-1.759-15.351Z" transform="translate(-24.152 -4.629)" fill="#ff6161"/>
    <path id="Caminho_1364" data-name="Caminho 1364" d="M121.21-471.693c-.16-1.439-.24-2.878-.32-4.318l6.8-1.919S126.407-474.252,121.21-471.693Z" transform="translate(-24.232 -6.914)" fill="#311d69"/>
    <path id="Caminho_1365" data-name="Caminho 1365" d="M122.413-497.545l4.238,8.955a6.05,6.05,0,0,1-3.358,7.756,16.752,16.752,0,0,1-7.276,1.2c-2.718,0-4.4-2.4-4.877-5.837a32.818,32.818,0,0,1,.72-11.194C113.138-501.862,119.215-503.141,122.413-497.545Z" transform="translate(-22.237 -2.251)" fill="#ff6161"/>
    <path id="Caminho_1366" data-name="Caminho 1366" d="M117.467-487.13a17.989,17.989,0,0,1-5.277.88s.16,2.079,1.519,2.559C114.988-483.132,116.987-484.651,117.467-487.13Z" transform="translate(-22.488 -5.07)" fill="#fff"/>
    <path id="Caminho_1367" data-name="Caminho 1367" d="M126.679-492.334a12.568,12.568,0,0,0,.32-1.839c.08-1.2.48-2.878,2.159-1.839,2.4,1.439,1.519,7.6-1.359,7.836C125.64-488.016,126.2-490.814,126.679-492.334Z" transform="translate(-25.304 -3.225)" fill="#ff6161"/>
    <path id="Caminho_1368" data-name="Caminho 1368" d="M122.3-478.412a9.665,9.665,0,0,1-7.276-.16,3.322,3.322,0,0,0-2.639,0,4.277,4.277,0,0,0,4,2.8,16.753,16.753,0,0,0,7.276-1.2,5.945,5.945,0,0,0,3.678-4.957A11.063,11.063,0,0,1,122.3-478.412Z" transform="translate(-22.528 -6.113)" fill="#ac253c"/>
    <path id="Caminho_1369" data-name="Caminho 1369" d="M1.049-447.33l-.56,4.717s-.24,6,3.918,4.557,4.957-6.8,3.2-7.116A51.313,51.313,0,0,1,1.049-447.33Z" transform="translate(-0.098 -13.048)" fill="#ac253c"/>
    <path id="Caminho_1370" data-name="Caminho 1370" d="M122.948-460.93s-2,4.557,1.519,4.238,3.758-4.238,3.758-4.238Z" transform="translate(-24.531 -10.322)" fill="#1d1240"/>
    <path id="Caminho_1371" data-name="Caminho 1371" d="M121.8-456.93s-4.877,18.31-6.8,26.145-2.239,29.264.24,31.822c2.559,2.559,5.517-.8,6.556-5.357,3.518-15.831,1.679-52.611,1.679-52.611Z" transform="translate(-22.746 -11.124)" fill="#1d1240"/>
    <path id="Caminho_1372" data-name="Caminho 1372" d="M181.61-288.77c2.319-6.476,1.279-73.479-.16-97.066-1.919-30.863,12.313-54.53,2-66.6-6-7.036-15.671-11.913-26.705-14.792.88,5.437-14.152,52.051-12.873,62.525,2.079,16.631,20.309-1.359,18.15,7.756-4,17.19-13.273,99.465-10.154,120.893C166.9-279.415,180.25-284.932,181.61-288.77Z" transform="translate(-28.823 -9.059)" fill="#ffe6e6"/>
    <path id="Caminho_1373" data-name="Caminho 1373" d="M123.037-466.993c6.556-5.437,10.474-5.837,10.474-5.837s3.6,2.079,4.078,3.2-6.956,7.116-8.555,8.635c-1.679,1.519-5.517-2.319-5.517-2.319s-3.438,1.919-4.078,1.359.32-8.076,1.6-8.155C122.237-470.271,122.237-466.354,123.037-466.993Z" transform="translate(-23.9 -7.937)" fill="#fff"/>
    <path id="Caminho_1374" data-name="Caminho 1374" d="M120.426-282.982a1.808,1.808,0,0,1-1.759-1.6c-.24-3.2-5.517-77.8.08-101.783a1.682,1.682,0,0,1,2.079-1.279,1.682,1.682,0,0,1,1.279,2.079c-5.437,23.507,0,100.024,0,100.744a1.709,1.709,0,0,1-1.6,1.839Z" transform="translate(-23.289 -25.001)" fill="#ffe6e6"/>
    <path id="Caminho_1375" data-name="Caminho 1375" d="M239.479-240.885c-32.542,0-73-21.428-120.573-63.884-42.856-38.3-82.514-85.392-108.18-118.174A33.716,33.716,0,0,1,4.57-453.167c3.278-11.434,12.153-20.469,24.386-24.866l40.937-14.712a7.5,7.5,0,0,1,9.595,4.477,7.5,7.5,0,0,1-4.478,9.595L34.074-463.961c-7.6,2.719-13.113,8.156-15.032,14.952a18.6,18.6,0,0,0,3.518,16.871c25.266,32.3,64.284,78.676,106.421,116.255,49.652,44.3,91.309,64.764,120.493,59.167,13.033-2.479,23.107-9.355,30.863-21.028,30.543-45.814,18.15-137.2,9.355-179.34-2.159-10.394-12.953-17.99-25.666-17.99h-31.5a7.507,7.507,0,0,1-7.516-7.516,7.507,7.507,0,0,1,7.516-7.516h31.5c19.669,0,36.62,12.553,40.3,29.823,11.514,54.609,20.948,142-11.514,190.694-9.914,14.952-23.587,24.147-40.537,27.425A61.451,61.451,0,0,1,239.479-240.885Z" transform="translate(-0.66 -3.853)" fill="#bdbaff"/>
    <path id="Caminho_1376" data-name="Caminho 1376" d="M278.6-197.388c-21.908,0-47.174-9.195-75.318-27.5a11.5,11.5,0,0,1-3.358-15.911,11.5,11.5,0,0,1,15.911-3.358c28.944,18.869,53.09,26.545,71.88,22.947,23.907-4.557,37.979-25.906,43.016-65.244a11.521,11.521,0,0,1,12.873-9.994A11.521,11.521,0,0,1,353.6-283.58c-7.916,62.045-37.819,80.435-61.566,84.993A81.477,81.477,0,0,1,278.6-197.388Z" transform="translate(-39.701 -43.272)" fill="#1d1240"/>
    <path id="Caminho_1377" data-name="Caminho 1377" d="M83.043-492.777s-4.557,7.836,2.878,14.872l11.354-1.919a9.12,9.12,0,0,0,7.436-10.714.294.294,0,0,0-.08-.24,9.065,9.065,0,0,0-12.793-6.077Z" transform="translate(-16.369 -2.942)" fill="#311d69"/>
    <path id="Caminho_1378" data-name="Caminho 1378" d="M161.506-377.4s-8,31.9-23.107,39.578c-16.871,8.635-28.864-3.6-35.5-11.114s-18.15-36.14-17.91-51.891c0,0,22.627,42.616,41.257,42.376C144.876-358.853,161.506-377.4,161.506-377.4Z" transform="translate(-17.035 -22.369)" fill="#311d69"/>
    <path id="Caminho_1379" data-name="Caminho 1379" d="M287.085-489.725s6.8,5.917,2,15.032l-11.434,1.839a9.078,9.078,0,0,1-10.474-7.836v-.24a9.118,9.118,0,0,1,10.154-9.914Z" transform="translate(-53.543 -4.314)" fill="#311d69"/>
    <path id="Caminho_1380" data-name="Caminho 1380" d="M90.928-471.3s7.756-7.676,14.472,7.916c3.438,7.916,22.867,67.962,22.867,67.962s15.032-58.527,33.022-58.687c18.07-.16,12.153,22.068,8.155,36.3s-19.029,64.124-41.177,64.124C91.648-353.849,66.222-453.474,90.928-471.3Z" transform="translate(-16.258 -7.864)" fill="#fff"/>
    <path id="Caminho_1381" data-name="Caminho 1381" d="M99.976-476.651s.8-3.2.32-4.717-5.757-5.517-6.556-4.318c-.8,1.119,2.958,3.118,3.278,4.238,0,0-4.238-2.319-5.6-1.519s-.32,2.958,1.039,4.637,1.839,2.319,1.839,2.319-3.758-2.958-4-3.518-2-.32-.64,2.319,3.918,7.836,5.117,7.756C95.978-469.614,99.577-474.412,99.976-476.651Z" transform="translate(-17.87 -5.315)" fill="#ff6161"/>
    <path id="Caminho_1382" data-name="Caminho 1382" d="M1.761-453.274s1.679-2.8,3.118-3.518,8,.24,7.756,1.6-4.318.08-5.357.64c0,0,4.637,1.359,5.037,2.958.32,1.519-1.919,2.319-4,2.479a24.164,24.164,0,0,0-2.878.32s4.717.56,5.277.32,1.679,1.2-1.2,2.079c-2.8.88-8.315,2.719-9.115,1.759C-.478-445.438.4-451.355,1.761-453.274Z" transform="translate(-0.01 -11.102)" fill="#ac253c"/>
    <path id="Caminho_1383" data-name="Caminho 1383" d="M91.328-430.887c-3.118-14.232-3.358-28.624-6-31.343-14.312,28.464,9.675,110.578,42.936,110.578,22.068,0,37.1-49.892,41.177-64.124,2.958-10.394,6.876-25.026,1.759-32.142-2,6.4-6.157,19.109-12.473,34.461-9.195,22.228-17.59,35.74-25.826,42.776-8.315,7.116-23.747,1.359-29.424-15.192C97.724-402.343,95.165-413.3,91.328-430.887Z" transform="translate(-16.258 -10.061)" fill="#ffe6e6"/>
    <path id="Caminho_1384" data-name="Caminho 1384" d="M307.446-63.135a6.107,6.107,0,0,1,6.237,4.4,8.6,8.6,0,0,0,1.039,2.319c.8,1.279,3.2,2.159,6.476,3.438,1.519,1.279,3.118,2.958,1.439,3.518-2.8.959-19.349,1.359-20.948-1.279a7.408,7.408,0,0,0-2-2.159,18.1,18.1,0,0,0,2.319-5.517,5.958,5.958,0,0,1,5.357-4.637Z" transform="translate(-60.072 -90.054)" fill="#ff6161"/>
    <path id="Caminho_1385" data-name="Caminho 1385" d="M300.9-48.291c1.6,2.639,18.15,2.319,20.948,1.279,1.6-.56.08-2.239-1.439-3.518,5.2,2.479,11.594,5.677,11.833,7.436.4,2.878-29.743,3.518-34.781.8-2.639-1.439-.879-4.557,1.439-8.155A5.792,5.792,0,0,1,300.9-48.291Z" transform="translate(-59.36 -92.585)" fill="#1d1240"/>
    <path id="Caminho_1386" data-name="Caminho 1386" d="M223.446-63.135a6.107,6.107,0,0,1,6.237,4.4,8.6,8.6,0,0,0,1.039,2.319c.8,1.279,3.2,2.159,6.476,3.438,1.519,1.279,3.118,2.958,1.439,3.518-2.8.959-19.349,1.359-20.948-1.279a7.408,7.408,0,0,0-2-2.159,18.1,18.1,0,0,0,2.319-5.517,5.958,5.958,0,0,1,5.357-4.637Z" transform="translate(-43.234 -90.054)" fill="#ff6161"/>
    <path id="Caminho_1387" data-name="Caminho 1387" d="M216.9-48.291c1.6,2.639,18.15,2.319,20.948,1.279,1.6-.56.08-2.239-1.439-3.518,5.2,2.479,11.594,5.677,11.833,7.436.4,2.878-29.743,3.518-34.781.8-2.639-1.439-.879-4.557,1.439-8.155A6.523,6.523,0,0,1,216.9-48.291Z" transform="translate(-42.523 -92.585)" fill="#1d1240"/>
    <path id="Caminho_1388" data-name="Caminho 1388" d="M235.615-454.281c16.071-7.116,23.267,42.216,32.062,38.858,12.473-4.717,18.23-57.248,33.581-57.808s-5.6,73.639-30.143,82.114S225.22-449.724,235.615-454.281Z" transform="translate(-46.688 -7.856)" fill="#ff6161"/>
    <path id="Caminho_1389" data-name="Caminho 1389" d="M291.437-426.315c-8.635,14.232-18.71,29.184-23.907,29.344s-11.753-7.836-17.11-16.311-14.072-32.7-17.27-32.462c-.08,0-.08,0-.16.08.48,18.87,18.23,61.566,38.139,54.769,22.627-7.756,42.137-71.24,33.1-80.835a4.008,4.008,0,0,0-.64.56C300.552-468.452,300.073-440.467,291.437-426.315Z" transform="translate(-46.702 -8.157)" fill="#ac253c"/>
    <path id="Caminho_1390" data-name="Caminho 1390" d="M245.569-398.377c11.274-3.038,15.192-11.753,15.192-11.753-2.079,2.239-13.752,5.6-17.67,6.716C243.89-401.735,244.689-400.056,245.569-398.377Z" transform="translate(-48.726 -20.505)" fill="#311d69"/>
    <path id="Caminho_1391" data-name="Caminho 1391" d="M259.558-419.484c-6.077-12.953-12.953-35.18-24.147-30.223-5.6,2.479-3.438,23.187,4.957,40.377C251.4-410.929,257.959-417.006,259.558-419.484Z" transform="translate(-46.565 -12.429)" fill="#fff"/>
    <path id="Caminho_1392" data-name="Caminho 1392" d="M318.777-481.633c.72-.879,5.2-2.239,5.437-1.279s-2.719,1.359-3.2,2c0,0,4.078-1.679,4.4-.56.88,2.559-.879,3.038-2.159,3.758s-.72.72-.72.72,1.6-.56,2.479-.959c.4-.16,1.439.32-.16,1.679A17.28,17.28,0,0,1,321.5-473.4a12.2,12.2,0,0,1-4.637,2.638c-1.439.4-2.4.08-2.878-2.159C313.42-475.237,318.777-481.633,318.777-481.633Z" transform="translate(-62.928 -5.85)" fill="#ff6161"/>
    <path id="Caminho_1393" data-name="Caminho 1393" d="M260.717-419.475c-5.837-12.393-12.313-33.1-22.627-30.7.16.32,10.874,27.984,12.313,34.141A5.5,5.5,0,0,0,252.722-413,23.661,23.661,0,0,0,260.717-419.475Z" transform="translate(-47.724 -12.439)" fill="#ffe6e6"/>
    <path id="Caminho_1394" data-name="Caminho 1394" d="M218.035-357.23s16.631,4.957,22.867,3.438c0,0,.08,25.666-11.514,25.986C217.716-327.407,215.317-346.276,218.035-357.23Z" transform="translate(-43.501 -31.108)" fill="#ffe6e6"/>
  </g>
</svg>
