<svg xmlns="http://www.w3.org/2000/svg" width="247.234" height="293.702" viewBox="0 0 247.234 293.702">
  <g id="Grupo_1295" data-name="Grupo 1295" transform="translate(0 0)">
    <path id="Caminho_1831" data-name="Caminho 1831" d="M135.949-502.95s-43.7,31.855-59.919,34.8c-17.217,3.107-38.489-37.173-52.863-29.7-2.475,1.264-7.266,6.687-7.055,9.951.948,14.164,22.8,37.068,32.329,41.964,31.7,16.322,63.5,6.213,84.455-18.639C141.057-474.307,135.949-502.95,135.949-502.95Z" transform="translate(-7.625 531.834)" fill="#ffe3e3"/>
    <path id="Caminho_1832" data-name="Caminho 1832" d="M206.51-459.45l-20.693,36.594a74.276,74.276,0,0,0,21.693-14.9Z" transform="translate(-87.979 511.238)" fill="#311d69"/>
    <path id="Caminho_1833" data-name="Caminho 1833" d="M18.385-504.326a21.345,21.345,0,0,0-2.58-6.476c-.842-1.264-.79-4.633-1.9-3.317a5.293,5.293,0,0,0-1.264,3.738,8.311,8.311,0,0,0-3.58-1.843c-3.317-.369-7.582-2.369-7.951-.579-.158.684,3.159,2.475,3.159,2.475S.483-509.644.22-508.38s.527,1.053.527,1.053a1.5,1.5,0,0,0,.263,2.685c2.106,1.264,7.635,2.685,7.951,2.791s3.844,3.844,7.213,2.685C19.122-500.272,19.385-502.325,18.385-504.326Z" transform="translate(0 537.265)" fill="#ff6161"/>
    <path id="Caminho_1834" data-name="Caminho 1834" d="M200.93-8.576a128.685,128.685,0,0,1-19.955-.105,6.66,6.66,0,0,0-.158,1.474c0,2.685,27.169,2.58,31.75,0a4.3,4.3,0,0,0,1.843-3.844A79.792,79.792,0,0,1,200.93-8.576Z" transform="translate(-85.612 298.934)" fill="#fff"/>
    <path id="Caminho_1835" data-name="Caminho 1835" d="M201.025-14.589A86.047,86.047,0,0,0,214.5-17.011a13.144,13.144,0,0,0-1.106-5.265c-.158-.369-.316-.842-.474-1.316a58.922,58.922,0,0,1-11.215,1.58,5.4,5.4,0,0,1-4.265-1.738c-.053.053-.053.158-.105.211-.737,1.158-2.9,2.053-5.844,3.264-4.265,2.159-9.53,1.053-10.478,5.581A136.524,136.524,0,0,0,201.025-14.589Z" transform="translate(-85.706 304.947)" fill="#1d1240"/>
    <path id="Caminho_1836" data-name="Caminho 1836" d="M325.73-8.576a128.685,128.685,0,0,1-19.955-.105,6.66,6.66,0,0,0-.158,1.474c0,2.685,27.169,2.58,31.75,0a4.3,4.3,0,0,0,1.843-3.844A79.792,79.792,0,0,1,325.73-8.576Z" transform="translate(-144.701 298.934)" fill="#fff"/>
    <path id="Caminho_1837" data-name="Caminho 1837" d="M325.825-14.589A86.047,86.047,0,0,0,339.3-17.011a13.144,13.144,0,0,0-1.106-5.265c-.158-.369-.316-.842-.474-1.316a58.923,58.923,0,0,1-11.215,1.58,5.4,5.4,0,0,1-4.265-1.738c-.053.053-.053.158-.105.211-.737,1.158-2.9,2.053-5.844,3.264-4.265,2.159-9.53,1.053-10.478,5.581A136.524,136.524,0,0,0,325.825-14.589Z" transform="translate(-144.795 304.947)" fill="#1d1240"/>
    <path id="Caminho_1838" data-name="Caminho 1838" d="M276.717-265.638c-.579-4.739,7.108-68.028,5.055-84.245-2.159-17.165-5.739-21.9-7.319-31.539-19.166,3.054-48.7-1.843-61.92-3.528-7.529,16.533-18.9,51.863-22.851,109.676-.842,12,12.321,79.558,11.847,80.506a5.4,5.4,0,0,0,4.265,1.738,54.947,54.947,0,0,0,11.215-1.58c-.527-1.9,8.53-43.491,3.054-76.873-1.422-8.846,17.27-64.816,17.27-64.816s3.317,49.6,8.635,73.925c4.16,19.06,21.64,66.974,21.324,67.606a5.4,5.4,0,0,0,4.265,1.738,54.947,54.947,0,0,0,11.215-1.58C282.4-195.874,279.3-244.577,276.717-265.638Z" transform="translate(-89.791 475.965)" fill="#4bb4d4"/>
    <path id="Caminho_1839" data-name="Caminho 1839" d="M228.2-190.6c.527,18.744.369,48.6-1.106,62.025a57.082,57.082,0,0,0-.158,13.374,71.724,71.724,0,0,0,7.582-1.316c-.527-1.9,8.53-43.491,3.054-76.873-.579-3.528,2-14.427,5.371-26.274C237.832-222.453,227.67-208.026,228.2-190.6Z" transform="translate(-107.297 397.87)" fill="#2e87be"/>
    <path id="Caminho_1840" data-name="Caminho 1840" d="M221.135-162.385l-31.118-5.265c.211,2.58.527,5.792,1,9.478,5.9,2.369,21.588,8.319,30.96,7.9C221.819-154.381,221.556-158.436,221.135-162.385Z" transform="translate(-89.968 373.08)" fill="#311d69"/>
    <path id="Caminho_1841" data-name="Caminho 1841" d="M324.877-208.813c-2.264,23.009,10.478,56.338,16.059,73.4,1.843-.263,3.9-.632,5.739-1.053-.369-1.264-3.475-50.02-6.055-71.029-.369-3.054,2.738-31.065,4.423-54.654C337.145-247.46,326.457-224.872,324.877-208.813Z" transform="translate(-153.694 417.823)" fill="#2e87be"/>
    <path id="Caminho_1842" data-name="Caminho 1842" d="M327.319-158.634v-.316l-30.8,3.37c0,.053.053.158.053.211.421,1.948,1,4.16,1.632,6.634,5.9.158,22.535.369,30.065-1.422C327.951-153.263,327.635-156.159,327.319-158.634Z" transform="translate(-140.392 368.96)" fill="#311d69"/>
    <path id="Caminho_1843" data-name="Caminho 1843" d="M282.824-500.085c-2.159-16.322-52.495-23.167-70.608-6.213-8,7.477-8.9,66.817-10.636,70.976-2,4.844-22.43,101.831-13.848,106.359,6.371,3.37,20.482,6.16,35.8,7.529,1.211.105,2.633-22.167,3.844-22.062,2.106.158,3.949,22.641,6.055,22.746,21.8,1.053,43.175-1.106,46.124-8.74,2.053-5.371,4.686-82.139,1.9-118.153C279.665-470.968,283.561-494.662,282.824-500.085Z" transform="translate(-87.894 538.079)" fill="#fff"/>
    <path id="Caminho_1844" data-name="Caminho 1844" d="M265.119-303.972h-.105a1.085,1.085,0,0,1-1-1.211c.053-.474,4.476-49.073,5.423-71.871.948-22.851,5.423-50.6,5.423-50.915a1.116,1.116,0,0,1,1.264-.9,1.116,1.116,0,0,1,.9,1.264c-.053.263-4.475,27.906-5.423,50.652-.948,22.8-5.371,71.45-5.423,71.977A1.047,1.047,0,0,1,265.119-303.972Z" transform="translate(-125 496.765)" fill="#ffe3e3"/>
    <path id="Caminho_1845" data-name="Caminho 1845" d="M346.256-327.407c2.053-5.371,4.686-82.138,1.9-118.153-1.79-23.325,2.053-47.019,1.369-52.442-.842-6.318-8.9-11.215-19.534-13.848a118.672,118.672,0,0,1,2.159,37.7c-2.369,23.273.842,62.657-2.9,89.879-2.58,18.8-2.791,48.441-2.738,65.026C336.884-320.509,344.624-323.089,346.256-327.407Z" transform="translate(-154.59 536.048)" fill="#ffe3e3"/>
    <path id="Caminho_1846" data-name="Caminho 1846" d="M284.169-513.472a21.714,21.714,0,0,1,15.111,1c3.9,1.685-1.316,12.637-5.581,23.852-4.212,10.952-7.371,22.22-11.162,25.221C274.9-457.291,273.375-509.839,284.169-513.472Z" transform="translate(-130.887 537.249)" fill="#4bb4d4"/>
    <path id="Caminho_1847" data-name="Caminho 1847" d="M304.4-550.511a6.832,6.832,0,0,0-.79-2.843c-1.264-2.422-8.109-6.845-10.9-2.843-1.843,2.685-.053,6,1.316,7.951,1,3.159,3.9,6.792,6.74,7.161a3.4,3.4,0,0,0,3.107-2.106C304.766-545.088,305.978-548.511,304.4-550.511Z" transform="translate(-138.216 557.808)" fill="#311d69"/>
    <path id="Caminho_1848" data-name="Caminho 1848" d="M291.221-546.464s-1.843,3.37-.211,4.475,3.791-3.949,3.791-3.949S293.274-548.517,291.221-546.464Z" transform="translate(-137.466 552.813)" fill="#311d69"/>
    <path id="Caminho_1849" data-name="Caminho 1849" d="M302.907-532.25l1.948,11.952c-.263,1.632-7.108,4.054-9.372,1.527-.684-.737,1.211-10.794,1.211-10.794Z" transform="translate(-139.832 545.707)" fill="#ff6161"/>
    <path id="Caminho_1850" data-name="Caminho 1850" d="M295.917-517.386c.105-1,.263-2.053.421-3l4.949-.263S299.866-518.333,295.917-517.386Z" transform="translate(-140.108 540.215)" fill="#311d69"/>
    <path id="Caminho_1851" data-name="Caminho 1851" d="M297.617-544.166l1.527,6.792a4.248,4.248,0,0,1-3.475,4.791,11.031,11.031,0,0,1-5.16-.316c-1.843-.421-2.633-2.317-2.422-4.791a23.966,23.966,0,0,1,2.211-7.529C291.983-548.641,296.3-548.536,297.617-544.166Z" transform="translate(-136.385 552.989)" fill="#ff6161"/>
    <path id="Caminho_1852" data-name="Caminho 1852" d="M295.109-522.821a6.985,6.985,0,0,1-4.949-1.211,2.27,2.27,0,0,0-1.843-.369,3.056,3.056,0,0,0,2.264,2.527,12.625,12.625,0,0,0,5.16.316,4.2,4.2,0,0,0,3.265-2.843A7.289,7.289,0,0,1,295.109-522.821Z" transform="translate(-136.51 542.018)" fill="#ac253c"/>
    <path id="Caminho_1853" data-name="Caminho 1853" d="M306.968-536.52a4.829,4.829,0,0,0,.474-1.211c.263-.79.79-1.9,1.79-.948,1.422,1.369-.105,5.423-2.159,5.16C305.6-533.729,306.442-535.572,306.968-536.52Z" transform="translate(-144.999 548.924)" fill="#ff6161"/>
    <path id="Caminho_1854" data-name="Caminho 1854" d="M290.217-532.45a15.93,15.93,0,0,0,4.16.632s-.685,1.211-2.843.9A1.527,1.527,0,0,1,290.217-532.45Z" transform="translate(-137.409 545.802)" fill="#fff"/>
    <path id="Caminho_1855" data-name="Caminho 1855" d="M355.076-499.65S409.73-464.215,412.1-430.1c1.843,26.59-32.224,13.111-32.961,4.054-.474-5.634-27.327-35.172-28.906-41.6C344.072-492.805,355.076-499.65,355.076-499.65Z" transform="translate(-164.938 530.272)" fill="#fff"/>
    <path id="Caminho_1856" data-name="Caminho 1856" d="M339.55-389.337l-41.438,5.792a3.409,3.409,0,0,1-3.9-3.475l1.369-58.655a3.4,3.4,0,0,1,2.949-3.317l41.438-5.792a3.409,3.409,0,0,1,3.9,3.475l-1.316,58.655A3.537,3.537,0,0,1,339.55-389.337Z" transform="translate(-139.302 509.047)" fill="#1d1240"/>
    <path id="Caminho_1857" data-name="Caminho 1857" d="M344.293-456.956a3.789,3.789,0,0,0-4.054-2.58l-3.264.474a4.674,4.674,0,0,0-4.739-3.107c-3.58.685-4.844,4.476-4.844,4.476l-3.265.474a5.923,5.923,0,0,0-4.16,3.738,2.077,2.077,0,0,0,2.211,2.843l9.9-1.369,10.794-1.527a2.074,2.074,0,0,0,1.632-2.843Z" transform="translate(-151.417 512.535)" fill="#614bd4"/>
    <path id="Caminho_1858" data-name="Caminho 1858" d="M381.764-391.271s-45.387,12.689-48.809,23.115.842,19.271,9.583,20.851c8.688,1.58,57.918-10,60.867-23.589C406.617-385.69,390.557-393.43,381.764-391.271Z" transform="translate(-157.085 479.127)" fill="#fff"/>
    <path id="Caminho_1859" data-name="Caminho 1859" d="M315.777-341.328c-1.422-.053-4.318-1.053-2.9,1.211,1.211,1.948,4.423.737,4.107,2.685-.263,1.948-5,4.844-6.424,6.266-2,2,1.158,3.422,5.529,2.738,4.318-.684,10.109-4.212,9.583-9.635C325.149-343.539,317.2-341.275,315.777-341.328Z" transform="translate(-146.752 455.51)" fill="#ff6161"/>
    <path id="Caminho_1860" data-name="Caminho 1860" d="M357.37-308.72v-8.53l-13.953,3.475C343.47-313.828,346.471-308.72,357.37-308.72Z" transform="translate(-162.598 443.911)" fill="#311d69"/>
    <path id="Caminho_1861" data-name="Caminho 1861" d="M297.242-540.5l-4.212-.948a.559.559,0,0,0-.421.053,2.47,2.47,0,0,0-1.264-.263.944.944,0,0,0-.369-.263l-3.264-.737a.558.558,0,0,0-.684.474l-.158.685a2.187,2.187,0,0,0,1.685,2.633h.105a2.187,2.187,0,0,0,2.633-1.685l.105-.527a1.569,1.569,0,0,1,.9.211l-.105.526a2.187,2.187,0,0,0,1.685,2.633l1.053.211a2.187,2.187,0,0,0,2.633-1.685l.158-.685A.712.712,0,0,0,297.242-540.5Zm-6.582-.105a1.6,1.6,0,0,1-1.9,1.211h-.105a1.6,1.6,0,0,1-1.211-1.9l.105-.684,3.264.684Zm6.266,1.369a1.6,1.6,0,0,1-1.9,1.211l-1.053-.211a1.6,1.6,0,0,1-1.211-1.9l.105-.632v-.053l4.212.9Z" transform="translate(-135.799 550.64)" fill="#fff"/>
    <path id="Caminho_1862" data-name="Caminho 1862" d="M407.923-370.81c2.633-12.163-7.74-19.587-16.428-20.64,2.633,6.9,3.475,12.11,1.79,16.8-2.949,8.109-44.65,22.8-51.968,24.9A13.365,13.365,0,0,0,347-347.222C355.744-345.642,404.974-357.226,407.923-370.81Z" transform="translate(-161.604 479.042)" fill="#ffe3e3"/>
    <path id="Caminho_1863" data-name="Caminho 1863" d="M403.083-410.552c10.109,5.476,26.642,6.634,25.326-12.11-1.632-24.062-29.328-48.809-45.492-61.288,6,7.845,14.743,19.955,19.9,30.539,8.477,17.27,13.058,26.853,10.109,34.962C412.139-416.186,408.348-413.4,403.083-410.552Z" transform="translate(-181.3 522.838)" fill="#ffe3e3"/>
  </g>
</svg>
