<svg xmlns="http://www.w3.org/2000/svg" width="149.935" height="316.84" viewBox="0 0 149.935 316.84">
  <g id="Grupo_1271" data-name="Grupo 1271" transform="translate(0 0)">
    <path id="Caminho_1577" data-name="Caminho 1577" d="M112.964-643.254l29.409-7.158a1.552,1.552,0,0,1,1.915,1.185,1.552,1.552,0,0,1-1.185,1.915l-29.409,7.158a1.552,1.552,0,0,1-1.915-1.185A1.593,1.593,0,0,1,112.964-643.254Z" transform="translate(-92.378 670.727)" fill="#614bd4"/>
    <path id="Caminho_1578" data-name="Caminho 1578" d="M162.653-620.25l-29.819,60.6S132.1-610.766,119.2-610.9s-11.855,42.084-5.608,65.2c6.2,23.117,29.181,13.5,36.43,2.371C157.319-554.457,162.653-620.25,162.653-620.25Z" transform="translate(-90.956 654.289)" fill="#ffe1e1"/>
    <path id="Caminho_1579" data-name="Caminho 1579" d="M77.064-615.7h25.077a2.075,2.075,0,0,0,2.052-2.371l-5.7-34.743a2.062,2.062,0,0,0-2.052-1.733H71.365a2.075,2.075,0,0,0-2.052,2.371l5.7,34.743A2.1,2.1,0,0,0,77.064-615.7Z" transform="translate(-69.291 672.95)" fill="#1d1240"/>
    <path id="Caminho_1580" data-name="Caminho 1580" d="M84.127-659.147a2.308,2.308,0,0,1,2.189-1.869h2.006a2.79,2.79,0,0,1,2.553-2.234,4.142,4.142,0,0,1,3.237,2.234h2.006a3.456,3.456,0,0,1,2.781,1.869,1.229,1.229,0,0,1-1.049,1.869H85.267a1.218,1.218,0,0,1-1.185-1.55Z" transform="translate(-77.311 677.683)" fill="#614bd4"/>
    <path id="Caminho_1581" data-name="Caminho 1581" d="M212.03-31.631A18.378,18.378,0,0,1,209.2-40.7l-10.076-.046a9.354,9.354,0,0,1-1.049,6.155c-.73,1.185-2.918,2.052-5.882,3.283-4.742,2.417-10.578,5.517-10.76,7.113-.365,2.69,27.494,2.69,32.1.091C215.905-25.385,214.264-28.3,212.03-31.631Z" transform="translate(-130.302 339.011)" fill="#311d69"/>
    <path id="Caminho_1582" data-name="Caminho 1582" d="M355.73-31.631A18.379,18.379,0,0,1,352.9-40.7l-10.076-.046a9.354,9.354,0,0,1-1.049,6.155c-.73,1.185-2.918,2.052-5.882,3.283-4.742,2.417-10.578,5.517-10.76,7.113-.365,2.69,27.494,2.69,32.1.091C359.651-25.385,357.964-28.3,355.73-31.631Z" transform="translate(-208.482 339.011)" fill="#311d69"/>
    <path id="Caminho_1583" data-name="Caminho 1583" d="M266.6-358.35c-1.368-15.548.547-46.826-3.374-69.532-1.6-9.3-3.009-32.1-3.83-38.847-.091-.775-.137-1.55-.182-2.325-26.719,3.42-53.027-3.009-59.319-4.7a35.773,35.773,0,0,1-5.927,14.271c-11.49,16.46-12.539,56.538-12.63,84.533-.137,62.693,13.633,99.716,16.642,102.907,3.648,3.83,8.025,4.286,13.314.684,4.377-2.964-1.231-69.851-1.368-79.244-.228-15.092,9.8-48.878,9.8-48.878,1.14,4.377,22.843,88.819,41.947,129.443,2.1,4.468,15.73,2.234,15.229-3.83C274.991-295.976,267.239-350.644,266.6-358.35Z" transform="translate(-130.25 574.585)" fill="#4bb4d4"/>
    <path id="Caminho_1584" data-name="Caminho 1584" d="M222.327-307.325c-4.423,13.5-9.347,52.753-5.882,72.632,2.645,15.092,6.2,40.534,7.751,51.932a13.378,13.378,0,0,0,5.563-2.371c4.377-2.964-1.231-69.851-1.368-79.244-.228-15.092,9.8-48.878,9.8-48.878S226.7-320.776,222.327-307.325Z" transform="translate(-148.715 488.407)" fill="#2e87be"/>
    <path id="Caminho_1585" data-name="Caminho 1585" d="M181.54-298.276a96.55,96.55,0,0,0,29.728.638L181.859-310.45C181.722-306.3,181.631-302.243,181.54-298.276Z" transform="translate(-130.36 485.741)" fill="#311d69"/>
    <path id="Caminho_1586" data-name="Caminho 1586" d="M343.166-328.6c-1.368-15.548.547-46.826-3.374-69.532-.821-4.742-1.6-12.9-2.234-20.746-16.369-2.872-8.481,27.4-13.131,53.027-5.015,27.858-1.6,55.717,6.155,81.068,6.611,21.612,15.867,35.2,18.284,45.959,2.736-1,4.833-2.827,4.605-5.289C351.555-266.225,343.8-320.893,343.166-328.6Z" transform="translate(-206.815 544.834)" fill="#2e87be"/>
    <path id="Caminho_1587" data-name="Caminho 1587" d="M323.072-268.2c-.091-5.2-.091-10.988-.182-17.052l-36.749,3.784S309.94-270.2,323.072-268.2Z" transform="translate(-187.268 472.031)" fill="#311d69"/>
    <path id="Caminho_1588" data-name="Caminho 1588" d="M258.792-466.113c2.872-19.378,8.025-48.1-7.2-89.229-7.2-19.423-4.924-47.008-5.517-52.616-1-9.575-5.654-28.132-40.488-23.846-12.858,1.6-14.226,6.748-21.019,24.758-2.052,5.517,2.872,24.849-.41,48.376-3.739,26.9-16.323,55.626-16.824,70.4-.456,13.04,15.183,13.861,36.157,15.457,3.42.274,4.058-15,5.608-14.5,1.185.365,2.417,14.271,3.6,14.636C231.435-467.162,258.381-463.241,258.792-466.113Z" transform="translate(-122.623 660.919)" fill="#fff"/>
    <path id="Caminho_1589" data-name="Caminho 1589" d="M323.088-553.663c-7.2-19.423-4.924-47.008-5.517-52.616-.729-7.067-3.465-19.013-18.831-23.071a718.689,718.689,0,0,1,9.985,74c2.1,25.533.274,63.787-1.459,89.73,12.311,2.189,22.752,3.009,23.025,1.231C333.164-483.857,338.316-512.582,323.088-553.663Z" transform="translate(-194.123 659.24)" fill="#ffe1e1"/>
    <path id="Caminho_1590" data-name="Caminho 1590" d="M257.661-399.305a.817.817,0,0,0,.821-.821c0-.5.228-48.65,1.049-66.158a.82.82,0,0,0-.775-.866.82.82,0,0,0-.866.775c-.821,17.554-1.049,65.748-1.049,66.2A.829.829,0,0,0,257.661-399.305Z" transform="translate(-171.327 570.994)" fill="#ffe1e1"/>
    <path id="Caminho_1591" data-name="Caminho 1591" d="M242.681-499.894c10.76-18.876,12.949-44.956,12.949-44.956s-22.524,48.148-35.746,51.8c-10.4,2.872-19.56-1.277-23.071-3.237-.365,1.55-.73,3.1-1.094,4.605-.456,1.778,7.842,6.839,14.043,7.979C214.367-482.841,231.921-481.017,242.681-499.894Z" transform="translate(-138.064 613.267)" fill="#311d69"/>
    <path id="Caminho_1592" data-name="Caminho 1592" d="M269.475-622.726c.182,3.556-16.277,66.477-20.472,49.2-1.231-4.97-3.648-51.7.684-54.3C261.769-635.037,269.338-625.143,269.475-622.726Z" transform="translate(-166.089 659.82)" fill="#2e87be"/>
    <path id="Caminho_1593" data-name="Caminho 1593" d="M133.87-564.75l12.219,34.287v1l.182-.547,11.946,22.341a29.891,29.891,0,0,1-9.256,5.2C129.629-541.679,133.87-564.75,133.87-564.75Z" transform="translate(-104.211 624.094)" fill="#311d69"/>
    <path id="Caminho_1594" data-name="Caminho 1594" d="M215.445-615.929c-16.688-5.38-31.825,59.319-37.479,57.86-6.7-1.733-18.876-38.391-32.555-51.157-2.371-2.189-8.116-1.368-10.35-1.231-15.229.912,2.006,78.013,40.4,83.94C209.837-521.229,232.588-610.412,215.445-615.929Z" transform="translate(-102.074 652.111)" fill="#fff"/>
    <path id="Caminho_1595" data-name="Caminho 1595" d="M136.973-609.888a41.459,41.459,0,0,1-3.967-4.514c-.5-1-.137-2.827-1.277-1.869-1.185,1-.319,2.964-.182,3.739s-3.283.182-4.195-.547-1.824-2.234-2.189-1.094.957,3.875.866,4.468c-.091.638,2.69,4.24,4.97,4.514s5.745.866,6.292-.866A5.3,5.3,0,0,0,136.973-609.888Z" transform="translate(-99.654 652.271)" fill="#ff6161"/>
    <path id="Caminho_1596" data-name="Caminho 1596" d="M249.066-682.719s-2.645-.046-4.833,3.42,6.7,12.311,10.715,14.362c4.012,2.006,9.94-6.474,8.116-12.311S254.537-687.78,249.066-682.719Z" transform="translate(-164.282 689.447)" fill="#1d1240"/>
    <path id="Caminho_1597" data-name="Caminho 1597" d="M271.734-689.454s-.41-6.383,6.474-5.335,8.891,4.332,8.481,7.66c-.365,3.328.775,7.386,1.869,6.885s2.462-.41,2.417,1.55c-.046,2.006-.137,4.1-4.742,4.605s-9.757-4.833-11.672-7.888A30.514,30.514,0,0,1,271.734-689.454Z" transform="translate(-179.428 694.905)" fill="#1d1240"/>
    <path id="Caminho_1598" data-name="Caminho 1598" d="M248.241-660.354a5.053,5.053,0,0,1-.228-1.14c-.091-.73-.365-1.824-1.413-1.186-1.55.958-.912,4.924.958,5.015C248.97-657.619,248.56-659.442,248.241-660.354Z" transform="translate(-165.282 677.477)" fill="#ff6161"/>
    <path id="Caminho_1599" data-name="Caminho 1599" d="M267.281-652.15l2.1,11.353c.319,1.869-3.465,7.478-6.839,5.608-1-.547-.274-3.328.182-5.38l.547-10.168Z" transform="translate(-174.154 671.644)" fill="#ff6161"/>
    <path id="Caminho_1600" data-name="Caminho 1600" d="M264.04-642.379a6.621,6.621,0,0,0,4.058-5.471l-3.784.866Z" transform="translate(-175.245 669.305)" fill="#311d69"/>
    <path id="Caminho_1601" data-name="Caminho 1601" d="M258.166-671.258l1.413,4.24a6.632,6.632,0,0,1-3.83,8.389c-3.1,1.094-6.474-.182-7.66-4.149-1.049-3.511,1-7.022,1.641-8.8C251.236-675.589,256.16-676,258.166-671.258Z" transform="translate(-166.407 683.913)" fill="#ff6161"/>
    <path id="Caminho_1602" data-name="Caminho 1602" d="M271.593-660.511a11.137,11.137,0,0,0,.456-1.094c.228-.73.684-1.733,1.6-.912,1.322,1.231,0,4.97-1.869,4.742C270.362-657.912,271.137-659.644,271.593-660.511Z" transform="translate(-179.013 677.451)" fill="#ff6161"/>
    <path id="Caminho_1603" data-name="Caminho 1603" d="M255.407-646.1a8.628,8.628,0,0,1-4.833-.5,8.792,8.792,0,0,1-2.234-2.508c0,.046.046.137.046.182,1.14,3.967,4.559,5.243,7.66,4.149a6.305,6.305,0,0,0,3.967-4.468A7.934,7.934,0,0,1,255.407-646.1Z" transform="translate(-166.703 670.066)" fill="#ac253c"/>
    <path id="Caminho_1604" data-name="Caminho 1604" d="M254.04-651.386s.228,1.413,2.234,1.459a2.113,2.113,0,0,0,2.189-1.413C255.408-651.477,254.04-651.386,254.04-651.386Z" transform="translate(-169.804 671.245)" fill="#e6f1f5"/>
    <path id="Caminho_1605" data-name="Caminho 1605" d="M216.039-615.768c-.228-.046-.41-.137-.638-.182a93.986,93.986,0,0,1-2.234,23.937c-3.192,13.04-7.067,24.53-14.18,36.7-7.067,12.174-13.952,21.7-21.247,20.7-7.3-.958-25.579-20.29-29.454-27.22s-7.66-15.639-12.539-21.475a54.345,54.345,0,0,1-5.107-7.386c3.055,23.527,19.332,60.322,45.367,64.334C210.431-521.067,233.183-610.251,216.039-615.768Z" transform="translate(-102.668 651.95)" fill="#ffe1e1"/>
  </g>
</svg>
