<svg xmlns="http://www.w3.org/2000/svg" width="114.596" height="180.313" viewBox="0 0 114.596 180.313">
  <g id="Grupo_1286" data-name="Grupo 1286" transform="translate(0)">
    <path id="Caminho_1789" data-name="Caminho 1789" d="M247.176-584.327c-1.385,2.267-6.323,8.59-23.679,8.565s-26.45-23.276-20.958-24.309c2.519-.479,10.807,9.875,17.457,13.754,5.214,3.023,19.346-.731,24.183-2.267C247.755-589.717,248.334-586.216,247.176-584.327Z" transform="translate(-155.236 629.235)" fill="#ffe3e3"/>
    <path id="Caminho_1799" data-name="Caminho 1799" d="M429.989-15.264c-.68,1.058-7.255.655-8.338.227-.63-.252,0-.882.63-1.385-2.091.932-4.66,2.116-4.811,2.8-.2,1.134,11.739,1.814,13.779.831,1.083-.529.428-1.814-.453-3.3A2.83,2.83,0,0,0,429.989-15.264Z" transform="translate(-317.217 192.599)" fill="#2e87be"/>
    <path id="Caminho_1800" data-name="Caminho 1800" d="M345.539-15.04c-.655,1.058-7.23.806-8.338.4-.655-.227-.025-.882.6-1.385-2.066.957-4.635,2.217-4.736,2.9-.2,1.159,11.764,1.587,13.8.554,1.058-.554.378-1.839-.529-3.275A2.057,2.057,0,0,0,345.539-15.04Z" transform="translate(-254.078 192.299)" fill="#2e87be"/>
    <path id="Caminho_1801" data-name="Caminho 1801" d="M441.717-41.522c.353,3.93.529,6.474.63,6.65a2.829,2.829,0,0,0-.806.831c-.68,1.058-7.255.655-8.338.227-.63-.252,0-.882.63-1.385a6.218,6.218,0,0,0,2.62-1.26,17.257,17.257,0,0,0-1.436-3.7C437.711-40.616,440.054-41.119,441.717-41.522Z" transform="translate(-328.794 211.376)" fill="#ff6161"/>
    <path id="Caminho_1802" data-name="Caminho 1802" d="M357.8-32.355a2.649,2.649,0,0,0-.806.856c-.655,1.058-7.23.806-8.338.4-.655-.227-.025-.882.6-1.385,1.385-.63,3.124-1.134,3.2-1.285.05-.1-.831-1.637-2.192-4.257a33.251,33.251,0,0,0,6.927,1.234A34.857,34.857,0,0,0,357.8-32.355Z" transform="translate(-265.531 208.758)" fill="#ff6161"/>
    <path id="Caminho_1803" data-name="Caminho 1803" d="M294.014-501.787a1.032,1.032,0,0,1,.025-.277c.025-.479.076-.907.126-1.26a1.54,1.54,0,0,1,.126-.3c5.214-29.019,18.364-47.862,21.588-48.718a5.413,5.413,0,0,1,5.29,1.31s-2.166,45.973-.781,46c2.015.025,5.92,22.294,12.444,48.416,2.746,10.983,4.156,24.788,4.862,32.823-1.688.4-4.005.907-6.726,1.335-3.174-7.154-10.983-23.78-17.709-42.245,1.26,17.281,2.393,35.141,3.174,42.975a34.66,34.66,0,0,1-6.927-1.234c-3.2-6.2-9.043-18.339-11.688-31.413C295.6-465.613,293.46-493.1,294.014-501.787Z" transform="translate(-224.796 593.675)" fill="#4bb4d4"/>
    <path id="Caminho_1804" data-name="Caminho 1804" d="M352.263-337.523s8.262,28.616,13.754,38.29c2.62,4.61,7.633,8.388,12.142,11.084,1.688,9.195,2.67,18.943,3.224,25.191-1.688.4-4.005.907-6.726,1.335-3.174-7.154-10.983-23.78-17.709-42.245C356.949-303.843,352.087-333.593,352.263-337.523Z" transform="translate(-268.435 432.812)" fill="#2e87be"/>
    <path id="Caminho_1805" data-name="Caminho 1805" d="M293.909-371.723c.025-.479.076-.907.126-1.26a1.541,1.541,0,0,1,.126-.3c.3-1.713.655-3.4,1.008-5.038a130.353,130.353,0,0,1,3.93,20.2c1.033,11.764,5.34,30.052,7.557,35.393,1.234,3,4.761,10.857,8.162,12.217.579,8.111,1.083,14.988,1.486,19.095a34.662,34.662,0,0,1-6.927-1.234c-3.2-6.2-9.043-18.339-11.688-31.413-2.267-11.235-4.383-38.718-3.854-47.408A.739.739,0,0,0,293.909-371.723Z" transform="translate(-224.666 463.335)" fill="#2e87be"/>
    <path id="Caminho_1806" data-name="Caminho 1806" d="M394.224-239.523l-12.847,5.769s9.22,1.335,14.132-.277C395.055-235.9,394.627-237.734,394.224-239.523Z" transform="translate(-290.219 359.499)" fill="#311d69"/>
    <path id="Caminho_1807" data-name="Caminho 1807" d="M327.777-529.39l4.761-7.733,1.411,6.046A31.724,31.724,0,0,1,327.777-529.39Z" transform="translate(-250.121 582.132)" fill="#311d69"/>
    <path id="Caminho_1808" data-name="Caminho 1808" d="M292.762-545.67a2.8,2.8,0,0,0,.151-2.67,3.205,3.205,0,0,1,.63-3.9c2.771-2.7,8.716-4.03,8.716-4.03,2.519-.68,5.038.3,7.381,1.814,8.59,5.567-4.03,13.956-3.149,20.178.025.151,6.852,7.255,8.892,14.333,4.308,14.913,1.31,26.9,5.794,42.446-4.963,4.459-11.739,6.247-18.49,6.625-2.04-18.893-4.484-64.085-2.9-68.82,1.889-5.668,7.91-12.142,7.381-14.006s-1.663-1.587-1.663-1.587a13.721,13.721,0,0,0-6.549,4.635c-2.418,3.376-19.094,27.407-12.822,78.367a43.809,43.809,0,0,1-7.91-2.393A89.766,89.766,0,0,1,292.762-545.67Z" transform="translate(-211.528 596.624)" fill="#fff"/>
    <path id="Caminho_1809" data-name="Caminho 1809" d="M392.406-511.967c-2.04-7.079-8.867-14.182-8.892-14.333-.857-6,10.781-13.981,4.056-19.523-.1,2.343-.479,5.718-1.789,8.086-2.217,3.98-8.943,15.316-5.819,22.571,3.1,7.255,7.683,39.8,7.658,43.781a27.368,27.368,0,0,0,1.36,6.9,24.918,24.918,0,0,0,9.245-5.038C393.716-485.038,396.713-497.054,392.406-511.967Z" transform="translate(-288.551 588.641)" fill="#ffe3e3"/>
    <path id="Caminho_1810" data-name="Caminho 1810" d="M298.392-440.984c9.3-2.519,16.4-11.663,18.263-14.233-1.083-1.612-2.166-3.023-3.048-4.106-2.569,2.7-10.127,10.1-18.036,12.847-5.265,1.839-8.842,2.04-11.008,1.864-.5,1.839-.957,3.753-1.385,5.769A53.381,53.381,0,0,0,298.392-440.984Z" transform="translate(-216.756 523.93)" fill="#311d69" opacity="0.3" style="mix-blend-mode: multiply;isolation: isolate"/>
    <path id="Caminho_1814" data-name="Caminho 1814" d="M373.13-602.953s.529-2.192,4.685-.353c2.746,1.209,1.26,8.59,2.066,9.446,0,0-7.028,2.443-10.4-2.368C369.477-596.252,371.568-603.129,373.13-602.953Z" transform="translate(-281.316 632.193)" fill="#311d69"/>
    <path id="Caminho_1815" data-name="Caminho 1815" d="M386.975-569.923l-.05,5.441c-.025.882-2.267,3.149-3.653,1.965-.4-.353.176-1.562.579-2.469l1.159-4.635Z" transform="translate(-291.534 606.67)" fill="#ff6161"/>
    <path id="Caminho_1816" data-name="Caminho 1816" d="M387.777-564.257a3.135,3.135,0,0,0,2.368-2.166l-1.839.076Z" transform="translate(-295.006 604.051)" fill="#311d69"/>
    <path id="Caminho_1817" data-name="Caminho 1817" d="M382.23-588.861l.277,2.091a3.117,3.117,0,0,1-2.519,3.527,2.672,2.672,0,0,1-3.149-2.595c-.151-1.713,1.083-3.149,1.537-3.93C379.409-591.506,381.726-591.254,382.23-588.861Z" transform="translate(-286.814 622.358)" fill="#ff6161"/>
    <path id="Caminho_1818" data-name="Caminho 1818" d="M397.249-578.346a2.091,2.091,0,0,0,.151-.529c.076-.353.252-.856.705-.5.68.5.227,2.343-.655,2.318C396.8-577.061,397.072-577.918,397.249-578.346Z" transform="translate(-301.934 613.833)" fill="#ff6161"/>
    <path id="Caminho_1819" data-name="Caminho 1819" d="M377.107-581.621a2.042,2.042,0,0,1,0-.554c.025-.353,0-.882-.554-.68-.781.3-.857,2.192,0,2.393C377.182-580.286,377.157-581.167,377.107-581.621Z" transform="translate(-286.15 616.377)" fill="#ff6161"/>
    <path id="Caminho_1820" data-name="Caminho 1820" d="M384.067-572.321a6.171,6.171,0,0,1-1.99-.3,2.343,2.343,0,0,0,.554,1.234C383.034-571.036,383.639-571.464,384.067-572.321Z" transform="translate(-290.742 608.69)" fill="#fff"/>
    <path id="Caminho_1821" data-name="Caminho 1821" d="M379.849-569.208a4.141,4.141,0,0,1-2.166-.655,4.03,4.03,0,0,1-.806-1.36v.1a2.668,2.668,0,0,0,3.149,2.595,3.021,3.021,0,0,0,2.242-1.713A3.91,3.91,0,0,1,379.849-569.208Z" transform="translate(-286.852 607.642)" fill="#ac253c"/>
    <path id="Caminho_1822" data-name="Caminho 1822" d="M381.1-594.263s.151,1.083-3.35,1.385l-.705.378s-.705-3.552,1.411-3.879C380.594-596.707,382.382-595.447,381.1-594.263Z" transform="translate(-286.891 626.501)" fill="#311d69"/>
    <path id="Caminho_1823" data-name="Caminho 1823" d="M389.627-591.63c-.025.3,1.385,2.67,2.292,2.645s.453-3.753-1.511-3.854S389.627-591.63,389.627-591.63Z" transform="translate(-296.126 623.818)" fill="#311d69"/>
    <path id="Polígono_1" data-name="Polígono 1" d="M36.425,14.421a7,7,0,0,1,12.8,0L53.6,24.289a7,7,0,0,0,5.669,4.123l10.743,1.125A7,7,0,0,1,73.97,41.7l-8.051,7.255a7,7,0,0,0-2.161,6.656l2.254,10.6A7,7,0,0,1,55.657,73.72l-9.325-5.4a7,7,0,0,0-7.017,0l-9.325,5.4a7,7,0,0,1-10.355-7.514l2.254-10.6a7,7,0,0,0-2.161-6.656L11.678,41.7a7,7,0,0,1,3.957-12.162l10.743-1.125a7,7,0,0,0,5.669-4.123Z" transform="translate(0)" fill="#ffe47a"/>
    <path id="Caminho_1811" data-name="Caminho 1811" d="M283.364-538.466c.907,2.9,2.62,11.865-10.4,26.727-13.023,14.888-39.8,5.214-36.577-.252,1.486-2.519,16.575-1.839,24.888-4.66,6.5-2.192,13.88-17.13,16.2-22.445C279.157-543.026,282.608-540.91,283.364-538.466Z" transform="translate(-181.55 585.239)" fill="#fff"/>
    <path id="Caminho_1812" data-name="Caminho 1812" d="M238.273-496.1c5.97,4.685,24.712,8.162,34.964-3.527,7.079-8.086,9.8-14.434,10.681-18.994.378,4.358-.857,12.318-10.958,23.855-13.023,14.888-39.8,5.214-36.577-.252A3.019,3.019,0,0,1,238.273-496.1Z" transform="translate(-181.55 568.292)" fill="#ffe3e3"/>
    <path id="Caminho_1813" data-name="Caminho 1813" d="M221.476-438.09c1.033.076,3.124,1.914,3.174,1.663.076-.277-.252-.579-.831-1.083-.6-.5-.252-1.461.327-.756s1.411.831,2.292,1.411c.5.328,1.814,1.889,1.108,3.023a2.264,2.264,0,0,1-1.285.831c-1.36.252-3.653-2.091-4.534-3.224C221.2-436.931,220.921-438.141,221.476-438.09Z" transform="translate(-170.37 508.365)" fill="#ff6161"/>
  </g>
</svg>
