<svg xmlns="http://www.w3.org/2000/svg" xmlns:xlink="http://www.w3.org/1999/xlink" width="196" height="196" viewBox="0 0 196 196">
  <defs>
    <clipPath id="clip-path">
      <circle id="Elipse_204" data-name="Elipse 204" cx="98" cy="98" r="98" transform="translate(-16474 12161)" fill="#fff"/>
    </clipPath>
  </defs>
  <g id="Grupo_1291" data-name="Grupo 1291" transform="translate(16474 -12161)">
    <g id="Grupo_de_máscara_294" data-name="Grupo de máscara 294" clip-path="url(#clip-path)">
      <g id="Grupo_1277" data-name="Grupo 1277" transform="translate(-16496 12746.5)">
        <path id="Caminho_1669" data-name="Caminho 1669" d="M161.851-12.951c2.7-4.6,3.2-9.6,3.3-13.6l14.9-1s-.7,5.2,2.1,9c1.2,1.7,4.5,2.7,9,4.3,7.2,3.1,16.1,7.1,16.6,9.5.8,3.9-40.2,6.6-47.3,3.2C156.651-3.351,158.851-7.851,161.851-12.951Z" fill="#311d69"/>
        <path id="Caminho_1670" data-name="Caminho 1670" d="M61.75-12.951c2.7-4.6,3.2-9.6,3.3-13.6l14.9-1s-.7,5.2,2.1,9c1.2,1.7,4.5,2.7,9,4.3,7.2,3.1,16.1,7.1,16.6,9.5.8,3.9-40.2,6.6-47.3,3.2C56.55-3.351,58.75-7.851,61.75-12.951Z" fill="#311d69"/>
        <path id="Caminho_1671" data-name="Caminho 1671" d="M174.451-484.751s97.6,57.6,85.5,118.9c-11.7,59.4-25.9,97.3-54.5,82.3-4.6-2.4-7.6-11-6.4-17.8,3.9-22.3,15.6-56.2,13.6-70.2-1.8-12.4-52.2-63.6-52.2-63.6Z" fill="#e5f9ff"/>
        <path id="Caminho_1672" data-name="Caminho 1672" d="M210.651-192.251c-5.9-75.2-22.4-144.4-34.3-168.5-5.1-13.5-111.3,23-113.1,28.3-18.7,52.2-6.3,281.7-1.9,305.9,1.4,7.8,24.8,9.2,31.4,4.3,18.7-13.7,30.3-237.8,41.9-237.3,5.6.2,15.8,39.6,15.8,105.4,0,22-10.4,118.4,15.5,136.1,3.5,2.4,18.1,2,22.2-2.7C214.151-50.451,212.551-167.951,210.651-192.251Z" fill="#311d69"/>
        <path id="Caminho_1673" data-name="Caminho 1673" d="M185.551-466.051s19.3,55.3,18.8,80.3c-8.2-10.9-20.8-24.9-30.5-35.2Z" fill="#311d69"/>
        <path id="Caminho_1674" data-name="Caminho 1674" d="M61.35-26.451c-4.4-24.1-16.8-253.7,1.9-305.9.3-.8,2.7-2.2,6.7-4a73.19,73.19,0,0,1,8.2,21.9c5.8,30.3-6.6,69.9-6.9,112.5-.3,36.7,16.7,147.3,12.3,182.5C74.15-18.751,62.25-21.051,61.35-26.451Z" fill="#1d1240"/>
        <path id="Caminho_1675" data-name="Caminho 1675" d="M63.451-462.051c6-16,21-24.5,42.9-28.5,32.9-6,59.4.4,68.2,5.9,30.1,18.7-5.7,110.6,19.3,156.9.4,1-8.3,17.3-63.3,20.3-54.4,3-71.8-8.5-71.5-9.6C72.55-366.351,52.75-433.551,63.451-462.051Z" fill="#fff"/>
        <path id="Caminho_1676" data-name="Caminho 1676" d="M137.751-518.051s3.6-5.5.3-9.7c-3.2-4.2-11.7-8-16.3-3.6s-3.1,8.5-3.1,8.5a7.916,7.916,0,0,0-3.4,6.5c.1,4.4,3.9,13.6,3.9,13.6S137.051-510.551,137.751-518.051Z" fill="#1d1240"/>
        <path id="Caminho_1677" data-name="Caminho 1677" d="M120.951-509.851l-5.2,21.6c.2,3,16.9,9.7,21.2,5.6,1.3-1.2.6-4-.9-7l-9.1-16Z" fill="#e7738e"/>
        <path id="Caminho_1678" data-name="Caminho 1678" d="M128.751-502.451c-3.3-.3-7.8-.7-7.8-.7a13.97,13.97,0,0,0,5.6,8.7,12.955,12.955,0,0,0,8.2,2.5Z" fill="#311d69"/>
        <path id="Caminho_1679" data-name="Caminho 1679" d="M124.551-517.151l-3.6,11.8a7.493,7.493,0,0,0,5.6,8.9c3.2.8,5.2.7,9.2.1,3.3-.5,5-3.7,4.9-8.1a39.308,39.308,0,0,0-3-13.6C135.251-524.251,127.451-524.651,124.551-517.151Z" fill="#e7738e"/>
        <path id="Caminho_1680" data-name="Caminho 1680" d="M121.051-505.351l3.6-11.8a13.574,13.574,0,0,1,1.3-2.4c-.1,2.4,0,7.4.6,8.3,1.7,2.2,1.5.1,5.5-.1a24.987,24.987,0,0,1,8.2,1.7,43.5,43.5,0,0,1,.6,5.2c.1,4.4-1.5,7.7-4.9,8.1a21.68,21.68,0,0,1-9.2-.1A7.432,7.432,0,0,1,121.051-505.351Z" fill="#311d69"/>
        <path id="Caminho_1681" data-name="Caminho 1681" d="M131.851-508.751a20.345,20.345,0,0,0,6.7,0s.2,2.6-1.4,3.5C135.65-504.351,132.851-505.751,131.851-508.751Z" transform="translate(0 0)" fill="#fff"/>
        <path id="Caminho_1682" data-name="Caminho 1682" d="M136.751-500.651c-3.8-.7-6.5,5.1-13.3-.1-1.3-1-2-3.4-2.4-4.8l-.1.3a7.493,7.493,0,0,0,5.6,8.9c3.2.8,5.2.7,9.2.1a5.309,5.309,0,0,0,4.2-3.6C139.351-499.751,137.851-500.451,136.751-500.651Z" fill="#1d1240"/>
        <path id="Caminho_1683" data-name="Caminho 1683" d="M125.051-512.351a16.007,16.007,0,0,1-.3-2.3c0-1.5-.4-3.6-2.6-2.5-3.1,1.6-3,8.7.6,9.2C125.551-507.551,125.451-510.551,125.051-512.351Z" fill="#e7738e"/>
        <path id="Caminho_1684" data-name="Caminho 1684" d="M90.15-449.351s-6.8,67.5-26.3,84.4c-.2-16.1-1.6-32.3-2.7-47.1Z" fill="#311d69"/>
        <path id="Caminho_1685" data-name="Caminho 1685" d="M29.75-247.251s8.9,4.4,9.3,11.4,6.1,12.5,4.7,15-6.1-5.4-7.7-6.2c-1.7-.8-4.8,7.7-4.7,15.8s-4.7-.4-4.7-.4-1.1,5.3-4.4,2c-3.4-3.3-4.5-8.8-4.5-8.8s-1.9,2.4-2.3-3.2S17.851-248.551,29.75-247.251Z" fill="#ff6161"/>
        <path id="Caminho_1686" data-name="Caminho 1686" d="M2.151-355.751c2.3-37.2,52.5-138.2,84-119.7,24.5,14.5-27.2,75.2-34.4,111.3-5.6,28.3-4.2,113.3-14.4,121.7-4.2,3.4-9.2,2.7-14.8,1.7C-6.049-245.551-.25-315.051,2.151-355.751Z" fill="#fff"/>
        <path id="Caminho_1687" data-name="Caminho 1687" d="M214.351-303.151s-11.8-12.8-16.3-11.2c-4.6,1.6-15.7,4.2-14.5,5.9,1.3,1.7,9.3-1,9.3-1s-10.4,4.9-10.4,6.3c0,1.3,1.9,1.3,1.9,1.3a3.508,3.508,0,0,0,0,2.8c.6,1.2,10-1,10-1s10.6,16.9,20.7,10.3C220.851-293.551,214.351-303.151,214.351-303.151Z" fill="#ff6161"/>
        <path id="Caminho_1688" data-name="Caminho 1688" d="M2.151-355.751c1.9-31.6,38.6-109.6,68.9-120.6-2.7,8.5-9.6,27.6-24.8,55.6-21.1,39-29.5,91.6-27.5,121.5,1.4,21.6,14.4,43.6,17.2,57.7-3.9,2.3-8.4,1.6-13.4.8C-6.049-245.551-.25-315.051,2.151-355.751Z" fill="#e5f9ff"/>
        <path id="Caminho_1689" data-name="Caminho 1689" d="M146.151-308.851c40.9-4.9,47.9-18,47.5-19-25-46.3,10.9-138.1-19.3-156.9-5-3.1-15.6-6.5-29.9-7.8,4.2,13.4,10.1,39.9,8.8,78.8C151.851-373.951,148.351-331.951,146.151-308.851Z" fill="#e5f9ff"/>
        <path id="Caminho_1690" data-name="Caminho 1690" d="M129.551-480.651c-.2-2,4-4.9,7.4-1.9,0,0,1.3,4.1-.7,5.6,1.5,4.9,5.5,19.1,7.3,41.3,2.3,28,6.9,69.5,6.9,69.5l-10.1,7.5-9.5-7.5s1.3-94.5,1.6-110.4A5.149,5.149,0,0,1,129.551-480.651Z" fill="#1d1240"/>
        <path id="Caminho_1691" data-name="Caminho 1691" d="M133.251-485.551a13.405,13.405,0,0,0,1.9-2.3,10.431,10.431,0,0,0,0-3.1s3.4,2.8,3.9,5.6c.3,1.7.3,6.2-.8,6.8s-2.6-2.7-4.2-2.7c0,0-4,6.2-6.7,5.4s-12.3-8.5-13.5-10.8c-1.3-2.3,4.2-10.8,4.2-10.8S120.851-485.751,133.251-485.551Z" fill="#fcc"/>
        <path id="Caminho_1692" data-name="Caminho 1692" d="M165.951-18.051c-26-17.6-15.5-114.1-15.5-136.1,0-65.7-10.2-105.2-15.8-105.4,0,0,19.1-12.6,25.7,23.7s10.2,118.4,13.5,153.2c2.1,21.9,1.5,48.9.8,65.9C170.951-16.551,167.451-17.051,165.951-18.051Z" fill="#1d1240"/>
      </g>
    </g>
    <path id="Polígono_2" data-name="Polígono 2" d="M15.565,2.465a1,1,0,0,1,1.87,0l3.443,9.077a1,1,0,0,0,.58.58l9.077,3.443a1,1,0,0,1,0,1.87l-9.077,3.443a1,1,0,0,0-.58.58l-3.443,9.077a1,1,0,0,1-1.87,0l-3.443-9.077a1,1,0,0,0-.58-.58L2.465,17.435a1,1,0,0,1,0-1.87l9.077-3.443a1,1,0,0,0,.58-.58Z" transform="translate(-16343 12202.479)" fill="#ffd561"/>
    <path id="Polígono_3" data-name="Polígono 3" d="M6.565,2.465a1,1,0,0,1,1.87,0L9.4,5.017a1,1,0,0,0,.58.58l2.552.968a1,1,0,0,1,0,1.87L9.983,9.4a1,1,0,0,0-.58.58l-.968,2.552a1,1,0,0,1-1.87,0L5.6,9.983a1,1,0,0,0-.58-.58L2.465,8.435a1,1,0,0,1,0-1.87L5.017,5.6a1,1,0,0,0,.58-.58Z" transform="translate(-16350 12195.479)" fill="#ffd561"/>
  </g>
</svg>
