<svg xmlns="http://www.w3.org/2000/svg" width="302.107" height="399.993" viewBox="0 0 302.107 399.993">
  <g id="Grupo_1208" data-name="Grupo 1208" transform="translate(0 539)">
    <path id="Caminho_589" data-name="Caminho 589" d="M199.955-524.832c16.7,39.257-58.032,70.426-68.57,66.27-5.937-2.3-14.174-29.758-9.944-33.32,13.58-11.28,44.9-14.842,43.19-18.924-2.152-4.972-53.431,4.378-51.65-14.026S191.717-544.2,199.955-524.832Z" transform="translate(-29.126 0)" fill="#63cbeb"/>
    <path id="Caminho_590" data-name="Caminho 590" d="M136.4-39.309s-1.187,12.1.668,15.287a6.014,6.014,0,0,1-4.6,2.152A64.422,64.422,0,0,1,120-22.983c1.113-4.749,1.113-13.284,1.262-15.955Z" transform="translate(-30.947 -128.869)" fill="#fff"/>
    <path id="Caminho_591" data-name="Caminho 591" d="M133.135-5.506a137.717,137.717,0,0,0,22.04-1.187A5.788,5.788,0,0,1,155.4-5.06c.148,2.968-29.907,4.378-35.176,1.707-1.41-.668-2.078-2.226-2.226-4.156A85.379,85.379,0,0,0,133.135-5.506Z" transform="translate(-30.431 -137.07)" fill="#fff"/>
    <path id="Caminho_592" data-name="Caminho 592" d="M133.149-8.394a92.7,92.7,0,0,1-15.065-1.929,14.1,14.1,0,0,1,.965-5.863c.148-.445.3-.965.445-1.484a64.888,64.888,0,0,0,12.467,1.113,6.014,6.014,0,0,0,4.6-2.152c.074.074.074.148.148.223.891,1.262,3.265,2.078,6.6,3.339,4.824,2.152,10.612.668,11.874,5.64A149.281,149.281,0,0,1,133.149-8.394Z" transform="translate(-30.445 -134.181)" fill="#1d1240"/>
    <path id="Caminho_593" data-name="Caminho 593" d="M144.794-467.609l-7.2,27.384c.074,0,.074.074.148.074,2.6,1.039,9.2-.148,17.365-3.043C150.509-455.439,144.794-467.609,144.794-467.609Z" transform="translate(-35.486 -18.411)" fill="#e296b5"/>
    <path id="Caminho_594" data-name="Caminho 594" d="M27.5-39.309s-1.187,12.1.668,15.287a6.014,6.014,0,0,1-4.6,2.152A64.422,64.422,0,0,1,11.1-22.983c1.113-4.749,1.113-13.284,1.262-15.955Z" transform="translate(-2.862 -128.869)" fill="#fff"/>
    <path id="Caminho_595" data-name="Caminho 595" d="M24.235-5.506a137.717,137.717,0,0,0,22.04-1.187A5.787,5.787,0,0,1,46.5-5.06c.148,2.968-29.907,4.378-35.176,1.707C9.913-4.022,9.245-5.58,9.1-7.509A86.356,86.356,0,0,0,24.235-5.506Z" transform="translate(-2.346 -137.07)" fill="#fff"/>
    <path id="Caminho_596" data-name="Caminho 596" d="M24.25-8.394A92.7,92.7,0,0,1,9.185-10.324a14.1,14.1,0,0,1,.965-5.863c.148-.445.3-.965.445-1.484a64.888,64.888,0,0,0,12.467,1.113,6.014,6.014,0,0,0,4.6-2.152c.074.074.074.148.148.223.891,1.262,3.265,2.078,6.6,3.339C39.24-13,45.029-14.479,46.29-9.507A148.671,148.671,0,0,1,24.25-8.394Z" transform="translate(-2.36 -134.181)" fill="#1d1240"/>
    <path id="Caminho_597" data-name="Caminho 597" d="M21.452-263.489s-5.714-36.957,2.449-49.35c5.863-8.831,36.066-5.046,50.018,4.6l33.1-3.117s13.432,46.085,15.362,81.78-3.488,129.2-12.319,131.129c-8.905,1.929-21,3.265-27.9-2.375-3.339-2.672,2.746-95.954,2-113.245-.223-5.269-4.675-33.1-11.057-52.541-10.686,55.212-29.313,163.93-31.391,166.9-2.82,4.082-25.974,4.3-31.614,1.262C4.458-101.414,21.452-263.489,21.452-263.489Z" transform="translate(-2.308 -57.043)" fill="#614bd4"/>
    <path id="Caminho_598" data-name="Caminho 598" d="M135.164-96.1c8.905-1.929,14.248-95.434,12.319-131.129s-15.362-81.78-15.362-81.78l-17.068,1.558c.891,25.454,3.043,61.817,8.089,81.038,8.237,31.539-2.152,96.028-4.378,103.746-1.187,4.3-7.347,10.835-12.467,15.733.074,4.9.371,7.94.965,8.386C114.162-92.909,126.259-94.171,135.164-96.1Z" transform="translate(-27.413 -59.314)" fill="#311d69"/>
    <path id="Caminho_599" data-name="Caminho 599" d="M27.194-464.064c8.163-11.354,21.15-18.924,42.522-19.443,21.595-.519,35.621-.891,40.222,4.378,9.5,10.909,1.484,83.19,2.3,97.29,1.855,31.243,5.566,36.289-26.864,40.074-27.532,3.191-63.895,29.833-67.309,15.213C13.242-347.034,9.161-438.98,27.194-464.064Z" transform="translate(-3.598 -14.239)" fill="#63cbeb"/>
    <path id="Caminho_600" data-name="Caminho 600" d="M135.327-381.746c-.816-14.1,7.2-86.455-2.3-97.29-3.562-4.007-12.542-4.749-26.2-4.675,1.558,15.881,5.343,56.029,3.636,69.758-1.929,15.287-7.5,57.068-7.273,73.171,1.781-.371,3.562-.668,5.269-.891C140.818-345.457,137.182-350.577,135.327-381.746Z" transform="translate(-26.612 -14.258)" fill="#63cbeb"/>
    <path id="Caminho_601" data-name="Caminho 601" d="M104.048-508.99s6.234-.742,1.781-5.937c-4.23-5.046-20.111,3.859-20.333,9.8-.148,5.937,7.5,7.941,9.87,6.456C97.888-500.233,104.048-508.99,104.048-508.99Z" transform="translate(-22.049 -5.824)" fill="#311d69"/>
    <path id="Caminho_602" data-name="Caminho 602" d="M86.175-498.909,79.5-479.985c-.074,2.746,14.694,10.686,19.072,7.273,1.262-.965.965-3.636-.148-6.53l-6.9-15.733Z" transform="translate(-20.502 -10.339)" fill="#e7738e"/>
    <path id="Caminho_603" data-name="Caminho 603" d="M95.095-489.825c-3.043-.594-7.2-1.484-7.2-1.484a13.114,13.114,0,0,0,4.378,8.608,12.516,12.516,0,0,0,7.272,3.191Z" transform="translate(-22.668 -12.299)" fill="#311d69"/>
    <path id="Caminho_604" data-name="Caminho 604" d="M101.909-467.691a3.876,3.876,0,0,0,3.933-3.117c.668-4.453,1.262-12.171-3.043-13.135-6.085-1.41-16.771-2.226-23.45-5.046-6.753-2.82-6.753,6.456-6.753,12.616s2.523,7.718,16.475,8.757A101.169,101.169,0,0,0,101.909-467.691Z" transform="translate(-18.722 -12.763)" fill="#4bb4d4"/>
    <path id="Caminho_605" data-name="Caminho 605" d="M108.254-465.755s2.449,42.3,1.262,53.06l-15.584-2s-1.855-48.237.223-50.611C96.232-467.61,108.254-465.755,108.254-465.755Z" transform="translate(-24.028 -18.707)" fill="#2e87be"/>
    <path id="Caminho_606" data-name="Caminho 606" d="M108.312-465.749s.148,2,.3,5.195L93.4-457.066c.148-4.453.371-7.644.891-8.163C96.291-467.6,108.312-465.749,108.312-465.749Z" transform="translate(-24.087 -18.713)" fill="#1d1240"/>
    <path id="Caminho_607" data-name="Caminho 607" d="M89.071-467.5c-13.877-1.113-16.475-2.6-16.475-8.757,0-5.937.074-14.619,6.011-12.838.074.965.148,2.152.3,3.414.371,3.488.668,8.163,7.644,9.87,5.492,1.336,15.807.891,19.814.668a36.063,36.063,0,0,1-.445,4.453,3.875,3.875,0,0,1-3.933,3.117C99.015-467.57,94.34-467.125,89.071-467.5Z" transform="translate(-18.722 -12.81)" fill="#2e87be"/>
    <path id="Caminho_608" data-name="Caminho 608" d="M92.725-509.889l-4.453,10.612a7.022,7.022,0,0,0,4.3,8.831c2.894,1.039,4.749,1.187,8.534,1.039,3.117-.148,4.972-2.968,5.343-7.05a37.724,37.724,0,0,0-1.41-12.913C103.262-515.455,96.138-516.568,92.725-509.889Z" transform="translate(-22.673 -6.335)" fill="#e7738e"/>
    <path id="Caminho_609" data-name="Caminho 609" d="M92.272-503.189c-.3-.668-.519-1.336-.742-2-.371-1.336-1.187-3.191-2.894-1.707-2.449,2.152-.223,9.054,3.191,8.683C94.35-498.44,93.089-501.631,92.272-503.189Z" transform="translate(-22.592 -8.137)" fill="#e7738e"/>
    <path id="Caminho_610" data-name="Caminho 610" d="M103-492.8a47.1,47.1,0,0,1,6.234,0C109.23-492.879,106.929-495.328,103-492.8Z" transform="translate(-26.562 -11.62)" fill="#fff"/>
    <path id="Caminho_611" data-name="Caminho 611" d="M102.372-488.224c-3.414-.965-6.53,4.082-12.319-1.41-1.113-1.039-1.484-3.339-1.707-4.675l-.074.223a7.022,7.022,0,0,0,4.3,8.831c2.894,1.039,4.749,1.187,8.534,1.039a4.837,4.837,0,0,0,4.23-2.968C104.672-487.111,103.411-487.927,102.372-488.224Z" transform="translate(-22.673 -11.526)" fill="#ac253c"/>
    <path id="Caminho_612" data-name="Caminho 612" d="M84.127-519.132c-2.078,1.93-7.124,7.347-2,11.28s14.026-5.269,17.736-4.972,6.456.445,8.089-2.078-3.043-9.425-11.5-8.534C88.061-522.546,86.205-521.136,84.127-519.132Z" transform="translate(-20.606 -3.993)" fill="#ac253c"/>
    <path id="Caminho_613" data-name="Caminho 613" d="M91.5-523.651l.445,2.375c.148.742,2.152,1.039,4.527.594s4.156-1.41,4.007-2.152l-.445-2.375Z" transform="translate(-23.597 -3.557)" fill="#ffb8b8"/>
    <path id="Caminho_614" data-name="Caminho 614" d="M100.027-525.577c.148.742-1.633,1.707-4.007,2.152s-4.378.223-4.527-.594c-.148-.742,1.633-1.707,4.007-2.152C97.875-526.541,99.953-526.319,100.027-525.577Z" transform="translate(-23.594 -3.263)" fill="#fcc"/>
    <path id="Caminho_615" data-name="Caminho 615" d="M107.967-513.9c.891-1.336-.074-3.933-2.449-6.011-.3,1.113.148,4.082-.519,4.6-.965.668-2.226-.519-3.562-1.039-1.41-.52-2,1.484-2.3,2.375s-2.523.668-4.007.742-3.265,1.929-5.046,2.523c-1.855.594-1.187-.148-2.078-1.187-.816-1.039-1.929,2.152-4.378,1.781a6.4,6.4,0,0,1-3.488-2.152,4.809,4.809,0,0,0,2,5.269c5.046,4.007,14.026-5.269,17.736-4.972C103.514-511.6,106.26-511.449,107.967-513.9Z" transform="translate(-20.624 -4.923)" fill="#812b3f"/>
    <path id="Caminho_616" data-name="Caminho 616" d="M57.587-434.609s2.226,22.708-1.41,61.3S40.3-297.839,40.3-297.839,49.5-425.63,57.587-434.609Z" transform="translate(-10.392 -26.922)" fill="#311d69"/>
    <path id="Caminho_617" data-name="Caminho 617" d="M117.433-518.824a7.623,7.623,0,0,0-1.113-4.9c-1.113-1.781-2.894-4.23-4.3-4.749-2.152-.816-7.644-.445-7.05.223.594.742,3.859,1.039,3.859,1.039s-3.785,1.039-4.972,2.078.445,3.191,1.707,3.785,7.866,5.12,10.241,4.824C116.84-516.672,117.285-517.711,117.433-518.824Z" transform="translate(-26.677 -2.595)" fill="#e7738e"/>
    <path id="Caminho_618" data-name="Caminho 618" d="M40.442-463.523c-8.979-5.269-24.267,6.976-30.426,35.769C3.93-398.96-6.459-277.107,5.489-275.474s20.037-1.633,23.9-27.458C33.318-328.832,59.514-452.318,40.442-463.523Z" transform="translate(0 -19.158)" fill="#63cbeb"/>
    <path id="Caminho_619" data-name="Caminho 619" d="M43.923-463.521a9.464,9.464,0,0,0-7.94-.594c-.519,15.955-2.226,62.782-5.64,76.288C26.335-371.872,13.571-291.5,13.5-275.176,23-275.1,29.526-280.519,32.939-303,36.8-328.83,62.995-452.316,43.923-463.521Z" transform="translate(-3.481 -19.16)" fill="#4bb4d4"/>
    <path id="Caminho_620" data-name="Caminho 620" d="M8.843-219.635c-3.933,4.6-5.046,18.478-1.336,23.822s4.972,7.5,5.64,5.046-1.558-6.827-1.336-10.018c.3-3.191,2.078-2.82,2.523-1.929.445.965.742,5.195,2.6,5.121,1.781-.074.891-.668,1.633-4.824s1.633-13.284-1.929-16.4C13-222.01,10.475-221.565,8.843-219.635Z" transform="translate(-1.35 -81.973)" fill="#e7738e"/>
    <path id="Caminho_621" data-name="Caminho 621" d="M293.715-464.309s-60.7,30.723-49.869,58.181c10.909,27.606,35.176,8.683,44.007-7.421C296.609-429.579,293.715-464.309,293.715-464.309Z" transform="translate(-62.553 -19.262)" fill="#d3d3d3"/>
    <path id="Caminho_622" data-name="Caminho 622" d="M282.872-19.043c3.414-1.707,7.644-3.117,7.866-3.488.445-.891-.742-6.679-.742-6.679h10.464a21.489,21.489,0,0,0,3.711,9.722c2.375,3.562,4.23,6.679,1.633,8.163-4.972,2.82-34.879,2.894-34.508,0C271.517-13.106,277.751-16.445,282.872-19.043Z" transform="translate(-69.965 -131.473)" fill="#614bd4"/>
    <path id="Caminho_623" data-name="Caminho 623" d="M377.67-19.488a19.448,19.448,0,0,1-3.043-9.722H363.793a10.022,10.022,0,0,1-1.113,6.6c-.816,1.262-3.117,2.226-6.308,3.562-5.046,2.6-11.354,5.937-11.577,7.718-.371,2.894,29.536,2.82,34.508,0C381.9-12.809,380.119-15.926,377.67-19.488Z" transform="translate(-88.921 -131.473)" fill="#614bd4"/>
    <path id="Caminho_624" data-name="Caminho 624" d="M332.8-507.845s1.336-11.577,10.983-13.655,12.616,8.683,11.206,14.99,1.039,7.866,1.039,7.866,6.9-3.933,10.464,2.449c4.007,7.2-5.343,15.213-16.029,14.619-10.612-.519-17.068-15.733-17.217-19.443C333.093-504.654,332.8-507.845,332.8-507.845Z" transform="translate(-85.827 -4.445)" fill="#311d69"/>
    <path id="Caminho_625" data-name="Caminho 625" d="M366.487-492.905c-3.562-6.308-10.464-2.449-10.464-2.449s-2.449-1.558-1.039-7.866a16.6,16.6,0,0,0,.148-5.788,12.776,12.776,0,0,1-4.9,6.6c-4.972,3.636-13.952,2.672-17.439-1.93.074.742.3,3.488.445,6.6.148,3.711,6.6,18.849,17.217,19.443C361.144-477.767,370.569-485.781,366.487-492.905Z" transform="translate(-85.827 -7.734)" fill="#29204e"/>
    <path id="Caminho_626" data-name="Caminho 626" d="M261.426-332.034c.742-16.029,11.132-21.447,16.475-37.328.668-2,5.492-16.1,6.159-18.033,9.87-30.575,32.5-22.857,35.621-7.421,1.484,7.273,15.362,8.534,22.263,16.846,10.835,12.764,16.029,28.571,16.772,45.194.519,12.393,11.948,181.592,4.453,205.711-1.633,5.343-22.337,1.187-22.337,1.187-5.64.445-11.354-3.488-11.577-9.2-1.781-44.971-20.927-172.168-20.927-172.168-8.312,18.182-.965,135.062,2.523,174.023.668,7.421-5.566,7.5-12.838,8.757-17.514,3.117-15.955-2.746-16.326-4.527C277.456-149.922,254.3-268.955,261.426-332.034Z" transform="translate(-67.073 -33.692)" fill="#1d1240"/>
    <path id="Caminho_627" data-name="Caminho 627" d="M254.911-283.167c-16.029-44.6,11.725-109.386,24.786-145.3,5.492-15.213,8.46-26.567,11.206-31.391,8.163-14.619,17.662-12.17,31.688-5.64,17.068,7.94,6.6,58.923,14.248,66.567,35.1,35.25,19.814,91.8,29.239,113.245a5.759,5.759,0,0,1-2.226,7.273c-12.913,7.792-36.511,3.636-52.17-8.089-4.9-3.636-6.827-67.457-13.506-67.086-9.647.519-4.675,71.39-10.612,73.394C269.456-274.039,255.876-280.421,254.911-283.167Z" transform="translate(-64.49 -17.625)" fill="#e4e4e4"/>
    <path id="Caminho_628" data-name="Caminho 628" d="M319.37-467.1s4.007-4.378,7.866-.965-2.523,13.506-4.749,23.673S306.977-399.64,301.93-393.7,306.828-451.067,319.37-467.1Z" transform="translate(-77.521 -17.959)" fill="#2e87be"/>
    <path id="Caminho_629" data-name="Caminho 629" d="M312.036-462.631a.942.942,0,0,0,.445.074.742.742,0,0,0,.594-.965c0-.148-3.043-14.545-.742-19.963,2.375-5.417,5.788-7.644,5.863-7.644a.756.756,0,0,0,.223-1.113.756.756,0,0,0-1.113-.223c-.148.074-3.933,2.449-6.456,8.386s.519,20.408.594,20.927A1.32,1.32,0,0,0,312.036-462.631Z" transform="translate(-79.909 -11.961)" fill="#29204e"/>
    <path id="Caminho_630" data-name="Caminho 630" d="M318.809-497.576s-1.41-5.788,2.449-9.573,8.386-5.046,13.358-2.6,7.2,20.408-3.265,22.263S318.809-497.576,318.809-497.576Z" transform="translate(-82.155 -7.22)" fill="#311d69"/>
    <path id="Caminho_631" data-name="Caminho 631" d="M332.448-484.909l1.039,12.838c.148,2.078-4.675,7.866-8.237,5.417-1.039-.742.074-3.711.816-5.937l1.781-11.206Z" transform="translate(-83.772 -13.95)" fill="#ff6161"/>
    <path id="Caminho_632" data-name="Caminho 632" d="M327.6-476.366c2.672-1.039,5.195-5.343,5.195-5.343l-4.378.3Z" transform="translate(-84.486 -14.775)" fill="#29204e"/>
    <path id="Caminho_633" data-name="Caminho 633" d="M320.887-498.376a5.454,5.454,0,0,1,1.187-1.633c1.039,1.558,2.746,3.859,4.378,4.675a8.244,8.244,0,0,0,4.378.891l.52,2.226a7.3,7.3,0,0,1-5.195,8.831c-3.562.891-7.2-.965-8.015-5.492C317.325-492.811,319.923-496.447,320.887-498.376Z" transform="translate(-82.007 -10.056)" fill="#ff6161"/>
    <path id="Caminho_634" data-name="Caminho 634" d="M334.491-490.59a3.771,3.771,0,0,0,.223-1.262c.074-.816.371-2.078,1.558-1.336,1.707,1.039,1.039,5.492-1.039,5.64C333.749-487.473,334.194-489.551,334.491-490.59Z" transform="translate(-86.187 -11.757)" fill="#ff6161"/>
    <path id="Caminho_635" data-name="Caminho 635" d="M319.837-492.242a8.18,8.18,0,0,1-.148-1.336c0-.816-.223-2.078-1.41-1.484-1.781.891-1.558,5.343.519,5.714C320.282-489.051,320.06-491.129,319.837-492.242Z" transform="translate(-81.774 -11.292)" fill="#ff6161"/>
    <path id="Caminho_636" data-name="Caminho 636" d="M325.516-486.061a50.55,50.55,0,0,1-5.12-.148,2.753,2.753,0,0,0,2.226,1.187A3.933,3.933,0,0,0,325.516-486.061Z" transform="translate(-82.629 -13.615)" fill="#fff"/>
    <path id="Caminho_637" data-name="Caminho 637" d="M325.491-481.053a9.658,9.658,0,0,1-5.269-1.113A9.692,9.692,0,0,1,318-485.209v.223c.816,4.527,4.453,6.382,8.015,5.492a7,7,0,0,0,4.9-4.527A8.676,8.676,0,0,1,325.491-481.053Z" transform="translate(-82.01 -13.872)" fill="#ac253c"/>
    <path id="Caminho_638" data-name="Caminho 638" d="M331.1-325.073l22.634-3.636s4.156,21.818-8.46,23.005C334.287-304.591,332.209-317.058,331.1-325.073Z" transform="translate(-85.389 -54.233)" fill="#d3d3d3"/>
    <path id="Caminho_639" data-name="Caminho 639" d="M359.981-397.945c-7.644-7.644,2.82-58.626-14.248-66.567-2.078-.965-4.007-1.855-5.937-2.6,2,6.753,5.566,21.3,4.378,34.582-1.707,18.107,19.666,79.85,18.7,97.661-.742,13.655-8.163,42.671-7.2,59.368,11.577,3.117,23.45,2.82,31.317-1.929a5.7,5.7,0,0,0,2.226-7.273C379.8-306.221,395.083-362.7,359.981-397.945Z" transform="translate(-87.632 -18.54)" fill="#d3d3d3"/>
    <path id="Caminho_640" data-name="Caminho 640" d="M314.647-460.978h.074a7.266,7.266,0,0,0,5.64-.742c8.386-4.749,13.877-24.489,14.1-25.38l.148-.594-3.562-2.152a.838.838,0,0,0-1.113.3.838.838,0,0,0,.3,1.113l2.523,1.484c-.965,3.339-6.085,19.814-13.135,23.822a5.436,5.436,0,0,1-4.378.594.749.749,0,0,0-.965.52A.8.8,0,0,0,314.647-460.978Z" transform="translate(-81.036 -12.65)" fill="#29204e"/>
    <path id="Caminho_641" data-name="Caminho 641" d="M132.349-458.309c1.781,0,3.339,1.633,4.007,3.933l1.855.371v4.527l-1.929.371c-.668,2.3-2.226,3.859-4.007,3.859-2.449,0-4.378-2.968-4.378-6.6C127.97-455.341,129.9-458.309,132.349-458.309Z" transform="translate(-32.984 -20.81)" fill="#29204e"/>
    <path id="Caminho_642" data-name="Caminho 642" d="M260.291-409.441c-4.3,13.358,1.707,22.412,8.089,22.708l.668-.074s33.617-18.4,31.985-45.268S264.595-422.8,260.291-409.441Z" transform="translate(-66.753 -25.078)" fill="#d3d3d3"/>
    <path id="Caminho_643" data-name="Caminho 643" d="M311-453.641s.965-3.933,2.375-2.746,2.746,3.933,1.707,4.23S312.035-451.118,311-453.641Z" transform="translate(-80.205 -21.248)" fill="#29204e"/>
    <path id="Caminho_644" data-name="Caminho 644" d="M210.425-438.366c-36.883,0-69.906-11.206-70.351-11.354a.993.993,0,0,1-.594-1.262.993.993,0,0,1,1.262-.594c.742.3,77.7,26.345,127.419-1.781a.99.99,0,0,1,1.336.371.99.99,0,0,1-.371,1.336C251.315-441.631,230.314-438.366,210.425-438.366Z" transform="translate(-35.96 -22.052)" fill="#29204e"/>
    <path id="Caminho_645" data-name="Caminho 645" d="M142.385-442.651s-1.262-6.679-4.749-7.866-4.749-.594-5.046,1.633,2.968,10.167,5.195,11.28S143.8-439.831,142.385-442.651Z" transform="translate(-34.19 -22.665)" fill="#ff6161"/>
    <path id="Caminho_646" data-name="Caminho 646" d="M242.7-401.871c7.5-.148,24.341-.816,35.621-4.527a119.675,119.675,0,0,0,16.994-6.753l.445-1.558-50.463,3.933A27.024,27.024,0,0,0,242.7-401.871Z" transform="translate(-62.591 -32.054)" fill="#311d69"/>
    <path id="Caminho_647" data-name="Caminho 647" d="M293.771-457.056c5.343.965,7.124,5.12,6.234,9.722-2.375,12.616-29.09,31.02-102.039,30.649-27.532-.148-49.424-8.534-56.771-16.4-4.156-4.453-1.039-10.018,1.707-10.686,10.909-2.449,124.451-2,141.964-11.428C287.982-456.833,291.47-457.5,293.771-457.056Z" transform="translate(-35.893 -21.098)" fill="#e4e4e4"/>
    <path id="Caminho_648" data-name="Caminho 648" d="M141.28-431.827c7.347,7.866,29.239,16.252,56.771,16.4,72.949.371,99.664-18.033,102.039-30.649a8.78,8.78,0,0,0-.816-6.234c-11.354,6.456-31.985,18.033-38.886,20.111-9.722,2.894-56.548-1.262-73.394,1.262-13.432,2.078-37.847-1.41-47.2-2.894A17.387,17.387,0,0,0,141.28-431.827Z" transform="translate(-36.053 -22.357)" fill="#d3d3d3"/>
    <path id="Caminho_649" data-name="Caminho 649" d="M289.292-291.879c-2.449,19.443-8.757,42.968-12.1,54.916a46,46,0,0,0,17.291-2.449c5.937-2,.965-72.875,10.612-73.394C305.1-312.806,292.483-317.11,289.292-291.879Z" transform="translate(-71.488 -58.263)" fill="#d3d3d3"/>
    <path id="Caminho_650" data-name="Caminho 650" d="M126.694-490.105a1.058,1.058,0,0,0-.891.445l-16.92-4.156a.487.487,0,0,0-.594.371.487.487,0,0,0,.371.594l16.92,4.156a1.063,1.063,0,0,0,1.113.891,1.141,1.141,0,0,0,1.113-1.113A1.158,1.158,0,0,0,126.694-490.105Z" transform="translate(-27.923 -11.648)" fill="#fff"/>
    <path id="Caminho_651" data-name="Caminho 651" d="M132.864-488.109a.668.668,0,0,1,.668.668.668.668,0,0,1-.668.668.669.669,0,0,1-.668-.668A.668.668,0,0,1,132.864-488.109Z" transform="translate(-34.093 -13.125)" fill="#ff6161" fill-rule="evenodd"/>
    <path id="Caminho_652" data-name="Caminho 652" d="M132.132-487.306h0l-2.6-.668c-.148,0-.223-.148-.148-.3,0-.148.148-.223.3-.148l2.6.668c.148,0,.223.148.148.3A.563.563,0,0,1,132.132-487.306Z" transform="translate(-33.361 -13.037)" fill="#ff6161"/>
    <path id="Caminho_653" data-name="Caminho 653" d="M46.544-205.99c-2.82,27.9-6.456,49.276-12.245,67.9C30.737-126.659,18.27-111.075,9.216-100.76c-.445,11.8-.3,19.517.891,20.111,5.64,3.043,28.794,2.82,31.614-1.262,2.078-2.968,20.7-111.76,31.391-166.9C73.037-248.809,49.364-233.893,46.544-205.99Z" transform="translate(-2.317 -74.839)" fill="#311d69"/>
  </g>
</svg>
