<svg xmlns="http://www.w3.org/2000/svg" width="358.51" height="497.421" viewBox="0 0 358.51 497.421">
  <g id="Grupo_1276" data-name="Grupo 1276" transform="translate(0 631.658)">
    <path id="Caminho_1638" data-name="Caminho 1638" d="M209.684-493.872c-3.859,4.489-33.547,60.4-41.579,66.306-8.19,5.985-54.179-54.021-73.63-46.934s33.389,82.056,71.819,87.8c32.129,4.8,67.645-77.725,65.6-99.381C230.474-501.589,218.977-504.582,209.684-493.872Z" transform="translate(-19.192 -27.932)" fill="#1d1240"/>
    <path id="Caminho_1639" data-name="Caminho 1639" d="M175.526-44.558s.315,14.411-2.126,18.033a6.988,6.988,0,0,0,5.276,2.914,73.963,73.963,0,0,0,14.883-.236c-.945-5.749-.158-15.828-.079-18.978Z" transform="translate(-36.85 -124.768)" fill="#ff6161"/>
    <path id="Caminho_1640" data-name="Caminho 1640" d="M170.258-6.672a167.219,167.219,0,0,1-25.987-3.386A10.338,10.338,0,0,0,143.8-8.09c-.472,3.465,35.043,7.8,41.422,5.119,1.732-.709,2.677-2.441,2.992-4.646A109.672,109.672,0,0,1,170.258-6.672Z" transform="translate(-30.558 -132.1)" fill="#fff"/>
    <path id="Caminho_1641" data-name="Caminho 1641" d="M170.387-9.116a110.693,110.693,0,0,0,18.033-.945,16.8,16.8,0,0,0-.63-7.009c-.157-.551-.236-1.1-.394-1.811a73.963,73.963,0,0,1-14.883.236,6.988,6.988,0,0,1-5.276-2.914c-.079.079-.079.157-.158.236-1.181,1.417-4.095,2.2-8.111,3.307-5.906,2.126-12.6-.157-14.568,5.591A177.588,177.588,0,0,0,170.387-9.116Z" transform="translate(-30.687 -129.656)" fill="#1d1240"/>
    <path id="Caminho_1642" data-name="Caminho 1642" d="M406.134-198.231s13.072-5.985,17.4-5.2a7.258,7.258,0,0,0,.63-5.985,77.55,77.55,0,0,0-6.064-13.545c-4.882,3.15-14.411,6.457-17.4,7.639Z" transform="translate(-85.155 -86.855)" fill="#ff6161"/>
    <path id="Caminho_1643" data-name="Caminho 1643" d="M440.554-212.511a184.336,184.336,0,0,1,7.245,25.2,9.677,9.677,0,0,0,1.969-.394c3.386-1.024-6.772-35.2-11.655-40.083-1.339-1.26-3.307-1.5-5.512-.945A125.138,125.138,0,0,1,440.554-212.511Z" transform="translate(-91.934 -85.568)" fill="#fff"/>
    <path id="Caminho_1644" data-name="Caminho 1644" d="M438.45-212.415a113.8,113.8,0,0,0-8.032-16.143,17.73,17.73,0,0,0-6.221,3.307,12.3,12.3,0,0,1-1.5,1.024,74.323,74.323,0,0,1,6.064,13.545,6.877,6.877,0,0,1-.63,5.985.6.6,0,0,1,.315.079c1.732.473,3.622,2.835,6.3,6.142,4.331,4.567,4.882,11.655,10.867,11.182A151.3,151.3,0,0,0,438.45-212.415Z" transform="translate(-89.83 -85.665)" fill="#1d1240"/>
    <path id="Caminho_1645" data-name="Caminho 1645" d="M281.847-545.03s1.1-6.064,9.135-3.859,5.2,12.364,11.5,17.955c6.615,5.827,1.811,10.237-6.3,13.545-8.19,3.307-23.782-3.859-26.223-8.269S267.2-548.495,281.847-545.03Z" transform="translate(-57.099 -17.487)" fill="#1d1240"/>
    <path id="Caminho_1646" data-name="Caminho 1646" d="M351.53-247.894c-12.757.709-34.649,2.126-58.274,9.135-4.882-30.791-14.8-67.881-13.151-85.048.315-3.229.63-7.639.945-12.836-17.088,1.654-61.03,2.835-106.783-19.215-13.151,31.421-27.483,73.394-30.082,113.555-2.284,34.177,4.725,86.545,18.9,124.895,3.229,8.662,4.646,20.081,11.261,22.128,11.576,3.622,14.49-12.442,17.167-31.184,5.119-35.437,2.2-90.718,2.126-110.72-.158-29.294,8.741-59.849,19.687-59.061,5.591.394,14.49,104.972,64.18,107.334,12.757.63,26.932,3.544,59.849-21.026C385.549-245.925,360.429-248.445,351.53-247.894Z" transform="translate(-30.551 -58.612)" fill="#d8e7eb"/>
    <path id="Caminho_1647" data-name="Caminho 1647" d="M160.7-364.668c11.34-27.168,38.98-69.85,40.162-73,5.985-16.065,10.474-27.877,9.686-31.106-2.835-11.025,1.26-17.876,2.52-19.845a27.824,27.824,0,0,1,4.174-4.331c2.6-2.2,18.033-13.545,24.491-14.332,20.4-2.677,39.689,6.772,41.028,17.561,7.481,60.243,1.339,85.757,17.955,156.788C236.456-328.208,182.75-339,160.7-364.668Z" transform="translate(-34.151 -26.334)" fill="#311d69"/>
    <path id="Caminho_1648" data-name="Caminho 1648" d="M202.61-221.773c-.158-29.294,8.741-59.849,19.687-59.061,0,0-13.545-9.765-23.467,6.694s-12.679,98.514-12.049,126.234-1.969,38.744-.158,58.274a36.712,36.712,0,0,0,2.284,9.922c7.009-2.52,9.371-15.986,11.576-31.263C205.523-146.568,202.688-201.849,202.61-221.773Z" transform="translate(-39.522 -73.944)" fill="#b8d1d8"/>
    <path id="Caminho_1649" data-name="Caminho 1649" d="M271.217-505.881s-4.882-1.417-14.253,7.4S232-423.037,232-423.037s20.4-24.963,34.807-46.54C278.934-487.69,287.439-502.652,271.217-505.881Z" transform="translate(-49.304 -26.712)" fill="#ff8b85"/>
    <path id="Caminho_1650" data-name="Caminho 1650" d="M286.616-521.958l-5.591,10.867c-1.181,2.362-7.639,5.985-1.1,9.371,2.677,1.417,7.875.158,8.111-2.835l2.992-13.7Z" transform="translate(-58.875 -23.313)" fill="#ff6161"/>
    <path id="Caminho_1651" data-name="Caminho 1651" d="M284.42-513.958l-2.362,4.567c0,.079-.079.157-.157.236,2.047,0,4.646-.236,5.355-1.969C287.885-512.462,286.231-513.407,284.42-513.958Z" transform="translate(-59.908 -25.013)" fill="#311d69"/>
    <path id="Caminho_1652" data-name="Caminho 1652" d="M289.748-528.711a8.716,8.716,0,0,1-3.071,12.206,9.047,9.047,0,0,1-2.914.945c-4.567.63-8.9-2.126-9.371-7.954-.394-5.119,3.386-9.45,4.8-11.655,2.126-3.386,5.906-2.2,8.82,3.386C288.488-530.758,289.2-529.656,289.748-528.711Z" transform="translate(-58.307 -20.104)" fill="#ff6161"/>
    <path id="Caminho_1653" data-name="Caminho 1653" d="M281.7-520.789a16.266,16.266,0,0,0-5.119-1.969S275.641-518.978,281.7-520.789Z" transform="translate(-58.767 -23.143)" fill="#fff"/>
    <path id="Caminho_1654" data-name="Caminho 1654" d="M283.3-514.016c-1.89,0-5.2-.866-6.536-2.048-1.181-1.024-2.126-3.544-2.362-4.095v.315c.472,5.749,4.725,8.584,9.371,7.954a8.025,8.025,0,0,0,6.615-5.119A11.373,11.373,0,0,1,283.3-514.016Z" transform="translate(-58.314 -23.695)" fill="#ac253c"/>
    <path id="Caminho_1655" data-name="Caminho 1655" d="M216.344-317.153h.315a1.343,1.343,0,0,0,1.181-1.5c-3.386-33.7,11.812-83,11.891-83.473a1.268,1.268,0,0,0-.866-1.654,1.268,1.268,0,0,0-1.654.866c-.158.472-15.513,50.32-12.049,84.576A1.339,1.339,0,0,0,216.344-317.153Z" transform="translate(-45.617 -48.414)" fill="#614bd4"/>
    <path id="Caminho_1656" data-name="Caminho 1656" d="M310.7-471.261c-13.387-.787-21.183,36.224-22.128,49.769-4.567,61.66.315,97.176.315,97.176a357.36,357.36,0,0,0,38.587-.945C311.8-391.883,316.293-418.421,310.7-471.261Z" transform="translate(-60.912 -34.084)" fill="#1d1240"/>
    <path id="Caminho_1657" data-name="Caminho 1657" d="M387.456-214.583c-2.441.394-5.04.945-7.717,1.575-21.026,5.119-57.408,8.9-63.55,10.474-6.221,1.575-8.032,18.112-16.616,19.608s-20.4-1.575-31.736-13.23c-7.087-7.245-16.616-25.908-22.837-38.9,8.426,30.712,23.546,70.4,53.943,71.9,12.757.63,26.932,3.544,59.849-21.026C379.581-199.779,386.747-209.071,387.456-214.583Z" transform="translate(-52.066 -84.284)" fill="#b8d1d8"/>
    <path id="Caminho_1658" data-name="Caminho 1658" d="M322.836-181.358s12.206,5.827,9.607,8.347a19.85,19.85,0,0,1-6.379,3.7s7.087,2.126,7.166,4.8c.158,2.677-9.529-.709-9.529-.709s-.551,4.095-3.15,5.2a8.738,8.738,0,0,0-5.04,4.174c-1.654,2.52-5.749,1.575-7.639.394s-4.174-2.756-4.174-2.756,7.56-5.04,10.395-9.922C316.93-172.932,322.836-181.358,322.836-181.358Z" transform="translate(-64.541 -95.696)" fill="#fff"/>
    <path id="Caminho_1659" data-name="Caminho 1659" d="M319.743-182.758s-10.08,8.662-12.521,14.8-3.622,9.45-3.622,9.45,6.457.788,9.135,1.26c2.677.394-.473-4.567,2.362-8.426,2.756-3.78,4.331-.866,6.615-5.04C323.917-174.883,326.516-182.049,319.743-182.758Z" transform="translate(-64.52 -95.398)" fill="#ff6161"/>
    <path id="Caminho_1660" data-name="Caminho 1660" d="M175.173-191.521s-.709,7.481-1.969,9.135c-1.339,1.654-2.284-4.567-2.284-4.567s-3.622,12.364-5.434,10c-1.89-2.362-.866-12.206-3.229-12.285s-1.575,3.465-4.095,3.386c-2.6-.079-1.181-1.654-3.78-1.654-2.677,0-1.417,1.654-4.174.472s-2.126-8.426-2.126-8.426,12.915.63,17.01,1.5C169.188-192.938,175.173-191.521,175.173-191.521Z" transform="translate(-31.457 -92.699)" fill="#fff"/>
    <path id="Caminho_1661" data-name="Caminho 1661" d="M172.78-195.224a16.175,16.175,0,0,0-12.757-5.04c-8.269.394-10.552,2.2-11.576,2.52s-1.024,5.827,3.071,7.009c4.095,1.26,7.56-3.7,10.867-2.126,1.654.787,3.465,1.5,4.882,2.047a7.309,7.309,0,0,0,6.142-.315C175.3-191.916,176.323-193.255,172.78-195.224Z" transform="translate(-31.426 -91.674)" fill="#ff6161"/>
    <path id="Caminho_1662" data-name="Caminho 1662" d="M97.569-379.9Q48.785-403.406,0-426.991c48.115-36.3,43.233-102.058,65.361-150.646,9.45-20.711,21.971-39.217,40.24-54.021q40.28,27.168,80.717,54.258c-24.648,22.522-34.177,54.494-41.737,85.915C134.424-449.2,123.95-414.864,97.569-379.9Z" transform="translate(0 0)" fill="#ccd989"/>
    <path id="Caminho_1663" data-name="Caminho 1663" d="M65.461-577.715C43.333-529.128,48.215-463.373.1-427.07q48.785,23.506,97.569,47.092c26.3-34.886,36.854-69.3,47.013-111.508,7.56-31.421,17.088-63.471,41.737-85.915q-40.4-27.05-80.717-54.258C87.353-616.853,74.832-598.426,65.461-577.715Zm94.734-4.646c-4.41,4.8-1.89,17.482.079,23.782-29.373,45.832-24.57,105.05-53,151.748-5.434-.315-18.112,4.882-26.3,7.717-16.695-8.032-33.389-16.143-50.084-24.176,1.575-5.512,2.6-16.852-1.969-21.971,26.932-37.957,26.066-86.23,43.548-127.966a148.932,148.932,0,0,1,15.671-28.822c6.536-.787,21.577-3.229,27.326-10.159Q137.91-597.324,160.2-582.362Z" transform="translate(-0.021 0)" fill="#99a25b"/>
    <path id="Caminho_1664" data-name="Caminho 1664" d="M85.793-495.672c3.7-16.38,20.947-31.106,36.933-21.42,16.616,10,21.183,33.783,16.931,52.21-3.859,16.695-21.656,30.712-37.642,21.1C85.556-453.7,81.7-477.482,85.793-495.672Z" transform="translate(-17.911 -23.69)" fill="#99a25b"/>
    <path id="Caminho_1665" data-name="Caminho 1665" d="M90.559-489.258a1.791,1.791,0,0,1,2.362-1.181c1.181.472,2.284.866,2.914.236a8.8,8.8,0,0,1,5.2-3.859c2.126-.551,3.622-.472,4.331,0a1.973,1.973,0,0,0,.551.315c1.181.709,1.732,2.047,1.732,3.937a1.573,1.573,0,0,1-.158.709c0,.079,0,.079-.079.157a2.5,2.5,0,0,1-2.677,1.654,1.56,1.56,0,0,0-1.1,1.1,3.125,3.125,0,0,0,1.26,3.386c2.362,1.5,3.544,2.284,5.906,3.78,1.1.709,2.126.315,2.992-1.181a9.353,9.353,0,0,1,8.584-3.071,14.253,14.253,0,0,1,4.8,1.89c3.937,2.52,6.457,6.457,7.717,11.97a27.715,27.715,0,0,1,.236,4.8,4.265,4.265,0,0,0,1.89,2.441,3.322,3.322,0,0,1,.63,3.229,1.814,1.814,0,0,1-2.677.945,2.125,2.125,0,0,0-2.992,1.181,9.65,9.65,0,0,1-8.269,3.229q-.827-.354-1.181-.472a4.293,4.293,0,0,1-1.811-4.095c.079-.315.079-.472.158-.709a2.567,2.567,0,0,1,2.992-1.654,1.7,1.7,0,0,0,1.1-.945,3.279,3.279,0,0,1,.157-.472,2.959,2.959,0,0,0-.787-2.677c-.158-.158-.315-.236-.473-.394-2.6-1.654-3.859-2.441-6.457-4.095a1.658,1.658,0,0,0-2.362.315,9.169,9.169,0,0,1-8.269,3.229,14.3,14.3,0,0,1-5.276-1.969c-3.386-2.126-5.827-5.512-7.245-10.159a21.467,21.467,0,0,1-.787-5.749c-.079-.787-1.024-1.5-2.047-2.362A3.606,3.606,0,0,1,90.559-489.258Zm12.836,15.277c.236.157.394.236.63.394a4.853,4.853,0,0,0,5.591.079.6.6,0,0,0,.079-.315q.118-.236-.472-.709c-3.071-1.969-4.567-2.914-7.639-4.882-1.024-.63-1.575-.709-1.654-.315-.236.709.394,2.126,1.811,4.252A8.788,8.788,0,0,0,103.395-473.981Zm24.1,3.622.236-.473c.394-1.181,0-2.284-1.181-3.465a11.248,11.248,0,0,0-1.417-1.181c-1.417-.945-2.677-1.181-3.622-.551a3.253,3.253,0,0,0-.551.866,2.864,2.864,0,0,0,1.181,3.307c1.1.709,1.654,1.1,2.835,1.811A1.756,1.756,0,0,0,127.492-470.358Z" transform="translate(-19.213 -29.16)" fill="#ccd989"/>
    <path id="Caminho_1666" data-name="Caminho 1666" d="M255.084-484.881c-3.859,4.489-33.547,60.4-41.579,66.306-8.19,5.985-54.179-54.021-73.63-46.934s33.389,82.056,71.819,87.8c32.129,4.8,67.645-77.725,65.6-99.381C275.874-492.6,264.377-495.67,255.084-484.881Z" transform="translate(-28.84 -29.836)" fill="#311d69"/>
    <path id="Caminho_1667" data-name="Caminho 1667" d="M277.282-476.461c-.473-5.355-2.2-9.214-4.646-11.5-.236,3.465-1.339,10.789-5.434,23.861-6.221,19.845-21.735,51.344-33.626,62.92s-22.365,16.38-34.1,10.552-31.342-27.719-40-38.587a305.768,305.768,0,0,1-20.868-31.421,6.112,6.112,0,0,0-1.654-1.969c-9.844,14.332,38.744,80.245,74.732,85.6C243.892-372.277,279.329-454.8,277.282-476.461Z" transform="translate(-28.83 -30.538)" fill="#1d1240"/>
    <path id="Caminho_1668" data-name="Caminho 1668" d="M142.536-464.512c-.709-3.307-3.937-11.5-7.087-11.576-3.229-.079-10.789-1.181-10.395.236s5.985,1.575,5.985,1.575-7.639.63-7.954,1.417.866,1.26.866,1.26a2.725,2.725,0,0,0-.709,1.732c.157.866,6.457,1.732,6.457,1.732s1.654,14.8,9.45,12.915C143.4-456.322,143.088-462.15,142.536-464.512Z" transform="translate(-26.146 -32.958)" fill="#ff6161"/>
  </g>
</svg>
