<svg xmlns="http://www.w3.org/2000/svg" width="386.441" height="414.12" viewBox="0 0 386.441 414.12">
  <g id="Grupo_1270" data-name="Grupo 1270" transform="translate(129.346 438.996) rotate(-19)">
    <path id="Caminho_556" data-name="Caminho 556" d="M95.252-308.084s109-5.6,112.3,8.9-77,23.5-98.4,20.5S95.252-308.084,95.252-308.084Z" fill="#ac253c"/>
    <path id="Caminho_557" data-name="Caminho 557" d="M246.452-44.684s.5,15,3.3,18.6a7.484,7.484,0,0,1-5.3,3.4,79.284,79.284,0,0,1-15.4.6c.6-6-.7-16.4-1-19.7Z" fill="#fff"/>
    <path id="Caminho_558" data-name="Caminho 558" d="M247.252-12.984c10.1-.9,21.2-3.6,26.7-5,.2.6.4,1.2.6,2,.7,3.6-35.9,10.1-42.6,7.8-1.8-.6-2.9-2.4-3.4-4.7A130.379,130.379,0,0,0,247.252-12.984Z" fill="#fff"/>
    <path id="Caminho_559" data-name="Caminho 559" d="M247.252-12.984a130.379,130.379,0,0,1-18.7.1,16.475,16.475,0,0,1,.2-7.3c.1-.6.2-1.2.3-1.9a78.888,78.888,0,0,0,15.4-.6,7.2,7.2,0,0,0,5.3-3.4c.1.1.1.2.2.2,1.3,1.4,4.4,2,8.6,3,6.2,1.9,13.1-.9,15.4,4.9C268.452-16.584,257.352-13.884,247.252-12.984Z" fill="#1d1240"/>
    <path id="Caminho_560" data-name="Caminho 560" d="M108.152-259.484s68.1,6.2,104.1,22.4,41.7,72.2,44.7,83.4,16.7,84.4,9,108.5c-4.3,13.3-33.8,19.2-39.5,7.5s-27.7-122-39.2-136.8c-7.2-9.2-86.4-1.4-114.5-21.3-28.1-19.8-20.7-45.2-20.7-45.2Z" fill="#1d1240"/>
    <path id="Caminho_561" data-name="Caminho 561" d="M104.852-37.884s-4.9,14.1-3.7,18.5a7.067,7.067,0,0,1-6.1,1.2,75.382,75.382,0,0,1-14.6-4.9c2.7-5.4,5.2-15.6,6.1-18.8Z" fill="#fff"/>
    <path id="Caminho_562" data-name="Caminho 562" d="M94.152-8.084c9.8,2.8,21.1,4.3,26.7,5a8.219,8.219,0,0,1-.2,2.1c-.7,3.6-37.1-3.5-42.6-8.1-1.5-1.2-1.9-3.3-1.5-5.6A113.68,113.68,0,0,0,94.152-8.084Z" fill="#fff"/>
    <path id="Caminho_563" data-name="Caminho 563" d="M94.152-8.084a122.235,122.235,0,0,1-17.5-6.7,17.882,17.882,0,0,1,2.8-6.8c.3-.5.6-1,.9-1.6a77.67,77.67,0,0,0,14.6,4.9,7.316,7.316,0,0,0,6.1-1.2c0,.1.1.2.1.3.7,1.8,3.3,3.5,7,5.9,5.1,4,12.5,3.9,12.6,10.2A173.64,173.64,0,0,1,94.152-8.084Z" fill="#1d1240"/>
    <path id="Caminho_564" data-name="Caminho 564" d="M60.252-264.784s47.4,11.5,83.4,27.8,43.3,44.5,33.3,87.1c-2.6,11.3-33.7,87.3-41.5,111.4-4.3,13.3-47.8,13.4-53.5,1.6-5.7-11.7,44.5-128.2,36.6-137.5-7.6-8.9-73.4-6.9-101.5-26.7s-13-45-13-45Z" fill="#311d69"/>
    <path id="Caminho_565" data-name="Caminho 565" d="M2.352-243.084c-7.8-78.4,21-140.1,32.2-148.4,29.4-21.8,93.3.6,100.3,28.4,7,27.6-56.6,42.9-23.7,95.5,3.2,5.1,6.2,21.9-37.7,32.4a136.8,136.8,0,0,1-30.9,3.7C15.152-231.484,2.852-238.084,2.352-243.084Z" fill="#e6f8ff"/>
    <path id="Caminho_566" data-name="Caminho 566" d="M98.452-375.584s-12.3,53.2-13,65.5,2.7,34.9,2.7,34.9l6.6,3.3,3.7-4.9s-2.7-26.5-2.3-36.1,6.2-63.3,6.2-63.3Z" fill="#311d69"/>
    <path id="Caminho_567" data-name="Caminho 567" d="M118.952-406.984s7.6-2.9,4.6-9.4c-4.5-9.6-17.9-3.3-20.4-.4-3.6,4.3-4.7,13.4-4.7,13.4S115.252-401.684,118.952-406.984Z" fill="#311d69"/>
    <path id="Caminho_568" data-name="Caminho 568" d="M102.752-407.984l-13.2,14.1c-1.1,2.3,8.6,14.5,13.6,13.3,1.5-.4,2.2-2.8,2.3-5.7l-.1-16Z" fill="#e7738e"/>
    <path id="Caminho_569" data-name="Caminho 569" d="M105.452-399.084c-2.4-1.6-5.6-3.9-5.6-3.9a12.268,12.268,0,0,0,.6,8.9,11.668,11.668,0,0,0,5.1,5.4Z" fill="#311d69"/>
    <path id="Caminho_570" data-name="Caminho 570" d="M108.652-411.884l-7.7,7.4a6.465,6.465,0,0,0,.4,9.1,17.716,17.716,0,0,0,6.9,4c2.7,1.1,5.4-.7,7.2-4.1a37.871,37.871,0,0,0,3.6-11.6C119.752-412.784,114.052-416.384,108.652-411.884Z" fill="#e7738e"/>
    <path id="Caminho_571" data-name="Caminho 571" d="M110.352-402.684s4.7,2.4,5.6,3.1C115.952-399.484,110.852-397.184,110.352-402.684Z" fill="#fff"/>
    <path id="Caminho_572" data-name="Caminho 572" d="M110.752-394.284c-2.6-2.1-7.1,1.1-10-5.8a8,8,0,0,1,.3-4.6l-.2.2a6.465,6.465,0,0,0,.4,9.1,17.716,17.716,0,0,0,6.9,4,4.746,4.746,0,0,0,4.7-.9C112.352-392.484,111.552-393.584,110.752-394.284Z" fill="#ac253c"/>
    <path id="Caminho_573" data-name="Caminho 573" d="M106.952-408.184a14.167,14.167,0,0,1,.8-1.8c.6-1.1,1.2-2.9-.9-3-3-.1-5.9,5.3-3.4,7.2C105.252-404.284,106.452-406.584,106.952-408.184Z" fill="#e7738e"/>
    <path id="Caminho_574" data-name="Caminho 574" d="M108.152-409.584a3.819,3.819,0,0,0,1.6,5.2c.1.1.2.1.3.2a4.672,4.672,0,0,0,1.7.3h.8a3.338,3.338,0,0,0,2.5-1.2h.4l.2.2a3.573,3.573,0,0,0,0,2.5l.3.6a2.163,2.163,0,0,0,1.1,1.2c.1,0,.1.1.2.1,1.5.6,3.3-.2,4.3-2a2.318,2.318,0,0,0,.3-1.6,1.549,1.549,0,0,0-.8-1.2l-2.5-1.3a1.949,1.949,0,0,0-2.4.7c-.1-.1-.2-.1-.3-.2s-.2-.1-.4-.2a2.438,2.438,0,0,0,0-1.2,2.365,2.365,0,0,0-1.1-1.3l-3.2-1.7A2.153,2.153,0,0,0,108.152-409.584Zm8.3,4.4c.4-.7,1.1-1.1,1.6-.8h.1l2.5,1.3a.842.842,0,0,1,.4.7,1.389,1.389,0,0,1-.2,1.1c-.8,1.5-2.4,2.2-3.5,1.6a1.765,1.765,0,0,1-.8-.9l-.3-.6A2.968,2.968,0,0,1,116.452-405.184Zm-7.7-4a1.489,1.489,0,0,1,2-.6l3.2,1.7a1.6,1.6,0,0,1,.7.9,1.376,1.376,0,0,1-.1,1.1,2.8,2.8,0,0,1-2.2,1.4h-.8a2.934,2.934,0,0,1-1.6-.4A3.068,3.068,0,0,1,108.752-409.184Z" fill="#fff"/>
    <path id="Caminho_575" data-name="Caminho 575" d="M17.052-201.184c-28.1-19.8-13-45-13-45l39.6-13.1c3.7,21.3,10.4,44.1,22,47.2,21.7,5.8,59.8-7.9,66.1,15.1s-.6,71.6-10.8,92.8c-7.4,15.4-15,53.6-19.1,75.5-9.4-.8-17.6-3.6-19.8-8.3-5.7-11.7,44.5-128.2,36.6-137.5C110.952-183.284,45.152-181.384,17.052-201.184Z" fill="#1d1240"/>
    <path id="Caminho_576" data-name="Caminho 576" d="M2.352-243.084c-7.8-78.4,21-140.1,32.2-148.4,8.1-6,18.7-8.6,30-8.8-6.9,6.9-21.6,23.3-26.3,42.9-6.2,25.9-14.6,55.5-6.8,72.6,7,15.3,24,36.1,18.4,53-2.4.1-4.8.2-7.4.2C15.152-231.484,2.852-238.084,2.352-243.084Z" fill="#cadfff"/>
    <path id="Caminho_577" data-name="Caminho 577" d="M22.352-293.484c7,8.1,22.1,19.2,36.5,20.3s36.9-.9,36.9-.9,6.4.8,12.9,2.1c.8,1.4,1.6,2.9,2.6,4.4a11.2,11.2,0,0,1,1.4,8.2,158.182,158.182,0,0,1-64,2.3c-36.9-6.5-39.8-23.2-42.1-34.5-3.1-15.3,5.2-36.7,5.2-36.7S15.352-301.584,22.352-293.484Z" fill="#311d69"/>
    <path id="Caminho_578" data-name="Caminho 578" d="M159.452-350.884h68.6a2.631,2.631,0,0,1,2.7,3.2l-14.9,94.8a3.929,3.929,0,0,1-3.7,3.2h-68.6a2.631,2.631,0,0,1-2.7-3.2l14.9-94.8A4.036,4.036,0,0,1,159.452-350.884Z" fill="#311d69"/>
    <path id="Caminho_579" data-name="Caminho 579" d="M161.252-350.884h68.6a2.631,2.631,0,0,1,2.7,3.2l-14.9,94.8a3.929,3.929,0,0,1-3.7,3.2h-68.6a2.631,2.631,0,0,1-2.7-3.2l14.9-94.8A3.944,3.944,0,0,1,161.252-350.884Z" fill="#614bd4"/>
    <path id="Caminho_580" data-name="Caminho 580" d="M187.952-315.684a6.518,6.518,0,0,1,2-8.1,4.572,4.572,0,0,1,6.9,1.8,6.518,6.518,0,0,1-2,8.1A4.457,4.457,0,0,1,187.952-315.684Z" fill="#988cff"/>
    <path id="Caminho_581" data-name="Caminho 581" d="M43.452-301.484c7.7,13.5,109.5,8.1,107.6,24s-87.4,26.2-126.5,6.2c-32.1-16.4-7.8-94.7,8.9-112.5s35.9-2.6,31.6,20.5C61.152-342.784,36.452-313.784,43.452-301.484Z" fill="#e7738e"/>
    <path id="Caminho_582" data-name="Caminho 582" d="M24.552-271.284c-23.8-12.1-16.6-58.2-4.5-88.5a38.633,38.633,0,0,0,1,7.4c2.2,7.3-.8,10.2-3,34.1s2.2,26.3,8.4,34.9,10.5,9.7,34.2,9.4,20.2,5.7,40.4,3.6c17-1.8,31.3-12.3,35.4-15.5a10.464,10.464,0,0,1,1.7.4,39.124,39.124,0,0,1,8.2,2.6c2.1,1,5,2.7,4.7,5.5C149.152-261.584,63.652-251.384,24.552-271.284Z" fill="#ac253c"/>
    <path id="Caminho_583" data-name="Caminho 583" d="M13.852-341.084l31.8,8.2,5.4,2a125.46,125.46,0,0,0-7.2,16c-5.6-.2-23.3-1.2-33.8-7.9A145.048,145.048,0,0,1,13.852-341.084Z" fill="#311d69"/>
    <path id="Caminho_584" data-name="Caminho 584" d="M64.952-363.284c-2.5,13.3-11.3,31.3-17,44.9-8.3-.9-25.3-4.4-37-10.4,4.3-23.2,14.3-46.3,22.4-55C50.152-401.584,69.352-386.384,64.952-363.284Z" fill="#e6ebff"/>
    <path id="Caminho_585" data-name="Caminho 585" d="M33.452-383.784c4.4-4.6,8.9-7,13.1-7.6-3.7,3.8-10.9,12.2-13.7,23.1-3.8,14.9.3,17.3-2.2,25.7-1.7,5.8-6.3,13.3-9.5,18.1a86.815,86.815,0,0,1-10.2-4.3C15.352-352.084,25.252-375.084,33.452-383.784Z" fill="#cad5ff"/>
    <path id="Caminho_586" data-name="Caminho 586" d="M138.252-281.584s7.2-9.6,8-12.2-.6-6.9,2.5-4.9.1,7.7,0,9.6,9.7-1.3,11.6-3.4,3.6-6,4.9-3.4-1,9.6-.6,11-5.1,11-10.5,12.4-13.6,4-15.4,0C136.952-276.384,137.752-280.784,138.252-281.584Z" fill="#e7738e"/>
    <path id="Caminho_587" data-name="Caminho 587" d="M104.852-379.784s-.3,6.3-4.3,6.8-6-8-3-8.8C100.652-382.584,102.852-384.184,104.852-379.784Z" fill="#311d69"/>
    <path id="Caminho_588" data-name="Caminho 588" d="M102.352-385.984c-3.9-.7-4.6-4.7-6.1-6.2s-2.5-6.1-2.5-6.1-4.6,2.9-5.3,4.1.1,4.1,1.5,6.6,6,8.8,6,8.8,6.1-2,6.5-1.3a19.207,19.207,0,0,0,3.1,2.6s2.8-7.3,0-12.6C105.552-390.084,103.352-385.784,102.352-385.984Z" fill="#cad5ff"/>
  </g>
</svg>
