<svg xmlns="http://www.w3.org/2000/svg" width="494.518" height="321.053" viewBox="0 0 494.518 321.053">
  <g id="user-calendar" transform="translate(-477.863 -353.64)">
    <g id="Grupo_1269" data-name="Grupo 1269" transform="translate(477.863 353.64)">
      <rect id="Retângulo_529" data-name="Retângulo 529" width="451.389" height="67.607" transform="translate(10.826 253.446)" fill="none"/>
      <g id="Grupo_1251" data-name="Grupo 1251" transform="translate(0 54.095)">
        <g id="Grupo_1249" data-name="Grupo 1249">
          <path id="Caminho_1401" data-name="Caminho 1401" d="M1049.556,814.894,970.621,601.636a9.161,9.161,0,0,0-8.674-6.036H697l84.509,222.5h268.618A9.282,9.282,0,0,0,1049.556,814.894Z" transform="translate(-637.415 -583.904)" fill="#fff"/>
          <path id="Caminho_1402" data-name="Caminho 1402" d="M998.687,1413.8l-3.29,7.45a1.314,1.314,0,0,0,1.2,1.849l263.316-.19a9.266,9.266,0,0,0,7.369-9.082H998.687Z" transform="translate(-854.593 -1179.629)" fill="#ade5de"/>
          <g id="Grupo_1225" data-name="Grupo 1225" transform="translate(2.905 14.598)">
            <path id="Caminho_1403" data-name="Caminho 1403" d="M539.3,610.415a6.333,6.333,0,0,1,11.882,0L589.25,713.278,630.09,823.672a6.342,6.342,0,0,1-5.955,8.538H494.9a6.353,6.353,0,0,1-5.955-8.538Z" transform="translate(-488.548 -606.275)" fill="#1d1240"/>
          </g>
          <path id="Caminho_1404" data-name="Caminho 1404" d="M625.057,814.894,546.149,601.636a9.25,9.25,0,0,0-17.348,0L478.444,814.894a9.266,9.266,0,0,0,8.7,12.481H616.41a9.207,9.207,0,0,0,8.647-12.481Zm-5.873,5.166a3.383,3.383,0,0,1-2.8,1.468H487.118a3.425,3.425,0,0,1-3.208-4.6l50.33-213.257a3.423,3.423,0,0,1,6.417,0l78.935,213.257A3.4,3.4,0,0,1,619.184,820.06Z" transform="translate(-477.863 -583.904)" fill="#2e87be"/>
          <g id="Grupo_1247" data-name="Grupo 1247" transform="translate(89.266)">
            <g id="Grupo_1228" data-name="Grupo 1228">
              <path id="Caminho_1405" data-name="Caminho 1405" d="M861.654,621.5a2.494,2.494,0,0,1-2.447,3.4,4.85,4.85,0,0,1-4.351-3.4,2.494,2.494,0,0,1,2.447-3.4A4.822,4.822,0,0,1,861.654,621.5Z" transform="translate(-841.521 -600.286)" fill="#1e1240"/>
              <g id="Grupo_1226" data-name="Grupo 1226">
                <path id="Caminho_1406" data-name="Caminho 1406" d="M820.8,573.391l-.027-.082a1.645,1.645,0,0,1,1.115-2.175c3.018-.816,4.514-3.861,3.29-7.4a10.264,10.264,0,0,0-8.4-6.58c-4.215-.3-6.771,2.991-5.629,7.07H806.6c-1.876-6.716,2.338-12.1,9.3-11.611,5.819.435,11.692,5.03,13.7,10.713,2.067,5.846-.435,10.9-5.438,12.209A3.014,3.014,0,0,1,820.8,573.391Z" transform="translate(-806.158 -552.586)" fill="#2e87be"/>
              </g>
              <g id="Grupo_1227" data-name="Grupo 1227" transform="translate(14.542 5.36)">
                <path id="Caminho_1407" data-name="Caminho 1407" d="M868.548,577.738a15.584,15.584,0,0,0-3.372-5.438,13.245,13.245,0,0,1,1.088,2.366c2.067,5.846-.435,10.9-5.438,12.209a2.142,2.142,0,0,1-1.169-.027,2.422,2.422,0,0,0,.054.87l.027.082a3.058,3.058,0,0,0,3.344,2.175C868.113,588.614,870.614,583.584,868.548,577.738Z" transform="translate(-859.64 -572.3)" fill="#311e69"/>
              </g>
              <path id="Caminho_1408" data-name="Caminho 1408" d="M820.875,564a10.114,10.114,0,0,1,6.961,3.97h0c-1.5-3.915-6.961-7.994-12.589-4.976-3.263,1.74-3.861,6.526-3.236,8.1h3.236C814.132,566.993,816.661,563.73,820.875,564Z" transform="translate(-810.26 -559.403)" fill="#311e69"/>
            </g>
            <g id="Grupo_1231" data-name="Grupo 1231" transform="translate(32.792)">
              <path id="Caminho_1409" data-name="Caminho 1409" d="M982.154,621.5a2.494,2.494,0,0,1-2.447,3.4,4.85,4.85,0,0,1-4.351-3.4,2.494,2.494,0,0,1,2.447-3.4A4.822,4.822,0,0,1,982.154,621.5Z" transform="translate(-962.048 -600.286)" fill="#1e1240"/>
              <g id="Grupo_1229" data-name="Grupo 1229">
                <path id="Caminho_1410" data-name="Caminho 1410" d="M941.4,573.391l-.027-.082a1.645,1.645,0,0,1,1.115-2.175c3.018-.816,4.514-3.861,3.29-7.4a10.263,10.263,0,0,0-8.4-6.58c-4.215-.3-6.771,2.991-5.629,7.07H927.2c-1.876-6.716,2.338-12.1,9.3-11.611,5.819.435,11.692,5.03,13.7,10.713,2.067,5.846-.435,10.9-5.438,12.209A3,3,0,0,1,941.4,573.391Z" transform="translate(-926.758 -552.586)" fill="#2e87be"/>
              </g>
              <g id="Grupo_1230" data-name="Grupo 1230" transform="translate(14.515 5.36)">
                <path id="Caminho_1411" data-name="Caminho 1411" d="M989.048,577.738a15.583,15.583,0,0,0-3.372-5.438,13.245,13.245,0,0,1,1.088,2.366c2.067,5.846-.435,10.9-5.438,12.209a2.142,2.142,0,0,1-1.169-.027,2.422,2.422,0,0,0,.054.87l.027.082a3.058,3.058,0,0,0,3.344,2.175C988.613,588.614,991.141,583.584,989.048,577.738Z" transform="translate(-980.14 -572.3)" fill="#311e69"/>
              </g>
              <path id="Caminho_1412" data-name="Caminho 1412" d="M941.475,564a10.114,10.114,0,0,1,6.961,3.97h0c-1.5-3.915-6.961-7.994-12.589-4.976-3.263,1.74-3.861,6.526-3.236,8.1h3.236C934.7,566.993,937.261,563.73,941.475,564Z" transform="translate(-930.859 -559.403)" fill="#311e69"/>
            </g>
            <g id="Grupo_1234" data-name="Grupo 1234" transform="translate(65.584)">
              <path id="Caminho_1413" data-name="Caminho 1413" d="M1102.754,621.5a2.494,2.494,0,0,1-2.447,3.4,4.85,4.85,0,0,1-4.351-3.4,2.494,2.494,0,0,1,2.447-3.4A4.822,4.822,0,0,1,1102.754,621.5Z" transform="translate(-1082.648 -600.286)" fill="#1e1240"/>
              <g id="Grupo_1232" data-name="Grupo 1232">
                <path id="Caminho_1414" data-name="Caminho 1414" d="M1061.971,573.391l-.027-.082a1.645,1.645,0,0,1,1.115-2.175c3.018-.816,4.514-3.861,3.29-7.4a10.264,10.264,0,0,0-8.4-6.58c-4.215-.3-6.771,2.991-5.628,7.07H1047.8c-1.876-6.716,2.338-12.1,9.3-11.611,5.819.435,11.692,5.03,13.7,10.713,2.066,5.846-.435,10.9-5.438,12.209A3.028,3.028,0,0,1,1061.971,573.391Z" transform="translate(-1047.358 -552.586)" fill="#2e87be"/>
              </g>
              <g id="Grupo_1233" data-name="Grupo 1233" transform="translate(14.515 5.36)">
                <path id="Caminho_1415" data-name="Caminho 1415" d="M1109.648,577.738a15.582,15.582,0,0,0-3.372-5.438,13.254,13.254,0,0,1,1.088,2.366c2.067,5.846-.435,10.9-5.438,12.209a2.142,2.142,0,0,1-1.169-.027,2.425,2.425,0,0,0,.054.87l.027.082a3.058,3.058,0,0,0,3.344,2.175C1109.213,588.614,1111.714,583.584,1109.648,577.738Z" transform="translate(-1100.74 -572.3)" fill="#311e69"/>
              </g>
              <path id="Caminho_1416" data-name="Caminho 1416" d="M1062.075,564a10.114,10.114,0,0,1,6.961,3.97h0c-1.5-3.915-6.961-7.994-12.589-4.976-3.263,1.74-3.861,6.526-3.236,8.1h3.236C1055.3,566.993,1057.834,563.73,1062.075,564Z" transform="translate(-1051.459 -559.403)" fill="#311e69"/>
            </g>
            <g id="Grupo_1237" data-name="Grupo 1237" transform="translate(98.349)">
              <path id="Caminho_1417" data-name="Caminho 1417" d="M1223.254,621.5a2.494,2.494,0,0,1-2.447,3.4,4.85,4.85,0,0,1-4.351-3.4,2.494,2.494,0,0,1,2.447-3.4A4.793,4.793,0,0,1,1223.254,621.5Z" transform="translate(-1203.148 -600.286)" fill="#1e1240"/>
              <g id="Grupo_1235" data-name="Grupo 1235">
                <path id="Caminho_1418" data-name="Caminho 1418" d="M1182.5,573.391l-.027-.082a1.645,1.645,0,0,1,1.115-2.175c3.018-.816,4.514-3.861,3.29-7.4a10.264,10.264,0,0,0-8.4-6.58c-4.215-.3-6.771,2.991-5.629,7.07H1168.3c-1.876-6.716,2.338-12.1,9.3-11.611,5.819.435,11.692,5.03,13.7,10.713,2.067,5.846-.435,10.9-5.438,12.209A3,3,0,0,1,1182.5,573.391Z" transform="translate(-1167.858 -552.586)" fill="#2e87be"/>
              </g>
              <g id="Grupo_1236" data-name="Grupo 1236" transform="translate(14.542 5.36)">
                <path id="Caminho_1419" data-name="Caminho 1419" d="M1230.248,577.738a15.584,15.584,0,0,0-3.372-5.438,13.254,13.254,0,0,1,1.088,2.366c2.067,5.846-.435,10.9-5.438,12.209a2.143,2.143,0,0,1-1.169-.027,2.422,2.422,0,0,0,.054.87l.027.082a3.058,3.058,0,0,0,3.345,2.175C1229.786,588.614,1232.314,583.584,1230.248,577.738Z" transform="translate(-1221.34 -572.3)" fill="#311e69"/>
              </g>
              <path id="Caminho_1420" data-name="Caminho 1420" d="M1182.575,564a10.114,10.114,0,0,1,6.961,3.97h0c-1.5-3.915-6.961-7.994-12.589-4.976-3.263,1.74-3.861,6.526-3.236,8.1h3.236C1175.832,566.993,1178.361,563.73,1182.575,564Z" transform="translate(-1171.959 -559.403)" fill="#311e69"/>
            </g>
            <g id="Grupo_1240" data-name="Grupo 1240" transform="translate(131.141)">
              <path id="Caminho_1421" data-name="Caminho 1421" d="M1343.854,621.5a2.494,2.494,0,0,1-2.447,3.4,4.85,4.85,0,0,1-4.35-3.4,2.494,2.494,0,0,1,2.447-3.4A4.821,4.821,0,0,1,1343.854,621.5Z" transform="translate(-1323.748 -600.286)" fill="#1e1240"/>
              <g id="Grupo_1238" data-name="Grupo 1238">
                <path id="Caminho_1422" data-name="Caminho 1422" d="M1303.1,573.391l-.027-.082a1.645,1.645,0,0,1,1.115-2.175c3.018-.816,4.514-3.861,3.29-7.4a10.264,10.264,0,0,0-8.4-6.58c-4.214-.3-6.771,2.991-5.629,7.07H1288.9c-1.876-6.716,2.338-12.1,9.3-11.611,5.819.435,11.692,5.03,13.7,10.713,2.067,5.846-.435,10.9-5.438,12.209A2.983,2.983,0,0,1,1303.1,573.391Z" transform="translate(-1288.458 -552.586)" fill="#2e87be"/>
              </g>
              <g id="Grupo_1239" data-name="Grupo 1239" transform="translate(14.515 5.36)">
                <path id="Caminho_1423" data-name="Caminho 1423" d="M1350.748,577.738a15.583,15.583,0,0,0-3.372-5.438,13.245,13.245,0,0,1,1.088,2.366c2.067,5.846-.435,10.9-5.438,12.209a2.142,2.142,0,0,1-1.169-.027,2.422,2.422,0,0,0,.054.87l.027.082a3.058,3.058,0,0,0,3.345,2.175C1350.313,588.614,1352.814,583.584,1350.748,577.738Z" transform="translate(-1341.84 -572.3)" fill="#311e69"/>
              </g>
              <path id="Caminho_1424" data-name="Caminho 1424" d="M1303.175,564a10.114,10.114,0,0,1,6.961,3.97h0c-1.5-3.915-6.961-7.994-12.589-4.976-3.263,1.74-3.861,6.526-3.236,8.1h3.236C1296.4,566.993,1298.961,563.73,1303.175,564Z" transform="translate(-1292.559 -559.403)" fill="#311e69"/>
            </g>
            <g id="Grupo_1243" data-name="Grupo 1243" transform="translate(163.906)">
              <path id="Caminho_1425" data-name="Caminho 1425" d="M1464.454,621.5a2.494,2.494,0,0,1-2.447,3.4,4.85,4.85,0,0,1-4.35-3.4,2.494,2.494,0,0,1,2.447-3.4A4.85,4.85,0,0,1,1464.454,621.5Z" transform="translate(-1444.321 -600.286)" fill="#1e1240"/>
              <g id="Grupo_1241" data-name="Grupo 1241">
                <path id="Caminho_1426" data-name="Caminho 1426" d="M1423.6,573.391l-.027-.082a1.645,1.645,0,0,1,1.115-2.175c3.018-.816,4.514-3.861,3.29-7.4a10.263,10.263,0,0,0-8.4-6.58c-4.215-.3-6.771,2.991-5.629,7.07H1409.4c-1.876-6.716,2.339-12.1,9.3-11.611,5.819.435,11.692,5.03,13.7,10.713,2.067,5.846-.435,10.9-5.438,12.209A3.014,3.014,0,0,1,1423.6,573.391Z" transform="translate(-1408.958 -552.586)" fill="#2e87be"/>
              </g>
              <g id="Grupo_1242" data-name="Grupo 1242" transform="translate(14.542 5.36)">
                <path id="Caminho_1427" data-name="Caminho 1427" d="M1471.348,577.738a15.579,15.579,0,0,0-3.372-5.438,13.254,13.254,0,0,1,1.088,2.366c2.066,5.846-.435,10.9-5.438,12.209a2.142,2.142,0,0,1-1.169-.027,2.425,2.425,0,0,0,.054.87l.027.082a3.058,3.058,0,0,0,3.344,2.175C1470.913,588.614,1473.414,583.584,1471.348,577.738Z" transform="translate(-1462.44 -572.3)" fill="#311e69"/>
              </g>
              <path id="Caminho_1428" data-name="Caminho 1428" d="M1423.675,564a10.114,10.114,0,0,1,6.961,3.97h0c-1.5-3.915-6.961-7.994-12.589-4.976-3.263,1.74-3.861,6.526-3.236,8.1h3.236C1416.932,566.993,1419.461,563.73,1423.675,564Z" transform="translate(-1413.059 -559.403)" fill="#311e69"/>
            </g>
            <g id="Grupo_1246" data-name="Grupo 1246" transform="translate(196.698)">
              <path id="Caminho_1429" data-name="Caminho 1429" d="M1584.954,621.5a2.494,2.494,0,0,1-2.447,3.4,4.85,4.85,0,0,1-4.35-3.4,2.494,2.494,0,0,1,2.447-3.4A4.822,4.822,0,0,1,1584.954,621.5Z" transform="translate(-1564.848 -600.286)" fill="#1e1240"/>
              <g id="Grupo_1244" data-name="Grupo 1244">
                <path id="Caminho_1430" data-name="Caminho 1430" d="M1544.2,573.391l-.027-.082a1.645,1.645,0,0,1,1.115-2.175c3.018-.816,4.514-3.861,3.29-7.4a10.264,10.264,0,0,0-8.4-6.58c-4.215-.3-6.771,2.991-5.628,7.07H1530c-1.876-6.716,2.338-12.1,9.3-11.611,5.819.435,11.692,5.03,13.7,10.713,2.066,5.846-.435,10.9-5.438,12.209A2.983,2.983,0,0,1,1544.2,573.391Z" transform="translate(-1529.558 -552.586)" fill="#2e87be"/>
              </g>
              <g id="Grupo_1245" data-name="Grupo 1245" transform="translate(14.515 5.36)">
                <path id="Caminho_1431" data-name="Caminho 1431" d="M1591.848,577.738a15.58,15.58,0,0,0-3.372-5.438,13.254,13.254,0,0,1,1.088,2.366c2.067,5.846-.435,10.9-5.438,12.209a2.142,2.142,0,0,1-1.169-.027,2.425,2.425,0,0,0,.054.87l.027.082a3.058,3.058,0,0,0,3.344,2.175C1591.413,588.614,1593.941,583.584,1591.848,577.738Z" transform="translate(-1582.94 -572.3)" fill="#311e69"/>
              </g>
              <path id="Caminho_1432" data-name="Caminho 1432" d="M1544.275,564a10.114,10.114,0,0,1,6.961,3.97h0c-1.5-3.915-6.961-7.994-12.589-4.976-3.263,1.74-3.861,6.526-3.236,8.1h3.236C1537.5,566.993,1540.061,563.73,1544.275,564Z" transform="translate(-1533.659 -559.403)" fill="#311e69"/>
            </g>
          </g>
          <g id="Grupo_1248" data-name="Grupo 1248" transform="translate(121.063 71.189)">
            <path id="Caminho_1445" data-name="Caminho 1445" d="M1685.744,1149.354h30.1L1706.3,1125.1h-30.1Z" transform="translate(-1471.426 -1040.618)" fill="#4bb4d4"/>
            <path id="Caminho_1447" data-name="Caminho 1447" d="M1644.944,1045.754h30.1l-9.571-24.254H1635.4Z" transform="translate(-1441.72 -965.188)" fill="#4bb4d4"/>
            <path id="Caminho_1453" data-name="Caminho 1453" d="M1604.071,942.154h30.1L1624.6,917.9h-30.1Z" transform="translate(-1411.941 -889.758)" fill="#4bb4d4"/>
            <path id="Caminho_1457" data-name="Caminho 1457" d="M1747.1,1228.7H1717l9.571,24.254h30.073Z" transform="translate(-1501.132 -1116.048)" fill="#4bb4d4"/>
            <g id="Grupo_1273" data-name="Grupo 1273">
              <path id="Caminho_1433" data-name="Caminho 1433" d="M1129.644,942.154,1120.1,917.9H1090l9.571,24.254Z" transform="translate(-1044.619 -889.758)" fill="#ade5de"/>
              <path id="Caminho_1434" data-name="Caminho 1434" d="M1049.2,814.4l9.544,24.254h30.1L1079.3,814.4Z" transform="translate(-1014.912 -814.4)" fill="#ade5de"/>
              <path id="Caminho_1435" data-name="Caminho 1435" d="M1170.471,1045.754,1160.9,1021.5h-30.1l9.571,24.254Z" transform="translate(-1074.325 -965.188)" fill="#ade5de"/>
              <path id="Caminho_1436" data-name="Caminho 1436" d="M1175.3,814.4l9.571,24.254h30.1L1205.4,814.4Z" transform="translate(-1106.725 -814.4)" fill="#ade5de"/>
              <path id="Caminho_1437" data-name="Caminho 1437" d="M1337.444,1149.354,1327.9,1125.1h-30.1l9.544,24.254Z" transform="translate(-1195.916 -1040.618)" fill="#ade5de"/>
              <path id="Caminho_1438" data-name="Caminho 1438" d="M1463.544,1149.354,1454,1125.1h-30.1l9.571,24.254Z" transform="translate(-1287.729 -1040.618)" fill="#ade5de"/>
              <path id="Caminho_1439" data-name="Caminho 1439" d="M1589.744,1149.354l-9.571-24.254H1550.1l9.544,24.254Z" transform="translate(-1379.614 -1040.618)" fill="#ade5de"/>
              <path id="Caminho_1440" data-name="Caminho 1440" d="M1211.344,1149.354l-9.571-24.254H1171.7l9.544,24.254Z" transform="translate(-1104.104 -1040.618)" fill="#ade5de"/>
              <path id="Caminho_1441" data-name="Caminho 1441" d="M1301.5,814.4l9.544,24.254h30.1l-9.571-24.254Z" transform="translate(-1198.61 -814.4)" fill="#ade5de"/>
              <path id="Caminho_1442" data-name="Caminho 1442" d="M1427.6,814.4l9.544,24.254h30.1L1457.7,814.4Z" transform="translate(-1290.422 -814.4)" fill="#ade5de"/>
              <path id="Caminho_1443" data-name="Caminho 1443" d="M1216.2,917.9l9.544,24.254h30.1l-9.571-24.254Z" transform="translate(-1136.504 -889.758)" fill="#ade5de"/>
              <path id="Caminho_1444" data-name="Caminho 1444" d="M1381.944,942.154,1372.4,917.9h-30.1l9.544,24.254Z" transform="translate(-1228.316 -889.758)" fill="#ade5de"/>
              <path id="Caminho_1446" data-name="Caminho 1446" d="M1296.644,1045.754l-9.571-24.254H1257l9.544,24.254Z" transform="translate(-1166.21 -965.188)" fill="#ade5de"/>
              <path id="Caminho_1448" data-name="Caminho 1448" d="M1468.4,917.9l9.571,24.254h30.073L1498.5,917.9Z" transform="translate(-1320.129 -889.758)" fill="#ade5de"/>
              <path id="Caminho_1449" data-name="Caminho 1449" d="M1422.744,1045.754,1413.2,1021.5h-30.1l9.571,24.254Z" transform="translate(-1258.022 -965.188)" fill="#ade5de"/>
              <path id="Caminho_1450" data-name="Caminho 1450" d="M1548.871,1045.754,1539.3,1021.5h-30.1l9.571,24.254Z" transform="translate(-1349.835 -965.188)" fill="#ade5de"/>
              <path id="Caminho_1451" data-name="Caminho 1451" d="M1464.7,1228.7l9.571,24.254h30.1L1494.8,1228.7Z" transform="translate(-1317.435 -1116.048)" fill="#ade5de"/>
              <path id="Caminho_1452" data-name="Caminho 1452" d="M1075.6,1125.1h-30.1l9.571,24.254h30.073Z" transform="translate(-1012.218 -1040.618)" fill="#ade5de"/>
              <path id="Caminho_1454" data-name="Caminho 1454" d="M1034.8,1021.5h-30.1l9.571,24.254h30.073Z" transform="translate(-982.512 -965.188)" fill="#ade5de"/>
              <path id="Caminho_1455" data-name="Caminho 1455" d="M1212.5,1228.7l9.544,24.254h30.1l-9.571-24.254Z" transform="translate(-1133.81 -1116.048)" fill="#ade5de"/>
              <path id="Caminho_1456" data-name="Caminho 1456" d="M1086.3,1228.7l9.571,24.254h30.1L1116.4,1228.7Z" transform="translate(-1041.925 -1116.048)" fill="#ade5de"/>
              <path id="Caminho_1458" data-name="Caminho 1458" d="M1338.6,1228.7l9.571,24.254h30.073L1368.7,1228.7Z" transform="translate(-1225.622 -1116.048)" fill="#ade5de"/>
              <path id="Caminho_1459" data-name="Caminho 1459" d="M1590.9,1228.7l9.544,24.254h30.1l-9.571-24.254Z" transform="translate(-1409.32 -1116.048)" fill="#ade5de"/>
              <path id="Caminho_1460" data-name="Caminho 1460" d="M994,917.9H963.9l9.544,24.254h30.1Z" transform="translate(-952.806 -889.758)" fill="#ade5de"/>
              <path id="Caminho_1461" data-name="Caminho 1461" d="M953.173,814.4H923.1l9.544,24.254h30.1Z" transform="translate(-923.1 -814.4)" fill="#ade5de"/>
            </g>
            <path id="Caminho_1462" data-name="Caminho 1462" d="M1563.271,838.654h30.073L1583.8,814.4h-30.1Z" transform="translate(-1382.235 -814.4)" fill="#4bb4d4"/>
          </g>
        </g>
        <g id="Grupo_1250" data-name="Grupo 1250" transform="translate(188.156 37.418)">
          <path id="Caminho_1463" data-name="Caminho 1463" d="M1175.815,716.711l-.163-.625c-1.414-5.112-.381-8.239,1.088-11.828,1.359-3.344,1.849-4.269,1.06-7.124-.544-1.931-.979-2.773-2.148-2.773-1.06,0-1.2.843-.707,2.583l.435,1.55H1170.7l-.408-1.414c-.87-3.127-.979-6.879,4.405-6.879,4.813,0,7.07,2.964,8.184,6.988,1.142,4.079.245,5.846-1.251,9.3-.816,1.713-1.632,4.079-1.333,5.846h7.287l.6,4.4h-12.372Z" transform="translate(-1169.846 -690.2)" fill="#ade5de"/>
          <path id="Caminho_1464" data-name="Caminho 1464" d="M1238.624,697.3l3.453,12.4c1.142,4.079.6,7.369-4.731,7.369-5.166,0-7.45-3.426-8.538-7.342l-3.4-12.209c-1.305-4.731.272-7.314,4.622-7.314C1234.41,690.2,1237.374,692.81,1238.624,697.3Zm-8.32-.408,3.752,13.432c.435,1.523,1.088,2.393,2.23,2.393s1.278-.924.843-2.474l-3.752-13.432c-.354-1.305-.979-2.23-2.175-2.23C1230.114,694.578,1229.9,695.448,1230.3,696.889Z" transform="translate(-1209.977 -690.2)" fill="#ade5de"/>
          <path id="Caminho_1465" data-name="Caminho 1465" d="M1286.215,716.711l-.163-.625c-1.414-5.112-.381-8.239,1.088-11.828,1.36-3.344,1.849-4.269,1.061-7.124-.544-1.931-.979-2.773-2.148-2.773-1.06,0-1.2.843-.707,2.583l.435,1.55H1281.1l-.408-1.414c-.87-3.127-.979-6.879,4.4-6.879,4.813,0,7.07,2.964,8.184,6.988,1.142,4.079.245,5.846-1.251,9.3-.816,1.713-1.631,4.079-1.332,5.846h7.287l.6,4.4h-12.372Z" transform="translate(-1250.227 -690.2)" fill="#ade5de"/>
          <path id="Caminho_1466" data-name="Caminho 1466" d="M1339.782,717.221l-5.765-20.665c-.761,0-1.767-.109-2.284-.163l-1.033-3.725a3.447,3.447,0,0,0,3.045-1.767h3.888l7.342,26.294h-5.193Z" transform="translate(-1286.962 -690.71)" fill="#ade5de"/>
        </g>
      </g>
      <g id="Grupo_1252" data-name="Grupo 1252" transform="translate(227.372 147.963)">
        <path id="Caminho_1467" data-name="Caminho 1467" d="M1349.318,940.084c-12.182,0-24.526-4.65-30.807-11.964-4.051-4.7-5.357-10.169-3.807-15.8,2.039-7.4,7.45-12.182,15.662-13.867a35.26,35.26,0,0,1,11.529-.326,2.027,2.027,0,1,1-.68,4c-.789-.136-18.734-2.882-22.623,11.284-1.2,4.323-.19,8.4,2.991,12.1,6.281,7.314,20.284,11.719,32.575,10.278,9.3-1.088,15.118-3.616,17.293-7.5,1.523-2.719,1.251-6.335-.816-10.74-2.012-4.3-6.58-6.607-10.061-7.777-6.743-2.284-15.254-2.2-19.768.19a2.013,2.013,0,1,1-1.876-3.562c5.493-2.882,15.145-3.045,22.949-.435,6.064,2.039,10.36,5.465,12.426,9.9,2.637,5.629,2.855,10.5.68,14.411-2.828,5.085-9.68,8.293-20.366,9.544C1352.88,939.976,1351.113,940.084,1349.318,940.084Z" transform="translate(-1314.071 -897.804)" fill="#1e1240"/>
      </g>
      <g id="Grupo_1274" data-name="Grupo 1274" transform="translate(173.161 124.69)">
        <g id="Grupo_1253" data-name="Grupo 1253" transform="translate(0 36.513)">
          <path id="Caminho_1468" data-name="Caminho 1468" d="M1135.691,948.512a2.007,2.007,0,0,0-2.012-2.012h-16.967a2.012,2.012,0,0,0,0,4.024h16.967A1.99,1.99,0,0,0,1135.691,948.512Z" transform="translate(-1114.7 -946.5)" fill="#4bb4d4"/>
          <path id="Caminho_1469" data-name="Caminho 1469" d="M1151.127,976.2h-16.015a2.012,2.012,0,0,0,0,4.024h16.015a2.012,2.012,0,0,0,0-4.024Z" transform="translate(-1128.097 -968.124)" fill="#4bb4d4"/>
        </g>
        <path id="Caminho_1470" data-name="Caminho 1470" d="M1218.768,831.979l-12.29-7.8,6.879-8.7a2.013,2.013,0,1,0-3.154-2.5L1203.052,822l-12.4-7.831a2.029,2.029,0,1,0-2.175,3.426l12.018,7.613-6.8,8.592a2.023,2.023,0,0,0,.326,2.828,2.015,2.015,0,0,0,2.828-.326l7.042-8.919,12.671,8.021a2,2,0,0,0,2.8-.625A2,2,0,0,0,1218.768,831.979Z" transform="translate(-1167.731 -812.215)" fill="#4bb4d4"/>
      </g>
      <g id="Grupo_1268" data-name="Grupo 1268" transform="translate(252.449)">
        <rect id="Retângulo_530" data-name="Retângulo 530" width="197.47" height="28.975" transform="translate(44.598 290.643)" fill="none"/>
        <g id="Grupo_1267" data-name="Grupo 1267">
          <path id="Caminho_1471" data-name="Caminho 1471" d="M1726.18,632.643s-19.822,17.647-27.218,16.478-7.178-32.9-14.9-33.227c-10.033-.435-12.7,53.647,13.541,52.424C1723.815,667.093,1726.18,632.643,1726.18,632.643Z" transform="translate(-1603.332 -544.582)" fill="#1d1240"/>
          <g id="Grupo_1254" data-name="Grupo 1254" transform="translate(92.938 86.014)">
            <path id="Caminho_1472" data-name="Caminho 1472" d="M1807.348,800.362c-3.208-1.305,4.949-48.617,5.275-52.8,1.06-13.677-9.816-27.436-10.469-29.964-.789-3.127,9.87-24.145,3.535-37.632-3.807-8.13-13.378-8.973-24.88-9.979-2.23-.19-11.42,3.589-13.187,11.774-2.393,11.012,6.771,6.635,2.365,18.027-1.713,4.459-3.7,9.816-5.737,15.472-2.094,5.819-16.124,29.285-16.151,44.81-.054,38.584,8.674,84.373,24.88,113.44.789,1.414,8.185-.027,8.348-1.088,2.338-16.015-1.659-49.46-9.462-65.095-3.127-6.227,4.487-51.717,5.737-50.874,4.35,2.882-13.052,71.131,60.5,81.573l2.665-6.091C1840.765,831.984,1826.6,808.193,1807.348,800.362Z" transform="translate(-1748.099 -669.975)" fill="#e7738e"/>
          </g>
          <path id="Caminho_1473" data-name="Caminho 1473" d="M1840.342,731.134c-2.937-6.825-6.743-12.073-7.1-13.541-.789-3.127,9.87-24.145,3.535-37.632-3.807-8.13-13.378-8.973-24.88-9.979-2.23-.19-11.42,3.589-13.187,11.774-2.393,11.012,6.771,6.635,2.365,18.027-1.713,4.459-3.7,9.816-5.737,15.472-.653,1.795-2.393,5.248-4.541,9.626C1798.142,727.245,1819.813,733.282,1840.342,731.134Z" transform="translate(-1686.251 -583.961)" fill="#4bb4d4"/>
          <path id="Caminho_1474" data-name="Caminho 1474" d="M1814.433,1093.6c-4.051,2.338-7.94,5.764-8.511,12.263-.653,7.4,9.87,44.62,12.154,55.17,1.523,7.042,5.329,20.094,5.357,19.876,2.338-16.015-1.659-49.46-9.462-65.095C1812.638,1113.232,1813.236,1103.715,1814.433,1093.6Z" transform="translate(-1697.241 -892.399)" fill="#ad263d"/>
          <path id="Caminho_1475" data-name="Caminho 1475" d="M1969.873,1042.435a5.634,5.634,0,0,0,1.088.353c-2.42-3.861-15.662-23.9-33.01-30.97-2.991-1.224,3.888-42.472,5.085-51.418-4.7,2.366-12.943,8.62-14.819,23.846-2.665,21.644,1.767,27.463,9.463,37.034C1945.4,1030.906,1960.438,1037.948,1969.873,1042.435Z" transform="translate(-1785.737 -795.417)" fill="#ad263d"/>
          <path id="Caminho_1476" data-name="Caminho 1476" d="M1809.136,894.65c.435-5.737-1.224-11.474-3.344-16.423-20.529,2.148-42.227-3.916-49.542-6.227-4.84,9.87-11.692,24.39-12.508,35.1a169.11,169.11,0,0,0,1.931,38.72,213.658,213.658,0,0,0,22,1.577c4.024.082,8.293.027,12.7-.19a109.512,109.512,0,0,0,22.786-3.4C1803.045,932.418,1808.864,898.185,1809.136,894.65Z" transform="translate(-1651.701 -731.054)" fill="#1e1240"/>
          <g id="Grupo_1258" data-name="Grupo 1258">
            <path id="Caminho_1477" data-name="Caminho 1477" d="M1417.883,894.575l-11.583,4.051,4.459-10.876C1413.043,887.26,1416.388,887.858,1417.883,894.575Z" transform="translate(-1406.3 -742.426)" fill="#1e1240"/>
            <g id="Grupo_1255" data-name="Grupo 1255" transform="translate(4.432 121.777)">
              <path id="Caminho_1478" data-name="Caminho 1478" d="M1500.4,854.8a5.645,5.645,0,0,1-.3.571A1.292,1.292,0,0,1,1500.4,854.8Z" transform="translate(-1479.027 -840.307)" fill="#f7c263"/>
              <path id="Caminho_1479" data-name="Caminho 1479" d="M1429.751,831.872c-1.5-6.716-4.867-7.314-7.151-6.825l7.912-19.333a17.018,17.018,0,0,1,2.529-4.215c2.066.19,4.133.87,4.758,2.882,1.305,4.269.082,10.414.082,10.414s3.752-4.568,5.737-3.018c1.468,1.142.789,3.209.326,4.215a1.291,1.291,0,0,0-.3.571,5.663,5.663,0,0,0,.3-.571c.408-.489,1.414-.9,3.7.571,1.822,1.169,2.746,4.568,2.937,7.967a16.511,16.511,0,0,1-1.6.653Z" transform="translate(-1422.6 -801.5)" fill="#fcc"/>
            </g>
            <path id="Caminho_1480" data-name="Caminho 1480" d="M1902.2,362.14l6.607-6.281a8.142,8.142,0,0,1,11.475.3l9.272,9.789a8.142,8.142,0,0,1-.3,11.475l-6.607,6.281Z" transform="translate(-1767.361 -353.64)" fill="#d95f76"/>
            <path id="Caminho_1481" data-name="Caminho 1481" d="M1482.834,527.226a16.5,16.5,0,0,1-4.3,2.937c-.19-3.4-1.115-6.8-2.937-7.967-2.284-1.468-3.263-1.06-3.7-.571.462-.979,1.142-3.045-.326-4.215-1.985-1.55-5.737,3.018-5.737,3.018s1.223-6.145-.082-10.414c-.6-1.985-2.692-2.692-4.758-2.882a17.378,17.378,0,0,1,1.36-1.468L1577.431,397.2l20.448,21.562Z" transform="translate(-1446.127 -385.356)" fill="#f7c263"/>
            <rect id="Retângulo_531" data-name="Retângulo 531" width="4.867" height="29.72" transform="translate(131.293 11.809) rotate(-43.481)" fill="#fff0f0"/>
            <g id="Grupo_1256" data-name="Grupo 1256" transform="translate(28.306 25.277)">
              <path id="Caminho_1482" data-name="Caminho 1482" d="M1518.8,563.194a16.5,16.5,0,0,1-4.3,2.937c-.19-3.4-1.115-6.8-2.937-7.967a7.168,7.168,0,0,0-1.169-.625c1.441-1.414,2.909-2.773,4.323-4.024,10.36-9.027,70.859-69.554,85.189-82.279,6.716-5.955,17.1-15.825,26.266-24.635l7.668,8.1Z" transform="translate(-1510.4 -446.6)" fill="#c98624"/>
            </g>
            <g id="Grupo_1257" data-name="Grupo 1257" transform="translate(147.7 9.452)">
              <path id="Caminho_1483" data-name="Caminho 1483" d="M1961.3,388.4l2.692,2.855a8.142,8.142,0,0,1-.3,11.475l-6.607,6.281-7.586-8.021A114.547,114.547,0,0,0,1961.3,388.4Z" transform="translate(-1949.5 -388.4)" fill="#75203f"/>
            </g>
            <path id="Caminho_1484" data-name="Caminho 1484" d="M1596.53,408.5,1488.8,511.553s12.127-2.529,18.87-8.783c6.716-6.254,91.171-89.866,91.171-89.866Z" transform="translate(-1466.368 -393.583)" fill="#ffd592"/>
          </g>
          <path id="Caminho_1485" data-name="Caminho 1485" d="M1797.9,665.75s-8.212,8.973-9.653,18.055-7.641,51.771-14.71,55.061-12.916-6.852-13.976-16.45,15.064-29.339,15.227-35.457c.19-6.118-2.665-11.638,2.23-16.885C1781.944,664.853,1800.9,658.409,1797.9,665.75Z" transform="translate(-1663.474 -578.479)" fill="#4bb4d4"/>
          <path id="Caminho_1486" data-name="Caminho 1486" d="M1817.26,667.173c.571-1.387.354-2.284-.408-2.774-2.366,1.468-6.308,4.432-8.266,8.755-2.882,6.417-5.329,12.317-7.178,14.275s-.625,4.6-.734,8.4-10.36,35.865-12.426,39.073a26.949,26.949,0,0,0-2.148,4.487,6.292,6.292,0,0,0,6.852.9c7.07-3.29,13.269-45.98,14.71-55.061C1809.049,676.146,1817.26,667.173,1817.26,667.173Z" transform="translate(-1682.829 -579.902)" fill="#2e87be"/>
          <path id="Caminho_1487" data-name="Caminho 1487" d="M1874.348,573.948s-1.441-2.964-6.39-3.834c-4.949-.843-8.647,2.2-7.614,4.133,0,0-4.541,1.387-3.535,5.357a1.931,1.931,0,0,0,2.094,1.2s-1.822,1.9.734,5.139c0,0-1.251,5.329,8.511,5.493,0,0,6.2,2.338,8.891.788s1.686-3.154,1.686-3.154,3.263.789,4.323-1.387a4.477,4.477,0,0,0-.272-4.187,2.4,2.4,0,0,0,2.012-2.746C1884.491,578.924,1883.213,572.262,1874.348,573.948Z" transform="translate(-1734.207 -511.148)" fill="#1e1240"/>
          <path id="Caminho_1488" data-name="Caminho 1488" d="M1872.187,666.1s10.6.843,13.568,7.858,6.2,15.879,3.861,28.034,9.163,28.142,4.921,33.445-30.916,13.106-35.892,7.151C1853.7,736.66,1872.187,666.1,1872.187,666.1Z" transform="translate(-1735.037 -581.14)" fill="#4bb4d4"/>
          <path id="Caminho_1489" data-name="Caminho 1489" d="M1895.757,644.6l-.979,9.816c-.163,1.6-4.6,5.329-6.906,2.991-.68-.68.544-2.8,1.441-4.378l2.855-8.212Z" transform="translate(-1756.785 -565.486)" fill="#e7738e"/>
          <path id="Caminho_1490" data-name="Caminho 1490" d="M1898,653.4a5.666,5.666,0,0,0,4.622-3.535l-3.317-.163Z" transform="translate(-1764.303 -569.199)" fill="#311e69"/>
          <g id="Grupo_1260" data-name="Grupo 1260" transform="translate(129.075 69.189)">
            <path id="Caminho_1491" data-name="Caminho 1491" d="M1891.777,612.095l.163,3.834a5.652,5.652,0,0,1-5.139,5.982c-2.8.19-5.275-1.686-5.3-5.193-.027-3.127,2.474-5.547,3.426-6.852C1887.1,606.874,1891.261,607.717,1891.777,612.095Z" transform="translate(-1881.363 -608.097)" fill="#e7738e"/>
            <path id="Caminho_1492" data-name="Caminho 1492" d="M1916.03,630.734a4.016,4.016,0,0,0,.354-.952c.163-.625.571-1.5,1.359-.789,1.142,1.033.054,4.269-1.55,4.079C1915.023,632.964,1915.649,631.468,1916.03,630.734Z" transform="translate(-1906.132 -623.12)" fill="#e7738e"/>
            <path id="Caminho_1493" data-name="Caminho 1493" d="M1883.12,622.263a6.268,6.268,0,0,1,.082-1.006c.109-.625.136-1.6-.87-1.305-1.468.435-1.9,3.807-.381,4.351C1883.066,624.71,1883.148,623.106,1883.12,622.263Z" transform="translate(-1881 -616.688)" fill="#e7738e"/>
            <path id="Caminho_1494" data-name="Caminho 1494" d="M1894.162,638.47a11.405,11.405,0,0,1-3.562-.87,4.453,4.453,0,0,0,.789,2.311C1892.068,640.618,1893.238,639.938,1894.162,638.47Z" transform="translate(-1887.989 -629.578)" fill="#fff"/>
            <g id="Grupo_1259" data-name="Grupo 1259" transform="translate(0.163 8.43)">
              <path id="Caminho_1495" data-name="Caminho 1495" d="M1886.685,643.233a7.2,7.2,0,0,1-3.834-1.55,7.822,7.822,0,0,1-1.251-2.583v.163c.027,3.508,2.5,5.384,5.3,5.193a5.411,5.411,0,0,0,4.323-2.746A7.019,7.019,0,0,1,1886.685,643.233Z" transform="translate(-1881.6 -639.1)" fill="#ad263d"/>
            </g>
          </g>
          <path id="Caminho_1496" data-name="Caminho 1496" d="M1944.28,739.077c4.242-5.3-7.287-21.29-4.922-33.445,2.338-12.154-.9-21.018-3.861-28.034-1.468-3.453-4.786-5.411-7.749-6.5.843,4.269,3.344,18.3,2.665,31.759-.761,15.336-6.254,30.182-3.616,43.995C1934.545,744.95,1942.186,741.714,1944.28,739.077Z" transform="translate(-1784.751 -584.78)" fill="#2e87be"/>
          <g id="Grupo_1261" data-name="Grupo 1261" transform="translate(69.39 79.491)">
            <path id="Caminho_1497" data-name="Caminho 1497" d="M1739.944,658.2c8.837,14.846-28.931,39.59-53.974,27.272-19.034-9.381-32.575-38.23-18.925-39.481,3.916-.353,25.831,23.438,31.65,25.124C1709.3,674.186,1735.322,650.449,1739.944,658.2Z" transform="translate(-1661.498 -645.986)" fill="#4bb4d4"/>
            <path id="Caminho_1498" data-name="Caminho 1498" d="M1730.331,670.587c-4.487,4.6-3.78,5.547-8.674,6.444s-3.535,1.6-10.659,5.3-13.677,2.746-23.167-5.139-18.762-21.725-21.861-24.88a3.429,3.429,0,0,0-2.42-1.115c-6.961,6.064,5.574,29.747,22.487,38.067,21.644,10.659,52.75-6.363,55.143-20.747C1741.561,666.237,1732.4,668.466,1730.331,670.587Z" transform="translate(-1661.565 -649.782)" fill="#2e87be"/>
          </g>
          <g id="Grupo_1262" data-name="Grupo 1262" transform="translate(105.718 172.868)">
            <path id="Caminho_1499" data-name="Caminho 1499" d="M1832.8,1150.2v0Z" transform="translate(-1822.549 -1106.477)" fill="#ff6161"/>
            <path id="Caminho_1500" data-name="Caminho 1500" d="M1837.236,1091.5c-.054.408-.109.816-.136,1.224C1837.127,1092.343,1837.182,1091.908,1837.236,1091.5Z" transform="translate(-1825.68 -1063.738)" fill="#ff6161"/>
            <path id="Caminho_1501" data-name="Caminho 1501" d="M1836.236,1099.6c-.054.408-.082.816-.136,1.224C1836.154,1100.416,1836.182,1100.008,1836.236,1099.6Z" transform="translate(-1824.952 -1069.636)" fill="#ff6161"/>
            <path id="Caminho_1502" data-name="Caminho 1502" d="M1839.19,1074.9c-.054.435-.136.9-.19,1.332C1839.054,1075.8,1839.136,1075.335,1839.19,1074.9Z" transform="translate(-1827.063 -1051.652)" fill="#ff6161"/>
            <path id="Caminho_1503" data-name="Caminho 1503" d="M1840.29,1066.8c-.054.435-.136.9-.19,1.359C1840.182,1067.67,1840.236,1067.235,1840.29,1066.8Z" transform="translate(-1827.864 -1045.754)" fill="#ff6161"/>
            <path id="Caminho_1504" data-name="Caminho 1504" d="M1833.155,1137.4c-.027.354-.027.68-.054,1.006C1833.127,1138.08,1833.127,1137.726,1833.155,1137.4Z" transform="translate(-1822.768 -1097.157)" fill="#ff6161"/>
            <path id="Caminho_1505" data-name="Caminho 1505" d="M1832.927,1144c0,.326-.027.625-.027.952C1832.9,1144.625,1832.9,1144.326,1832.927,1144Z" transform="translate(-1822.622 -1101.963)" fill="#ff6161"/>
            <path id="Caminho_1506" data-name="Caminho 1506" d="M1835.409,1107.6c-.054.408-.082.788-.109,1.169C1835.327,1108.388,1835.381,1108.008,1835.409,1107.6Z" transform="translate(-1824.369 -1075.46)" fill="#ff6161"/>
            <path id="Caminho_1507" data-name="Caminho 1507" d="M1841.6,1055.9c-.109.707-.218,1.387-.3,2.094C1841.409,1057.287,1841.49,1056.58,1841.6,1055.9Z" transform="translate(-1828.738 -1037.818)" fill="#ff6161"/>
            <path id="Caminho_1508" data-name="Caminho 1508" d="M1833.481,1130.4q-.041.53-.082,1.061Q1833.441,1130.93,1833.481,1130.4Z" transform="translate(-1822.986 -1092.061)" fill="#ff6161"/>
            <path id="Caminho_1509" data-name="Caminho 1509" d="M1834.081,1123c-.027.381-.054.761-.082,1.115C1834.027,1123.761,1834.054,1123.381,1834.081,1123Z" transform="translate(-1823.423 -1086.673)" fill="#ff6161"/>
            <path id="Caminho_1510" data-name="Caminho 1510" d="M1852.409,999.4c-.027.136-.082.3-.109.462C1852.327,999.7,1852.382,999.563,1852.409,999.4Z" transform="translate(-1836.747 -996.681)" fill="#ff6161"/>
            <path id="Caminho_1511" data-name="Caminho 1511" d="M1851.409,1003.8c-.027.163-.082.354-.109.544C1851.327,1004.153,1851.382,1003.963,1851.409,1003.8Z" transform="translate(-1836.019 -999.884)" fill="#ff6161"/>
            <path id="Caminho_1512" data-name="Caminho 1512" d="M1854.981,990.4a1.872,1.872,0,0,0-.082.218C1854.927,990.536,1854.954,990.482,1854.981,990.4Z" transform="translate(-1838.64 -990.128)" fill="#ff6161"/>
            <path id="Caminho_1513" data-name="Caminho 1513" d="M1850.336,1008.8c-.054.19-.082.408-.136.6C1850.254,1009.181,1850.281,1008.99,1850.336,1008.8Z" transform="translate(-1835.218 -1003.525)" fill="#ff6161"/>
            <path id="Caminho_1514" data-name="Caminho 1514" d="M1854.281,992.7c-.027.082-.054.19-.082.3C1854.227,992.89,1854.254,992.809,1854.281,992.7Z" transform="translate(-1838.13 -991.803)" fill="#ff6161"/>
            <path id="Caminho_1515" data-name="Caminho 1515" d="M1843.163,1048.2c-.054.354-.109.734-.163,1.088C1843.054,1048.907,1843.109,1048.553,1843.163,1048.2Z" transform="translate(-1829.976 -1032.212)" fill="#ff6161"/>
            <path id="Caminho_1516" data-name="Caminho 1516" d="M1853.309,995.7a2.8,2.8,0,0,1-.109.381A2.009,2.009,0,0,0,1853.309,995.7Z" transform="translate(-1837.402 -993.987)" fill="#ff6161"/>
            <path id="Caminho_1517" data-name="Caminho 1517" d="M1844.363,1040.7c-.054.326-.109.68-.163,1.006C1844.254,1041.353,1844.309,1041.026,1844.363,1040.7Z" transform="translate(-1830.849 -1026.751)" fill="#ff6161"/>
            <path id="Caminho_1518" data-name="Caminho 1518" d="M1849.236,1014.3c-.054.217-.082.435-.136.68A5,5,0,0,1,1849.236,1014.3Z" transform="translate(-1834.417 -1007.53)" fill="#ff6161"/>
            <path id="Caminho_1519" data-name="Caminho 1519" d="M1845.636,1033.6a8.282,8.282,0,0,0-.136.87C1845.554,1034.171,1845.582,1033.872,1845.636,1033.6Z" transform="translate(-1831.796 -1021.582)" fill="#ff6161"/>
            <path id="Caminho_1520" data-name="Caminho 1520" d="M1848.036,1020.2c-.054.245-.082.517-.136.761C1847.954,1020.717,1847.982,1020.472,1848.036,1020.2Z" transform="translate(-1833.543 -1011.825)" fill="#ff6161"/>
            <path id="Caminho_1521" data-name="Caminho 1521" d="M1846.836,1026.7c-.054.272-.082.544-.136.789A7.932,7.932,0,0,0,1846.836,1026.7Z" transform="translate(-1832.669 -1016.558)" fill="#ff6161"/>
            <path id="Caminho_1522" data-name="Caminho 1522" d="M1838.163,1083.3c-.054.435-.109.843-.163,1.278C1838.054,1084.143,1838.109,1083.708,1838.163,1083.3Z" transform="translate(-1826.335 -1057.768)" fill="#ff6161"/>
            <path id="Caminho_1523" data-name="Caminho 1523" d="M1832.8,1396.911c-.408-.761-.789-1.523-1.2-2.311C1832.008,1395.388,1832.416,1396.15,1832.8,1396.911Z" transform="translate(-1821.675 -1284.423)" fill="#ff6161"/>
            <path id="Caminho_1524" data-name="Caminho 1524" d="M1826.6,1384.347c-.408-.816-.789-1.6-1.2-2.447C1825.808,1382.716,1826.216,1383.531,1826.6,1384.347Z" transform="translate(-1817.161 -1275.176)" fill="#ff6161"/>
            <path id="Caminho_1525" data-name="Caminho 1525" d="M1833.9,1169.6a3.9,3.9,0,0,0,.136.6A3.9,3.9,0,0,1,1833.9,1169.6Z" transform="translate(-1823.35 -1120.602)" fill="#ff6161"/>
            <path id="Caminho_1526" data-name="Caminho 1526" d="M1820.332,1370.982c-.462-.952-.9-1.9-1.332-2.882C1819.435,1369.052,1819.9,1370.031,1820.332,1370.982Z" transform="translate(-1812.501 -1265.128)" fill="#ff6161"/>
            <path id="Caminho_1527" data-name="Caminho 1527" d="M1834.6,1172.9a6.373,6.373,0,0,0,.245.68C1834.763,1173.389,1834.682,1173.145,1834.6,1172.9Z" transform="translate(-1823.859 -1123.005)" fill="#ff6161"/>
            <path id="Caminho_1528" data-name="Caminho 1528" d="M1801.354,1324.844c-2.2-4.894-4.3-10.061-6.254-15.444C1797.058,1314.756,1799.151,1319.95,1801.354,1324.844Z" transform="translate(-1795.1 -1222.389)" fill="#ff6161"/>
            <path id="Caminho_1529" data-name="Caminho 1529" d="M1834.6,1116.569c.027-.381.082-.761.109-1.169C1834.654,1115.808,1834.627,1116.188,1834.6,1116.569Z" transform="translate(-1823.859 -1081.14)" fill="#ff6161"/>
            <path id="Caminho_1530" data-name="Caminho 1530" d="M1839.459,1409.573c-.571-1.006-1.115-2.039-1.659-3.073C1838.344,1407.533,1838.915,1408.566,1839.459,1409.573Z" transform="translate(-1826.19 -1293.087)" fill="#ff6161"/>
            <path id="Caminho_1531" data-name="Caminho 1531" d="M1833.3,1165.7c.027.245.054.435.082.653C1833.354,1166.135,1833.327,1165.945,1833.3,1165.7Z" transform="translate(-1822.913 -1117.763)" fill="#ff6161"/>
            <path id="Caminho_1532" data-name="Caminho 1532" d="M1832.8,1155.9c0,.272.027.544.027.816C1832.827,1156.444,1832.827,1156.2,1832.8,1155.9Z" transform="translate(-1822.549 -1110.627)" fill="#ff6161"/>
            <path id="Caminho_1533" data-name="Caminho 1533" d="M1833,1161.1a6.629,6.629,0,0,0,.054.734C1833.027,1161.589,1833.027,1161.345,1833,1161.1Z" transform="translate(-1822.695 -1114.413)" fill="#ff6161"/>
            <path id="Caminho_1534" data-name="Caminho 1534" d="M1849.763,1011c-.054.3-.109.571-.163.9C1849.654,1011.571,1849.709,1011.3,1849.763,1011Z" transform="translate(-1834.781 -1005.127)" fill="#ad263d"/>
            <path id="Caminho_1535" data-name="Caminho 1535" d="M1833.027,1141.1c0,.272-.027.544-.027.788C1833,1141.644,1833.027,1141.372,1833.027,1141.1Z" transform="translate(-1822.695 -1099.852)" fill="#ad263d"/>
            <path id="Caminho_1536" data-name="Caminho 1536" d="M1795.1,1309.3Z" transform="translate(-1795.1 -1222.317)" fill="#ad263d"/>
            <path id="Caminho_1537" data-name="Caminho 1537" d="M1847.39,1023c-.054.326-.109.653-.19.979C1847.281,1023.653,1847.336,1023.326,1847.39,1023Z" transform="translate(-1833.034 -1013.864)" fill="#ad263d"/>
            <path id="Caminho_1538" data-name="Caminho 1538" d="M1848.59,1016.8c-.054.3-.109.625-.19.952C1848.454,1017.4,1848.536,1017.1,1848.59,1016.8Z" transform="translate(-1833.907 -1009.35)" fill="#ad263d"/>
            <path id="Caminho_1539" data-name="Caminho 1539" d="M1850.863,1005.8l-.163.816Q1850.782,1006.167,1850.863,1005.8Z" transform="translate(-1835.582 -1001.341)" fill="#ad263d"/>
            <path id="Caminho_1540" data-name="Caminho 1540" d="M1818.417,1366.616a2.949,2.949,0,0,1-.218-.517A2.949,2.949,0,0,0,1818.417,1366.616Z" transform="translate(-1811.919 -1263.672)" fill="#ad263d"/>
            <path id="Caminho_1541" data-name="Caminho 1541" d="M1846.19,1029.6c-.054.354-.136.707-.19,1.06C1846.082,1030.307,1846.136,1029.953,1846.19,1029.6Z" transform="translate(-1832.16 -1018.669)" fill="#ad263d"/>
            <path id="Caminho_1542" data-name="Caminho 1542" d="M1832.827,1147.5a6.647,6.647,0,0,1-.027.734C1832.8,1147.99,1832.827,1147.745,1832.827,1147.5Z" transform="translate(-1822.549 -1104.511)" fill="#ad263d"/>
            <path id="Caminho_1543" data-name="Caminho 1543" d="M1853.836,993.8c-.054.163-.082.354-.136.544A2.659,2.659,0,0,1,1853.836,993.8Z" transform="translate(-1837.766 -992.604)" fill="#ad263d"/>
            <path id="Caminho_1544" data-name="Caminho 1544" d="M1854.536,991.2c-.054.136-.082.272-.136.408A3.546,3.546,0,0,0,1854.536,991.2Z" transform="translate(-1838.276 -990.711)" fill="#ad263d"/>
            <path id="Caminho_1545" data-name="Caminho 1545" d="M1832.9,1158.9a4.4,4.4,0,0,0,.027.6C1832.927,1159.308,1832.9,1159.09,1832.9,1158.9Z" transform="translate(-1822.622 -1112.812)" fill="#ad263d"/>
            <path id="Caminho_1546" data-name="Caminho 1546" d="M1855.309,989.4c-.027.082-.082.19-.109.272A1.886,1.886,0,0,0,1855.309,989.4Z" transform="translate(-1838.858 -989.4)" fill="#ad263d"/>
            <path id="Caminho_1547" data-name="Caminho 1547" d="M1851.863,1001.1c-.054.245-.109.462-.163.734Z" transform="translate(-1836.31 -997.919)" fill="#ad263d"/>
            <path id="Caminho_1548" data-name="Caminho 1548" d="M1834.3,1120.6l.082-.9Z" transform="translate(-1823.641 -1084.27)" fill="#ad263d"/>
            <path id="Caminho_1549" data-name="Caminho 1549" d="M1852.863,997.1c-.054.19-.109.408-.163.625C1852.754,997.508,1852.809,997.29,1852.863,997.1Z" transform="translate(-1837.038 -995.006)" fill="#ad263d"/>
            <path id="Caminho_1550" data-name="Caminho 1550" d="M1838.709,1079.8c-.054.326-.082.625-.109.952C1838.627,1080.425,1838.682,1080.126,1838.709,1079.8Z" transform="translate(-1826.772 -1055.219)" fill="#ad263d"/>
            <path id="Caminho_1551" data-name="Caminho 1551" d="M1833.854,1127.2c-.027.3-.054.571-.054.87C1833.8,1127.771,1833.827,1127.472,1833.854,1127.2Z" transform="translate(-1823.277 -1089.731)" fill="#ad263d"/>
            <path id="Caminho_1552" data-name="Caminho 1552" d="M1824.408,1379.5l-.408-.9A5.354,5.354,0,0,0,1824.408,1379.5Z" transform="translate(-1816.142 -1272.773)" fill="#ad263d"/>
            <path id="Caminho_1553" data-name="Caminho 1553" d="M1832.8,1153.4v0Z" transform="translate(-1822.549 -1108.807)" fill="#ad263d"/>
            <path id="Caminho_1554" data-name="Caminho 1554" d="M1837.709,1088c-.027.326-.082.653-.109.979A9.8,9.8,0,0,1,1837.709,1088Z" transform="translate(-1826.044 -1061.19)" fill="#ad263d"/>
            <path id="Caminho_1555" data-name="Caminho 1555" d="M1835.809,1104.1c-.027.326-.054.653-.109.952C1835.754,1104.753,1835.781,1104.426,1835.809,1104.1Z" transform="translate(-1824.661 -1072.912)" fill="#ad263d"/>
            <path id="Caminho_1556" data-name="Caminho 1556" d="M1839.809,1071.7c-.027.3-.082.571-.109.87C1839.727,1072.271,1839.781,1072,1839.809,1071.7Z" transform="translate(-1827.573 -1049.322)" fill="#ad263d"/>
            <path id="Caminho_1557" data-name="Caminho 1557" d="M1833.7,1168.1c.027.136.027.3.054.408A1.848,1.848,0,0,1,1833.7,1168.1Z" transform="translate(-1823.204 -1119.51)" fill="#ad263d"/>
            <path id="Caminho_1558" data-name="Caminho 1558" d="M1836.709,1096.1c-.027.326-.082.653-.109.979C1836.627,1096.725,1836.682,1096.426,1836.709,1096.1Z" transform="translate(-1825.316 -1067.087)" fill="#ad263d"/>
            <path id="Caminho_1559" data-name="Caminho 1559" d="M1834.4,1171.8a1.16,1.16,0,0,1,.054.3A.98.98,0,0,1,1834.4,1171.8Z" transform="translate(-1823.714 -1122.204)" fill="#ad263d"/>
            <path id="Caminho_1560" data-name="Caminho 1560" d="M1835.082,1112c-.027.326-.054.625-.082.952C1835.027,1112.625,1835.054,1112.3,1835.082,1112Z" transform="translate(-1824.151 -1078.664)" fill="#ad263d"/>
            <path id="Caminho_1561" data-name="Caminho 1561" d="M1833.354,1134.3c-.027.272-.027.571-.054.843C1833.3,1134.871,1833.327,1134.572,1833.354,1134.3Z" transform="translate(-1822.913 -1094.901)" fill="#ad263d"/>
            <path id="Caminho_1562" data-name="Caminho 1562" d="M1836.49,1404.024c-.163-.3-.326-.625-.49-.924C1836.163,1403.4,1836.326,1403.725,1836.49,1404.024Z" transform="translate(-1824.879 -1290.612)" fill="#ad263d"/>
            <path id="Caminho_1563" data-name="Caminho 1563" d="M1843.763,1044.4c-.054.354-.109.68-.163,1.033C1843.654,1045.08,1843.709,1044.726,1843.763,1044.4Z" transform="translate(-1830.412 -1029.445)" fill="#ad263d"/>
            <path id="Caminho_1564" data-name="Caminho 1564" d="M1844.99,1036.7c-.054.354-.109.707-.19,1.06C1844.881,1037.407,1844.936,1037.053,1844.99,1036.7Z" transform="translate(-1831.286 -1023.839)" fill="#ad263d"/>
            <path id="Caminho_1565" data-name="Caminho 1565" d="M1830.389,1391.906c-.163-.326-.326-.68-.489-1.006A8.549,8.549,0,0,0,1830.389,1391.906Z" transform="translate(-1820.438 -1281.729)" fill="#ad263d"/>
            <path id="Caminho_1566" data-name="Caminho 1566" d="M1841.009,1063.6c-.054.272-.082.571-.109.843C1840.927,1064.171,1840.954,1063.9,1841.009,1063.6Z" transform="translate(-1828.447 -1043.424)" fill="#ad263d"/>
            <path id="Caminho_1567" data-name="Caminho 1567" d="M1833.2,1163.8a3.342,3.342,0,0,0,.054.517A3.344,3.344,0,0,1,1833.2,1163.8Z" transform="translate(-1822.84 -1116.379)" fill="#ad263d"/>
            <path id="Caminho_1568" data-name="Caminho 1568" d="M1842.563,1052.2c-.054.326-.109.653-.163,1.006C1842.454,1052.853,1842.509,1052.526,1842.563,1052.2Z" transform="translate(-1829.539 -1035.124)" fill="#ad263d"/>
          </g>
          <g id="Grupo_1264" data-name="Grupo 1264" transform="translate(105.955 284.459)">
            <path id="Caminho_1569" data-name="Caminho 1569" d="M1832.5,1401.377s2.148,8.592,1.169,10.6a3.61,3.61,0,0,0,2.882,1.115,39.973,39.973,0,0,0,7.559-1.169c-.87-2.855-.707-10.5-.87-12.127Z" transform="translate(-1822.568 -1399.8)" fill="#fff"/>
            <g id="Grupo_1263" data-name="Grupo 1263" transform="translate(0 12.154)">
              <path id="Caminho_1570" data-name="Caminho 1570" d="M1809.522,1462.467a90.585,90.585,0,0,1-13.46.136,3.87,3.87,0,0,0-.082,1.006c.027,1.822,18.381,1.468,21.426-.326a2.843,2.843,0,0,0,1.2-2.583A57.832,57.832,0,0,1,1809.522,1462.467Z" transform="translate(-1795.973 -1456.295)" fill="#fff"/>
              <path id="Caminho_1571" data-name="Caminho 1571" d="M1809.687,1450.672a57.842,57.842,0,0,0,9.082-1.767,8.328,8.328,0,0,0-.816-3.535c-.109-.245-.218-.571-.326-.87a39.658,39.658,0,0,1-7.559,1.169,3.616,3.616,0,0,1-2.882-1.115c-.027.054-.054.082-.082.136-.49.789-1.931,1.414-3.888,2.257-2.855,1.523-6.444.816-7.015,3.888A95.5,95.5,0,0,0,1809.687,1450.672Z" transform="translate(-1796.138 -1444.5)" fill="#1e1240"/>
            </g>
          </g>
          <g id="Grupo_1266" data-name="Grupo 1266" transform="translate(176.631 243.401)">
            <path id="Caminho_1572" data-name="Caminho 1572" d="M2055.9,1258.453s9.054,3.78,10.305,5.656a3.655,3.655,0,0,0,2.447-1.931,39.418,39.418,0,0,0,2.828-7.1c-2.909-.707-8.157-5.6-9.653-6.281Z" transform="translate(-2055.9 -1248.8)" fill="#fff"/>
            <g id="Grupo_1265" data-name="Grupo 1265" transform="translate(9.128 6.308)">
              <path id="Caminho_1573" data-name="Caminho 1573" d="M2099.916,1285.328a86.621,86.621,0,0,1-6.716,11.665,7.072,7.072,0,0,0,.816.6c1.577.9,10.577-15.091,10.6-18.626a2.912,2.912,0,0,0-1.631-2.366A57.935,57.935,0,0,1,2099.916,1285.328Z" transform="translate(-2092.186 -1275.349)" fill="#fff"/>
              <path id="Caminho_1574" data-name="Caminho 1574" d="M2097.2,1281.979a58.4,58.4,0,0,0,3.1-8.728,8.466,8.466,0,0,0-3.453-1.088c-.272-.027-.6-.109-.924-.163a39.416,39.416,0,0,1-2.828,7.1,3.655,3.655,0,0,1-2.447,1.931c.027.054.054.082.082.136.435.816.245,2.365-.027,4.514-.136,3.209-2.556,5.955-.218,8.021A92.777,92.777,0,0,0,2097.2,1281.979Z" transform="translate(-2089.471 -1272)" fill="#1e1240"/>
            </g>
          </g>
          <path id="Caminho_1575" data-name="Caminho 1575" d="M1660.644,628.8s1.9-2.148,1.251-4.024c-.653-1.9.272-3.97-.354-4.487s-1.033,2.094-1.387,2.474-2.094-1.523-2.964-3.7c-.843-2.175-1.2.6-1.2.6s-.843-1.278-1.387-.054a5.57,5.57,0,0,0-.245,2.828s-.761-.435-.245,1.088C1654.581,625.052,1657.6,630.436,1660.644,628.8Z" transform="translate(-1586.604 -546.291)" fill="#e7738e"/>
        </g>
      </g>
    </g>
  </g>
</svg>
