<svg id="Grupo_1209" data-name="Grupo 1209" xmlns="http://www.w3.org/2000/svg" width="362.906" height="513.389" viewBox="0 0 362.906 513.389">
  <path id="Caminho_654" data-name="Caminho 654" d="M180.28-452.676c2.381-15.308,14.117-83.514,30.871-87.766,17.179-4.337-1.361,85.81-15.818,101.118-.425,11.481-1.956,24.068-6.633,26.109-8.845,3.912-30.446,2.636-37.675-12.161C146.262-434.817,165.652-445.958,180.28-452.676Z" transform="translate(17.036 594.235)" fill="#2e87be"/>
  <path id="Caminho_655" data-name="Caminho 655" d="M221.355-432.181l12.331-1.361a2.985,2.985,0,0,1,3.742,1.871l10.886,31.211a2.985,2.985,0,0,1-1.871,3.742l-12.331,1.361a2.985,2.985,0,0,1-3.742-1.871l-10.886-31.211A2.949,2.949,0,0,1,221.355-432.181Z" transform="translate(-72.089 578.248)" fill="#fff"/>
  <path id="Caminho_656" data-name="Caminho 656" d="M242.226-421.812c-.17-.68-.68-1.191-1.021-1.106s-.425.765-.255,1.446.68,1.191,1.021,1.106C242.311-420.536,242.481-421.132,242.226-421.812Z" transform="translate(-84.286 576.638)" fill="#1d1240"/>
  <path id="Caminho_657" data-name="Caminho 657" d="M363.007-64.916s-.6,18.455-4,22.962a9.224,9.224,0,0,0,6.548,4.167,91.884,91.884,0,0,0,19.05.765c-.765-7.484.935-20.326,1.276-24.408Z" transform="translate(-328.297 523.097)" fill="#fff"/>
  <path id="Caminho_658" data-name="Caminho 658" d="M393.585-19.908c-12.5-1.106-26.279-4.422-33.082-6.208a14.53,14.53,0,0,0-.68,2.466c-.85,4.422,44.308,12.5,52.643,9.61,2.211-.765,3.572-2.977,4.252-5.783A150.159,150.159,0,0,1,393.585-19.908Z" transform="translate(-359.81 517.295)" fill="#fff"/>
  <path id="Caminho_659" data-name="Caminho 659" d="M392.379-21.658a150.126,150.126,0,0,0,23.132.085,21.7,21.7,0,0,0-.255-9.015,16.447,16.447,0,0,1-.34-2.3,105.556,105.556,0,0,1-19.05-.765,9.224,9.224,0,0,1-6.548-4.167l-.255.255c-1.531,1.7-5.358,2.466-10.631,3.657-7.739,2.3-16.159-1.106-19.05,6.123C366.1-26.08,379.878-22.763,392.379-21.658Z" transform="translate(-358.605 519.044)" fill="#1d1240"/>
  <path id="Caminho_660" data-name="Caminho 660" d="M300.041-376.916s-84.194,7.654-128.673,27.725-51.537,89.212-55.279,103.074-20.666,104.265-11.056,134.03c5.273,16.414,41.842,23.728,48.816,9.185,6.974-14.458,34.188-150.7,48.476-168.984,8.845-11.4,106.731-1.786,141.515-26.279s25.6-55.789,25.6-55.789Z" transform="translate(-94.476 569.757)" fill="#1d1240"/>
  <path id="Caminho_661" data-name="Caminho 661" d="M144.71-55.884s6.038,17.434,4.507,22.877a9.1,9.1,0,0,0,7.569,1.531A94.352,94.352,0,0,0,174.9-37.6c-3.4-6.633-6.463-19.22-7.569-23.217Z" transform="translate(64.937 522.484)" fill="#fff"/>
  <path id="Caminho_662" data-name="Caminho 662" d="M172.126-13.067C160.05-9.58,146.018-7.709,139.044-6.944a9.264,9.264,0,0,0,.255,2.551c.85,4.422,45.839-4.337,52.558-10.035,1.786-1.531,2.3-4.082,1.871-6.889A151.048,151.048,0,0,1,172.126-13.067Z" transform="translate(50.788 516.577)" fill="#fff"/>
  <path id="Caminho_663" data-name="Caminho 663" d="M172.207-14.892a145.083,145.083,0,0,0,21.6-8.249,21.335,21.335,0,0,0-3.487-8.334,21.687,21.687,0,0,1-1.191-2.041,94.351,94.351,0,0,1-18.115,6.123,9.1,9.1,0,0,1-7.569-1.531c0,.085-.085.255-.085.34-.85,2.126-4.082,4.252-8.59,7.229-6.378,4.933-15.478,4.763-15.563,12.587A222.922,222.922,0,0,0,172.207-14.892Z" transform="translate(50.707 518.401)" fill="#1d1240"/>
  <path id="Caminho_664" data-name="Caminho 664" d="M177.08-384.716s-58.6,14.2-103.074,34.273S20.513-295.5,32.844-242.861c3.232,13.947,41.587,107.837,51.282,137.6,5.273,16.414,59.106,16.5,66.08,2.041S95.182-261.656,104.962-273.137c9.355-10.971,90.658-8.5,125.442-33s16.073-55.619,16.073-55.619Z" transform="translate(87.761 570.924)" fill="#311d69"/>
  <path id="Caminho_665" data-name="Caminho 665" d="M186.13-486.895c-.85,4-2.551,7.739-3.317,11.651-4.507,22.877-17.009,53.918-18.71,57.405-2.041,4.337,24.578,7.059,25.258-1.021.68-7.994,15.648-107.5,9.95-101.8C195.145-516.32,188.256-496.675,186.13-486.895Z" transform="translate(22.837 591.289)" fill="#1d1240"/>
  <path id="Caminho_666" data-name="Caminho 666" d="M172.427-304.938c34.783-24.493,16.073-55.619,16.073-55.619l-48.986-16.159c-4.507,26.279-12.927,54.514-27.215,58.341-26.789,7.144-73.9-9.78-81.643,18.71-7.739,28.4.765,88.447,13.352,114.64,9.185,19.05,18.54,66.25,23.642,93.379,11.566-1.021,21.686-4.507,24.493-10.29C99.118-116.394,37.121-260.375,46.9-271.856,56.341-282.826,137.644-280.445,172.427-304.938Z" transform="translate(145.822 569.727)" fill="#1d1240"/>
  <path id="Caminho_667" data-name="Caminho 667" d="M34.339-548.443C50.5-561.2,100.674-567.748,127.8-551.334c35.889,21.686,53.238,137.773,17.264,176.638-30.191,32.572-123.4-13.692-131.65-16.073-16.5-4.762-21.176-36.059,5.7-120.423C24.3-527.862,26.77-542.49,34.339-548.443Z" transform="translate(198.015 597.303)" fill="#4bb4d4"/>
  <path id="Caminho_668" data-name="Caminho 668" d="M166.429-503.574c-5.188,20.836-13.607,80.708-17.944,113.11-14.968-6.633-18.285-38.61,7.484-119.743,5.273-16.669,7.739-31.212,15.308-37.25a48.452,48.452,0,0,1,14.117-7.059A239.6,239.6,0,0,0,166.429-503.574Z" transform="translate(61.078 596.317)" fill="#2e87be"/>
  <path id="Caminho_669" data-name="Caminho 669" d="M22.216-370.388a120.815,120.815,0,0,0,16.754-7.229c52.558-27.469,69.142-49.241,85.641-121.7,0,0,9.1,39.631-6.548,83.769a134.039,134.039,0,0,1-7.569,17.434,65.364,65.364,0,0,1-79.687,30.956C27.914-368.262,25.023-369.367,22.216-370.388Z" transform="translate(216.772 588.062)" fill="#311d69"/>
  <path id="Caminho_670" data-name="Caminho 670" d="M111.529-555.594c17.774-5.953,35.209-3.232,35.209-3.232,28.575,10.375-21.262,141-39.036,185.058-15.308-5.1-28.745-10.8-36.569-14.032C78.361-434.915,97.411-550.831,111.529-555.594Z" transform="translate(147.019 597.055)" fill="#fff"/>
  <path id="Caminho_671" data-name="Caminho 671" d="M184.654-539.792c26.194,29.681,5.953,130.544-38.525,157.758S21.368-388.752,24.94-416.647s87.936-7.569,95.335-17.009,18.88-83.514,35.124-105.03C166.965-554.249,177.6-547.786,184.654-539.792Z" transform="translate(145.502 595.37)" fill="#4bb4d4"/>
  <path id="Caminho_672" data-name="Caminho 672" d="M111.188-602.093s-7.314-3.487-10.8-.085c-11.4,11.141,1.446,17.264,1.446,17.264s18.285,11.481,22.707,10.886c4.422-.51,2.551-11.4,1.786-13.862s-.936-9.78-3.317-11.4C119.692-601.583,115.185-604.559,111.188-602.093Z" transform="translate(154.164 603.668)" fill="#1d1240"/>
  <path id="Caminho_673" data-name="Caminho 673" d="M99.279-583.416l12.5,20.5c.935,2.721-8.675,11.311-14.118,9.355-1.616-.6-7.229-20.751-7.229-20.751Z" transform="translate(174.151 600.639)" fill="#e7738e"/>
  <path id="Caminho_674" data-name="Caminho 674" d="M103.445-572.5c.51,1.786,1.871,6.719,3.4,11.226a12.974,12.974,0,0,0,4.848-4.763,13.391,13.391,0,0,0,1.616-9.78S107.187-574.03,103.445-572.5Z" transform="translate(161.311 599.503)" fill="#311d69"/>
  <path id="Caminho_675" data-name="Caminho 675" d="M115.383-589.257l6.293,10.12a7.3,7.3,0,0,1-2.892,9.7c-2.721,1.531-4.677,2.041-8.5,2.466-3.232.425-5.613-2.211-6.633-6.293a37.918,37.918,0,0,1-.68-13.437C103.647-593.169,110.79-595.466,115.383-589.257Z" transform="translate(153.116 602.058)" fill="#e7738e"/>
  <path id="Caminho_676" data-name="Caminho 676" d="M117.21-573.17s3.147,3.572,5.443-1.446A30.718,30.718,0,0,0,117.21-573.17Z" transform="translate(140.573 599.323)" fill="#fff"/>
  <path id="Caminho_677" data-name="Caminho 677" d="M105.468-568.412c3.317-1.616,7.314,3.062,12.331-3.487.936-1.191,1.021-3.657.936-5.018l.17.255a7.3,7.3,0,0,1-2.892,9.7c-2.721,1.531-4.677,2.041-8.5,2.466a5.207,5.207,0,0,1-4.848-2.3C103.342-566.881,104.448-567.9,105.468-568.412Z" transform="translate(155.886 599.667)" fill="#ac253c"/>
  <path id="Caminho_678" data-name="Caminho 678" d="M103.912-583.67a6.341,6.341,0,0,0,.34-2.211c.085-1.361.6-3.487,2.636-2.3,2.892,1.7,1.871,9.1-1.616,9.44C102.721-578.482,103.4-581.884,103.912-583.67Z" transform="translate(166.372 601.404)" fill="#e7738e"/>
  <path id="Caminho_679" data-name="Caminho 679" d="M110.749-587.314c-.17-1.191-3.062-3.4-3.062-3.4v.17s1.786,4.677,1.446,6.548c-.255,1.871-.17,2.977.935,1.871C111.174-583.062,111-586.124,110.749-587.314Z" transform="translate(160.385 601.731)" fill="#1d1240"/>
  <path id="Caminho_681" data-name="Caminho 681" d="M66.146-440.37a17.085,17.085,0,0,1-11.737,6.038c7.4-11.736,18.71-83.344,34.614-104.35,5.613-7.4,10.971-9.78,15.818-9.44C98.463-527.456,74.225-450.065,66.146-440.37Z" transform="translate(211.793 595.366)" fill="#2e87be"/>
  <path id="Caminho_682" data-name="Caminho 682" d="M46.277-385.291c11.4,11.056,43.628,18.795,86.065,10.8,27.725-5.188,57.321-38.866,65.06-58.426-8.164,28.83-23.3,55.96-43.288,68.121-44.479,27.214-124.761-6.719-121.189-34.613,0-.255.085-.425.085-.68A123.923,123.923,0,0,0,46.277-385.291Z" transform="translate(137.602 578.132)" fill="#2e87be"/>
  <path id="Caminho_680" data-name="Caminho 680" d="M241.354-400.256s-6.8-9.1-7.654-11.566c-.765-2.466.6-6.548-2.381-4.677s-.085,7.314,0,9.1-9.185-1.276-11.056-3.232-3.4-5.7-4.677-3.232c-1.191,2.466.935,9.1.6,10.461-.425,1.361,4.848,10.461,10.035,11.821s12.842,3.827,14.628,0C242.715-395.324,241.949-399.491,241.354-400.256Z" transform="translate(-62.153 575.748)" fill="#e7738e"/>
</svg>

